<svg width="251" height="251" viewBox="0 0 251 251" fill="none" xmlns="http://www.w3.org/2000/svg">
<path d="M201.151 216.658C213.556 205.504 222.773 190.268 229.73 175.494C240.066 153.547 245.568 126.163 231.141 104.823C222.818 92.5136 209.816 84.7426 195.383 81.816C181.498 79.0048 167.994 79.6122 156.052 70.8121C143.974 61.9016 133.462 50.7873 122.649 40.4411C94.8479 13.8351 44.3366 21.4655 20.8782 57.2882C-2.58028 93.111 3.81018 139.646 26.4002 161.232C46.686 180.625 74.9888 184.415 97.388 199.575C108.487 207.105 116.248 218.184 128.01 224.796C141.689 232.481 158.461 235.634 173.873 231.708C184.365 229.032 193.38 223.646 201.151 216.658Z" fill="#62C27D"/>
<path opacity="0.7" d="M201.151 216.658C213.556 205.504 222.773 190.268 229.73 175.494C240.066 153.547 245.568 126.163 231.141 104.823C222.818 92.5136 209.816 84.7426 195.383 81.816C181.498 79.0048 167.994 79.6122 156.052 70.8121C143.974 61.9016 133.462 50.7873 122.649 40.4411C94.8479 13.8351 44.3366 21.4655 20.8782 57.2882C-2.58028 93.111 3.81018 139.646 26.4002 161.232C46.686 180.625 74.9888 184.415 97.388 199.575C108.487 207.105 116.248 218.184 128.01 224.796C141.689 232.481 158.461 235.634 173.873 231.708C184.365 229.032 193.38 223.646 201.151 216.658Z" fill="#62C27D"/>
<path d="M224.274 222.813L222.331 204.575" stroke="#2E353A" stroke-width="0.985332" stroke-linecap="round" stroke-linejoin="round"/>
<path d="M222.321 205.087C222.321 205.087 218.832 202.371 218.832 196.162C218.832 189.952 223.485 184.912 223.485 184.912C223.485 184.912 228.53 191.121 227.366 197.326C226.201 203.531 222.321 205.087 222.321 205.087Z" fill="#62C27D" stroke="#2E353A" stroke-width="0.985332" stroke-linecap="round" stroke-linejoin="round"/>
<path d="M222.331 204.575L223.219 190.87" stroke="#2E353A" stroke-width="0.985332" stroke-linecap="round" stroke-linejoin="round"/>
<path d="M226.066 221.467C227.759 217.102 229.827 212.891 232.245 208.882" stroke="#2E353A" stroke-width="0.985332" stroke-linecap="round" stroke-linejoin="round"/>
<path d="M230.418 212.18C230.418 212.18 228.48 208.199 231.221 202.642C233.962 197.085 240.368 194.61 240.368 194.61C240.368 194.61 242.15 202.406 238.36 207.462C234.57 212.517 230.418 212.18 230.418 212.18Z" fill="#62C27D" stroke="#2E353A" stroke-width="0.985332" stroke-linecap="round" stroke-linejoin="round"/>
<path d="M230.418 212.18L237.481 200.569" stroke="#2E353A" stroke-width="0.985332" stroke-linecap="round" stroke-linejoin="round"/>
<path d="M221.126 223.094C220.073 219.587 218.643 216.206 216.859 213.009L214.143 208.33" stroke="#2E353A" stroke-width="0.985332" stroke-linecap="round" stroke-linejoin="round"/>
<path d="M216.327 211.949C214.184 212.608 211.909 212.712 209.715 212.254C207.52 211.796 205.477 210.79 203.777 209.329C197.753 204.269 198.089 193.943 198.089 193.943C198.089 193.943 209.766 192.276 214.48 198.892C215.846 200.745 216.73 202.908 217.053 205.188C217.375 207.467 217.126 209.791 216.327 211.949Z" fill="#62C27D" stroke="#2E353A" stroke-width="0.985332" stroke-linecap="round" stroke-linejoin="round"/>
<path d="M216.327 211.949L202.487 197.527" stroke="#2E353A" stroke-width="0.985332" stroke-linecap="round" stroke-linejoin="round"/>
<path d="M230.659 218.907H215.885V233.395H230.659V218.907Z" fill="#2E353A" stroke="#2E353A" stroke-width="0.985332" stroke-linecap="round" stroke-linejoin="round"/>
<path d="M205.976 14.558H107.152V97.8147H205.976V14.558Z" fill="white" stroke="#2E353A" stroke-width="0.985332" stroke-linecap="round" stroke-linejoin="round"/>
<path d="M127.664 61.3645H126.86L126.725 60.4508H125.751L125.61 61.3645H124.883L125.691 56.3093H126.855L127.664 61.3645ZM125.851 59.7631H126.614L126.233 57.2029L125.851 59.7631Z" fill="black"/>
<path d="M128.788 56.3093V60.2099C128.788 60.5713 128.949 60.7119 129.2 60.7119C129.451 60.7119 129.616 60.5813 129.616 60.2099V56.3093H130.364V60.1597C130.364 60.9679 129.963 61.4297 129.18 61.4297C128.397 61.4297 127.995 60.9679 127.995 60.1597V56.3093H128.788Z" fill="black"/>
<path d="M130.676 56.3093H133.13V57.0322H132.302V61.3645H131.524V57.0322H130.696L130.676 56.3093Z" fill="black"/>
<path d="M134.275 61.3645H133.477V56.3093H134.275V58.478H135.174V56.3093H135.987V61.3645H135.174V59.2008H134.275V61.3645Z" fill="black"/>
<path d="M137.357 58.4378H138.447V59.1607H137.357V60.6667H138.728V61.3896H136.544V56.3093H138.708V57.0322H137.337L137.357 58.4378Z" fill="black"/>
<path d="M139.927 57.73V61.3896H139.215V56.3093H140.219L141.037 59.3213V56.3093H141.745V61.3645H140.926L139.927 57.73Z" fill="black"/>
<path d="M142.066 56.3093H144.526V57.0322H143.692V61.3645H142.899V57.0322H142.066V56.3093Z" fill="black"/>
<path d="M144.877 56.3093H145.67V61.3645H144.877V56.3093Z" fill="black"/>
<path d="M148.552 59.482V60.1546C148.552 60.9629 148.15 61.4247 147.367 61.4247C146.584 61.4247 146.182 60.9629 146.182 60.1546V57.5242C146.182 56.7109 146.589 56.2491 147.367 56.2491C148.145 56.2491 148.552 56.7109 148.552 57.5242V58.0262H147.804V57.484C147.804 57.1226 147.643 56.982 147.392 56.982C147.141 56.982 146.981 57.1226 146.981 57.484V60.2149C146.981 60.5763 147.136 60.7169 147.392 60.7169C147.648 60.7169 147.804 60.5914 147.804 60.2149V59.492L148.552 59.482Z" fill="black"/>
<path d="M151.604 61.3645H150.801L150.665 60.4508H149.696L149.556 61.3645H148.828L149.636 56.3093H150.801L151.604 61.3645ZM149.792 59.7631H150.555L150.173 57.2029L149.792 59.7631Z" fill="black"/>
<path d="M151.468 56.3093H153.928V57.0322H153.11V61.3645H152.317V57.0322H151.484L151.468 56.3093Z" fill="black"/>
<path d="M155.068 58.4378H156.157V59.1607H155.068V60.6667H156.443V61.3896H154.275V56.3093H156.443V57.0322H155.068V58.4378Z" fill="black"/>
<path d="M158.798 59.6878L157.794 56.3093H158.632L159.239 58.6135L159.847 56.3093H160.605L159.601 59.6878V61.3645H158.808L158.798 59.6878Z" fill="black"/>
<path d="M160.74 57.5242C160.74 57.2046 160.867 56.8982 161.093 56.6722C161.319 56.4463 161.626 56.3194 161.945 56.3194C162.265 56.3194 162.571 56.4463 162.797 56.6722C163.023 56.8982 163.15 57.2046 163.15 57.5242V60.1546C163.15 60.4742 163.023 60.7806 162.797 61.0066C162.571 61.2325 162.265 61.3594 161.945 61.3594C161.626 61.3594 161.319 61.2325 161.093 61.0066C160.867 60.7806 160.74 60.4742 160.74 60.1546V57.5242ZM161.534 60.2048C161.534 60.5663 161.694 60.7068 161.945 60.7068C162.196 60.7068 162.357 60.5713 162.357 60.2048V57.474C162.357 57.1125 162.196 56.972 161.945 56.972C161.694 56.972 161.534 57.1125 161.534 57.474V60.2048Z" fill="black"/>
<path d="M164.42 56.3093V60.2099C164.42 60.5713 164.581 60.7119 164.832 60.7119C165.083 60.7119 165.243 60.5813 165.243 60.2099V56.3093H165.996V60.1597C165.996 60.9679 165.595 61.4297 164.812 61.4297C164.028 61.4297 163.627 60.9679 163.627 60.1597V56.3093H164.42Z" fill="black"/>
<path d="M168.2 61.3645C168.133 61.1642 168.109 60.9521 168.13 60.742V59.9488C168.13 59.482 167.969 59.3063 167.628 59.3063H167.352V61.3645H166.559V56.3093H167.758C168.582 56.3093 168.933 56.6908 168.933 57.474V57.8705C168.959 58.0689 168.925 58.2704 168.835 58.4493C168.746 58.6281 168.605 58.7762 168.431 58.8745C168.828 59.0402 168.958 59.4217 168.958 59.9488V60.742C168.943 60.9499 168.972 61.1587 169.043 61.3544L168.2 61.3645ZM167.332 57.0322V58.5834H167.668C167.964 58.5834 168.145 58.4529 168.145 58.0513V57.5493C168.145 57.1878 168.024 57.0473 167.743 57.0473L167.332 57.0322Z" fill="black"/>
<path d="M173.135 61.3645H172.332L172.196 60.4508H171.217L171.082 61.3645H170.354L171.182 56.3093H172.347L173.135 61.3645ZM171.323 59.7631H172.086L171.684 57.228L171.323 59.7631Z" fill="black"/>
<path d="M175.8 59.482V60.1546C175.8 60.9629 175.394 61.4247 174.616 61.4247C173.838 61.4247 173.431 60.9629 173.431 60.1546V57.5242C173.431 56.7109 173.833 56.2491 174.616 56.2491C175.399 56.2491 175.8 56.7109 175.8 57.5242V58.0262H175.047V57.484C175.047 57.1226 174.887 56.982 174.636 56.982C174.385 56.982 174.224 57.1226 174.224 57.484V60.2149C174.224 60.5763 174.385 60.7169 174.636 60.7169C174.887 60.7169 175.047 60.5914 175.047 60.2149V59.492L175.8 59.482Z" fill="black"/>
<path d="M178.586 59.482V60.1546C178.586 60.9629 178.185 61.4247 177.402 61.4247C176.619 61.4247 176.217 60.9629 176.217 60.1546V57.5242C176.217 56.7109 176.624 56.2491 177.402 56.2491C178.18 56.2491 178.586 56.7109 178.586 57.5242V58.0262H177.833V57.484C177.833 57.1226 177.678 56.982 177.422 56.982C177.166 56.982 177.01 57.1226 177.01 57.484V60.2149C177.01 60.5763 177.171 60.7169 177.422 60.7169C177.673 60.7169 177.833 60.5914 177.833 60.2149V59.492L178.586 59.482Z" fill="black"/>
<path d="M179.003 57.5242C178.992 57.3591 179.016 57.1935 179.072 57.0378C179.127 56.8821 179.215 56.7395 179.328 56.6188C179.441 56.4981 179.578 56.4019 179.73 56.3361C179.881 56.2704 180.045 56.2365 180.21 56.2365C180.376 56.2365 180.54 56.2704 180.691 56.3361C180.843 56.4019 180.98 56.4981 181.093 56.6188C181.206 56.7395 181.293 56.8821 181.349 57.0378C181.405 57.1935 181.428 57.3591 181.418 57.5242V60.1546C181.428 60.3197 181.405 60.4853 181.349 60.641C181.293 60.7967 181.206 60.9393 181.093 61.06C180.98 61.1807 180.843 61.2769 180.691 61.3427C180.54 61.4084 180.376 61.4424 180.21 61.4424C180.045 61.4424 179.881 61.4084 179.73 61.3427C179.578 61.2769 179.441 61.1807 179.328 61.06C179.215 60.9393 179.127 60.7967 179.072 60.641C179.016 60.4853 178.992 60.3197 179.003 60.1546V57.5242ZM179.801 60.2048C179.801 60.5663 179.957 60.7068 180.213 60.7068C180.469 60.7068 180.625 60.5713 180.625 60.2048V57.474C180.625 57.1125 180.464 56.972 180.213 56.972C179.962 56.972 179.801 57.1125 179.801 57.474V60.2048Z" fill="black"/>
<path d="M182.688 56.3093V60.2099C182.688 60.5713 182.848 60.7119 183.099 60.7119C183.35 60.7119 183.511 60.5813 183.511 60.2099V56.3093H184.264V60.1597C184.264 60.9679 183.863 61.4297 183.079 61.4297C182.296 61.4297 181.895 60.9679 181.895 60.1597V56.3093H182.688Z" fill="black"/>
<path d="M185.514 57.73V61.3896H184.801V56.3093H185.805L186.624 59.3213V56.3093H187.331V61.3645H186.513L185.514 57.73Z" fill="black"/>
<path d="M187.658 56.3093H190.117V57.0322H189.284V61.3645H188.491V57.0322H187.658V56.3093Z" fill="black"/>
<path d="M168.218 40.8059C169.213 34.6253 165.01 28.808 158.829 27.8125C152.649 26.817 146.832 31.0203 145.836 37.2009C144.841 43.3815 149.044 49.1988 155.224 50.1943C161.405 51.1898 167.222 46.9865 168.218 40.8059Z" fill="#5ACE7B"/>
<path d="M161.97 36.39C161.97 37.3679 161.68 38.3239 161.137 39.1371C160.594 39.9502 159.821 40.584 158.918 40.9583C158.014 41.3325 157.02 41.4304 156.061 41.2396C155.102 41.0488 154.221 40.5779 153.529 39.8864C152.838 39.1949 152.367 38.3138 152.176 37.3546C151.985 36.3954 152.083 35.4012 152.457 34.4977C152.832 33.5942 153.465 32.8219 154.278 32.2786C155.092 31.7353 156.048 31.4453 157.026 31.4453C158.337 31.4453 159.595 31.9662 160.522 32.8935C161.449 33.8208 161.97 35.0785 161.97 36.39Z" fill="black"/>
<path d="M148.888 46.8868C149.944 47.9777 151.209 48.8452 152.607 49.4376C154.005 50.03 155.507 50.3353 157.026 50.3353C158.544 50.3353 160.047 50.03 161.445 49.4376C162.843 48.8452 164.107 47.9777 165.163 46.8868V46.5605C165.164 45.9879 165.051 45.4207 164.833 44.8915C164.614 44.3622 164.293 43.8813 163.889 43.4761C163.484 43.071 163.003 42.7496 162.474 42.5303C161.945 42.311 161.378 42.1981 160.806 42.1981H153.251C152.094 42.1981 150.984 42.6577 150.166 43.4758C149.348 44.2939 148.888 45.4035 148.888 46.5605V46.8868Z" fill="black"/>
<path d="M190.996 70.4758H122.614V78.7889H190.996V70.4758Z" stroke="#2E353A" stroke-width="0.985332" stroke-miterlimit="10"/>
<path d="M190.996 82.9404H122.614V91.2535H190.996V82.9404Z" fill="#5ACE7B" stroke="#2E353A" stroke-width="0.985332" stroke-miterlimit="10"/>
<path d="M145.55 74.8683V75.3703H144.315V77.1674H145.821V77.6694H143.743V72.6293H145.821V73.1313H144.315V74.8582L145.55 74.8683Z" fill="#2E353A"/>
<path d="M146.85 77.6895H146.348V72.6293H147.086L148.256 76.2839V72.6293H148.758V77.6895H148.17L146.875 73.5982L146.85 77.6895Z" fill="#2E353A"/>
<path d="M150.043 77.6895V73.1414H149.094V72.6394H151.524V73.1414H150.6V77.6895H150.043Z" fill="#2E353A"/>
<path d="M153.727 74.8683V75.3703H152.492V77.1674H153.998V77.6694H151.92V72.6293H153.998V73.1313H152.492V74.8582L153.727 74.8683Z" fill="#2E353A"/>
<path d="M155.655 72.6293C156.453 72.6293 156.785 73.036 156.785 73.7839V74.1956C156.819 74.4156 156.775 74.6408 156.661 74.8317C156.546 75.0226 156.368 75.167 156.157 75.2397C156.619 75.3753 156.79 75.7417 156.79 76.2939V77.0821C156.775 77.2896 156.809 77.4977 156.89 77.6895H156.323C156.242 77.4942 156.21 77.2825 156.227 77.072V76.304C156.227 75.7317 155.961 75.551 155.489 75.551H155.118V77.7146H154.556V72.6293H155.655ZM155.515 75.0138C155.961 75.0138 156.227 74.8683 156.227 74.3211V73.8191C156.227 73.3673 156.062 73.1263 155.64 73.1263H155.118V74.9988L155.515 75.0138Z" fill="#2E353A"/>
<path d="M160.73 73.8492V74.296H160.193V73.794C160.193 73.3371 160.013 73.061 159.601 73.061C159.189 73.061 159.009 73.3371 159.009 73.794V76.4646C159.009 76.9214 159.194 77.1975 159.601 77.1975C160.007 77.1975 160.193 76.9214 160.193 76.4646V75.807H160.73V76.4345C160.73 77.2025 160.364 77.7096 159.586 77.7096C158.808 77.7096 158.451 77.2076 158.451 76.4345V73.8191C158.451 73.056 158.813 72.549 159.586 72.549C160.359 72.549 160.73 73.0861 160.73 73.8492Z" fill="#2E353A"/>
<path d="M161.197 73.8492C161.197 73.0761 161.579 72.5792 162.352 72.5792C163.125 72.5792 163.516 73.0812 163.516 73.8492V76.4646C163.516 77.2327 163.135 77.7397 162.352 77.7397C161.569 77.7397 161.197 77.2377 161.197 76.4646V73.8492ZM161.754 76.4948C161.754 76.9566 161.95 77.2277 162.352 77.2277C162.753 77.2277 162.954 76.9566 162.954 76.4948V73.8241C162.954 73.3673 162.763 73.0912 162.352 73.0912C161.94 73.0912 161.754 73.3673 161.754 73.8241V76.4948Z" fill="#2E353A"/>
<path d="M165.233 72.6293C166.021 72.6293 166.383 73.1062 166.383 73.8894V76.4395C166.383 77.2126 166.021 77.6895 165.233 77.6895H164.049V72.6293H165.233ZM165.233 77.1473C165.635 77.1473 165.831 76.8963 165.831 76.4345V73.8341C165.831 73.3723 165.635 73.1163 165.223 73.1163H164.616V77.1323L165.233 77.1473Z" fill="#2E353A"/>
<path d="M168.707 74.8683V75.3703H167.472V77.1674H168.978V77.6694H166.895V72.6293H168.978V73.1313H167.472V74.8582L168.707 74.8683Z" fill="#2E353A"/>
<path d="M152.206 85.1392C152.99 85.1392 153.351 85.6412 153.351 86.3992V88.9494C153.351 89.7224 152.99 90.1993 152.206 90.1993H151.017V85.1392H152.206ZM152.206 89.6873C152.613 89.6873 152.809 89.4313 152.809 88.9694V86.3691C152.809 85.9072 152.613 85.6563 152.201 85.6563H151.604V89.6722L152.206 89.6873Z" fill="black"/>
<path d="M153.838 86.344C153.838 85.5709 154.219 85.0689 154.992 85.0689C155.766 85.0689 156.157 85.5709 156.157 86.344V88.9594C156.18 89.1226 156.167 89.2889 156.118 89.4463C156.07 89.6038 155.987 89.7484 155.875 89.8699C155.764 89.9914 155.627 90.0867 155.474 90.1488C155.322 90.211 155.157 90.2385 154.992 90.2295C154.219 90.2295 153.838 89.7275 153.838 88.9594V86.344ZM154.39 88.9895C154.39 89.4514 154.586 89.7174 154.992 89.7174C155.399 89.7174 155.59 89.4514 155.59 88.9895V86.344C155.59 85.8872 155.404 85.6111 154.992 85.6111C154.581 85.6111 154.39 85.8872 154.39 86.344V88.9895Z" fill="black"/>
<path d="M157.186 90.1993H156.684V85.1392H157.397L158.567 88.7988V85.1392H159.069V90.1993H158.481L157.186 86.108V90.1993Z" fill="black"/>
<path d="M161.443 87.3831V87.8851H160.208V89.6873H161.714V90.1893H159.636V85.1392H161.719V85.6412H160.213V87.3681L161.443 87.3831Z" fill="black"/>
<path d="M205.976 14.558H107.152V18.584H205.976V14.558Z" fill="#5ACE7B" stroke="#2E353A" stroke-width="0.985332" stroke-linecap="round" stroke-linejoin="round"/>
<path d="M41.0234 143.206V142.463" stroke="#2E353A" stroke-width="0.985332" stroke-linecap="round" stroke-linejoin="round"/>
<path d="M41.0234 140.992V77.3431C41.0234 76.0572 41.2768 74.7839 41.7691 73.5959C42.2613 72.4079 42.9828 71.3285 43.8923 70.4195C44.8019 69.5104 45.8816 68.7895 47.0698 68.2978C48.2581 67.8062 49.5315 67.5535 50.8175 67.5541H97.388" stroke="#2E353A" stroke-width="0.985332" stroke-linecap="round" stroke-linejoin="round" stroke-dasharray="2.93 2.93"/>
<path d="M98.146 67.5541H98.8839" stroke="#2E353A" stroke-width="0.985332" stroke-linecap="round" stroke-linejoin="round"/>
<path d="M103.778 67.9607L95.7766 63.3373V72.5791L103.778 67.9607Z" fill="black"/>
<path d="M180.168 205.197H180.911" stroke="#2E353A" stroke-width="0.985332" stroke-linecap="round" stroke-linejoin="round"/>
<path d="M182.382 205.197H185.128C187.733 205.197 190.232 204.162 192.074 202.32C193.917 200.478 194.952 197.979 194.952 195.373V102.503" stroke="#2E353A" stroke-width="0.985332" stroke-linecap="round" stroke-linejoin="round" stroke-dasharray="2.93 2.93"/>
<path d="M194.952 101.77V101.033" stroke="#2E353A" stroke-width="0.985332" stroke-linecap="round" stroke-linejoin="round"/>
<path d="M177.367 204.766L185.369 209.384V200.142L177.367 204.766Z" fill="black"/>
<path d="M135.435 144.506C135.861 143.693 136.502 143.014 137.288 142.54C138.074 142.067 138.975 141.818 139.892 141.82H182.838C182.838 141.82 185.941 141.82 185.012 147.719C184.083 153.617 171.353 189.631 168.245 200.494C165.138 211.357 164.52 234.334 164.52 234.334H112.985C112.985 234.334 117.117 179.48 135.435 144.506Z" fill="#EDF1D6" stroke="black" stroke-width="0.985332" stroke-linecap="round" stroke-linejoin="round"/>
<path d="M175.389 152.066C171.046 162.196 161.835 202.266 160.369 234.334H164.52C164.52 234.334 165.158 211.342 168.245 200.494C171.333 189.646 184.078 153.617 185.012 147.719C185.946 141.82 182.838 141.82 182.838 141.82C182.838 141.82 178.868 143.943 175.389 152.066Z" fill="black" stroke="black" stroke-width="0.985332" stroke-linecap="round" stroke-linejoin="round"/>
<path d="M93.7234 142.633C93.7234 142.633 85.842 141.674 80.6362 136.203C75.4305 130.731 91.9513 111.218 100.771 106.62C109.592 102.021 113.226 103.281 122.684 110.254C132.141 117.227 141.373 128.417 141.258 135.922C141.142 143.426 137.056 147.016 142.764 150.715C148.471 154.415 164.626 164.922 166.985 172.141C169.345 179.36 165.253 188.34 155.781 193.225C146.308 198.109 130.766 197.883 115.796 193.044C100.827 188.205 97.5687 172.894 99.4964 166.664C101.424 160.434 106.524 156.152 104.988 151.413C103.452 146.674 93.7234 142.633 93.7234 142.633Z" fill="black" stroke="black" stroke-width="0.985332" stroke-linecap="round" stroke-linejoin="round"/>
<path d="M100.48 164.154C100.48 164.154 92.3278 163.019 88.5628 165.454C84.7978 167.889 66.1937 199.686 66.1937 199.686L55.9178 185.855L47.0073 189.856C47.0073 189.856 51.1839 206.021 56.0433 214.063C60.9026 222.105 63.6737 222.918 65.3403 222.652C70.3001 221.864 84.6673 205.243 84.6673 205.243L89.8881 222.612L86.344 235.237H152.357L144.35 221.884C144.35 221.884 154.797 173.692 152.136 168.587C149.476 163.481 133.974 164.154 129.099 164.154H115.144C113.029 164.573 110.879 164.795 108.723 164.817C105.966 164.736 103.215 164.515 100.48 164.154Z" fill="#62C27D"/>
<path d="M144.576 165.78L144.712 165.836L143.446 169.059L143.306 169.003L144.576 165.78ZM144.23 169.365L144.365 169.42L145.635 166.197L145.495 166.142L144.23 169.365ZM149.988 179.621L149.842 179.58L149.285 181.563H149.44L149.988 179.621ZM150.941 179.892L150.796 179.852L150.294 181.563H150.444L150.941 179.892ZM144.917 180.002L145.389 181.563H145.545L145.043 179.957L144.917 180.002ZM146.012 179.676L145.866 179.716L146.423 181.563H146.579L146.012 179.676ZM150.053 172.301L151.775 169.289L151.649 169.214L149.927 172.226L150.053 172.301ZM150.916 172.803L152.528 169.987C152.528 169.902 152.528 169.827 152.498 169.746L150.786 172.733L150.916 172.803ZM152.046 177.086L152.332 176.709L152.362 176.433L151.925 176.995L152.046 177.086ZM147.784 174.028L150.183 176.538L150.289 176.438L147.889 173.928L147.784 174.028ZM147.026 174.696L149.42 177.206L149.531 177.106L147.131 174.596L147.026 174.696ZM144.38 174.696L144.42 174.55L142.568 174.094V174.244L144.38 174.696ZM142.543 173.19L144.626 173.717L144.661 173.572L142.568 173.07L142.543 173.19ZM144.867 177.673L144.822 177.532L142.568 178.315V178.471L144.867 177.673ZM144.511 176.589L142.543 177.241V177.397L144.551 176.729L144.511 176.589ZM143.421 204.635L144.686 201.412L144.551 201.357L143.281 204.58L143.421 204.635ZM145.47 201.719L144.205 204.941L144.34 204.997L145.61 201.774L145.47 201.719ZM145.404 216.829L145.018 215.539L144.872 215.579L145.344 217.135L145.404 216.829ZM147.914 195.152L147.774 195.203L148.948 198.461H148.979L149.024 198.235L147.914 195.152ZM148.702 194.866L149.32 196.568C149.32 196.473 149.355 196.377 149.37 196.277L148.843 194.816L148.702 194.866ZM150.901 186.383L150.982 186.649L151.027 186.347L150.901 186.383ZM147.598 186.187L147.397 189.641H147.543L147.744 186.182L147.598 186.187ZM148.386 189.701H148.532L148.733 186.242H148.587L148.386 189.701ZM144.164 186.036L144.235 185.906L142.528 184.987V185.158L144.164 186.036ZM142.528 184.028L144.631 185.158L144.701 185.027L142.568 183.898L142.528 184.028ZM143.843 189.254L143.748 189.144L142.568 190.258V190.454L143.843 189.254ZM143.195 188.506L143.1 188.391L142.528 188.893V189.088L143.195 188.506ZM142.568 194.445V194.6L145.69 193.38L145.635 193.245L142.568 194.445ZM142.568 193.38V193.541L145.329 192.462L145.274 192.321L142.568 193.38ZM144.41 199.665L144.445 199.52L142.568 199.098V199.249L144.41 199.665ZM144.626 198.702L144.661 198.556L142.568 198.084V198.235L144.626 198.702ZM144.38 210.338L144.42 210.197L142.543 209.721V209.876L144.38 210.338ZM142.568 208.832L144.651 209.364L144.686 209.219L142.568 208.686V208.832ZM144.892 213.315L144.847 213.174L142.568 213.927V214.088L144.892 213.315ZM144.581 212.376L144.536 212.236L142.568 212.888V213.044L144.581 212.376ZM149.044 182.949L149.44 181.558H149.285L148.903 182.909L149.044 182.949ZM150.464 181.558H150.314L149.857 183.175L149.998 183.22L150.464 181.558ZM145.896 183.31L146.042 183.27L145.54 181.558H145.384L145.896 183.31ZM146.986 182.984L146.559 181.558H146.403L146.845 183.029L146.986 182.984ZM147.814 230.85L148.989 234.103L149.129 234.052L147.954 230.8L147.814 230.85ZM150.058 233.716L148.883 230.463L148.743 230.513L149.922 233.766L150.058 233.716ZM151.719 234.519L151.574 234.479L151.363 235.232H151.519L151.719 234.519ZM142.568 220.805L144.205 221.683L144.275 221.553L142.568 220.634V220.805ZM142.568 219.68L144.576 220.78L144.606 220.629L142.568 219.515V219.68ZM143.858 224.896L143.763 224.781L142.568 225.85V226.041L143.858 224.896ZM143.211 224.143L143.115 224.033L142.543 224.535V224.73L143.211 224.143ZM145.61 228.842L142.568 230.057V230.217L145.69 228.992L145.61 228.842ZM142.543 229.138L145.304 228.059L145.249 227.923L142.543 228.977V229.138ZM142.543 234.695V234.851L144.205 235.222H144.395L144.42 235.122L142.543 234.695ZM144.601 234.298L144.636 234.153L142.543 233.681V233.837L144.601 234.298ZM107.669 168.988L107.804 169.043L109.075 165.821L108.934 165.765L107.669 168.988ZM108.588 169.35L108.728 169.405L109.993 166.182L109.858 166.127L108.588 169.35ZM141.027 173.843L142.533 174.229V174.079L141.052 173.702L141.027 173.843ZM141.308 172.743L141.268 172.884L142.543 173.21V173.054L141.308 172.743ZM142.568 178.471V178.315L141.564 178.652L141.609 178.792L142.568 178.471ZM141.223 177.708L141.268 177.849L142.543 177.427V177.271L141.223 177.708ZM138.552 181.563H138.723L139.375 180.429L139.25 180.354L138.552 181.563ZM139.697 181.563H139.867L140.234 180.921L140.108 180.845L139.697 181.563ZM132.232 180.178L132.116 180.273L133.176 181.563H133.366L132.232 180.178ZM132.884 179.646L134.456 181.563H134.646L133 179.555L132.884 179.646ZM129.139 181.337L129.004 181.388L129.064 181.563H129.225L129.139 181.337ZM129.933 181.051L130.118 181.553H130.274L130.073 180.991L129.933 181.051ZM124.501 181.553L124.928 179.872L124.782 179.836L124.345 181.553H124.501ZM125.741 180.077L125.364 181.553H125.5L125.866 180.118L125.741 180.077ZM114.361 179.611L114.215 179.57L113.653 181.553H113.808L114.361 179.611ZM115.309 179.882L115.169 179.841L114.667 181.553H114.822L115.309 179.882ZM109.285 179.992L109.757 181.553H109.913L109.411 179.947L109.285 179.992ZM110.375 179.666L110.234 179.706L110.791 181.553H110.942L110.375 179.666ZM114.421 172.291L116.143 169.279L116.012 169.204L114.29 172.216L114.421 172.291ZM115.154 172.713L115.279 172.783L117.001 169.771L116.871 169.696L115.154 172.713ZM134.797 174.922L137.985 176.272L138.04 176.137L134.852 174.786L134.797 174.922ZM134.41 175.831L137.598 177.181L137.653 177.045L134.441 175.7L134.41 175.831ZM137.096 170.63L137.237 170.67L138.181 167.342L138.035 167.297L137.096 170.63ZM138.045 170.901L138.191 170.941L139.129 167.608L138.989 167.568L138.045 170.901ZM132.864 164.706L133.868 168.019L134.009 167.979L133.03 164.656L132.864 164.706ZM133.808 164.42L134.812 167.733L134.953 167.693L133.949 164.38L133.808 164.42ZM122.87 178.612L121.866 175.298L121.725 175.339L122.729 178.657L122.87 178.612ZM123.818 178.325L122.814 175.012L122.669 175.052L123.673 178.371L123.818 178.325ZM127.734 176.408L131.163 175.906V175.76L127.734 176.262V176.408ZM127.874 177.387L131.303 176.885V176.739L127.874 177.241V177.387ZM130.384 173.165L130.53 173.2L131.303 169.827L131.158 169.791L130.384 173.165ZM132.121 170.012L131.348 173.386L131.494 173.421L132.267 170.047L132.121 170.012ZM119.978 171.242L120.103 171.323L121.956 168.396L121.83 168.321L119.978 171.242ZM122.794 168.928L122.669 168.848L120.816 171.774L120.942 171.855L122.794 168.928ZM119.576 165.56L122.749 164.174V164.139H122.478L119.531 165.424L119.576 165.56ZM119.913 166.328L119.973 166.463L123.146 165.083L123.085 164.947L119.913 166.328ZM116.901 164.139H116.745L115.962 166.86L116.108 166.9L116.901 164.139ZM115.169 166.649L115.872 164.139H115.716L115.023 166.589L115.169 166.649ZM128.753 165.203L128.412 164.154H128.256L128.582 165.238L128.753 165.203ZM127.664 165.529L127.809 165.489L127.408 164.159H127.252L127.664 165.529ZM116.298 177.005L116.414 177.096L118.522 174.35L118.402 174.259L116.298 177.005ZM117.081 177.608L117.202 177.698L119.305 174.947L119.19 174.857L117.081 177.608ZM112.152 174.038L114.551 176.548L114.662 176.448L112.262 173.938L112.152 174.038ZM111.409 174.696L113.808 177.206L113.914 177.106L111.519 174.596L111.409 174.696ZM124.551 170.258L124.491 170.394L127.679 171.749L127.739 171.609L124.551 170.258ZM124.878 169.485L128.065 170.836L128.125 170.7L124.938 169.35L124.878 169.485ZM108.768 174.696L108.803 174.55L106.926 174.094V174.244L108.768 174.696ZM106.931 173.19L109.009 173.717L109.049 173.572L106.926 173.07L106.931 173.19ZM109.255 177.673L109.205 177.532L106.926 178.315V178.471L109.255 177.673ZM108.894 176.589L106.931 177.241V177.397L108.939 176.729L108.894 176.589ZM108.934 201.357L107.669 204.58L107.804 204.635L109.075 201.412L108.934 201.357ZM109.858 201.719L108.588 204.941L108.728 204.997L109.993 201.774L109.858 201.719ZM141.132 184.395L142.543 185.158V184.987L141.203 184.264L141.132 184.395ZM141.669 183.391L141.599 183.516L142.543 184.018V183.847L141.669 183.391ZM142.568 190.258L141.167 191.473L141.263 191.583L142.568 190.454V190.258ZM140.615 190.835L142.568 189.149V188.953L140.52 190.72L140.615 190.835ZM142.412 194.53L142.463 194.671L142.568 194.625V194.47L142.412 194.53ZM142.051 193.611L142.101 193.747L142.568 193.566V193.406L142.051 193.611ZM142.553 199.133L141.047 198.792L141.012 198.938L142.548 199.284L142.553 199.133ZM142.553 198.129L141.268 197.838L141.238 197.984L142.553 198.28V198.129ZM142.553 209.751L141.062 209.334L141.027 209.48L142.533 209.866L142.553 209.751ZM141.318 208.415L141.278 208.561L142.568 208.832V208.681L141.318 208.415ZM142.568 214.088V213.927L141.564 214.264L141.609 214.404L142.568 214.088ZM142.568 213.044V212.888L141.248 213.325L141.293 213.465L142.568 213.044ZM122.187 183.32L118.999 181.965L118.944 182.1L122.132 183.456L122.187 183.32ZM118.557 183.014L121.745 184.365L121.8 184.229L118.613 182.879L118.557 183.014ZM139.365 216.041L139.24 215.97L138.552 217.18H138.723L139.365 216.041ZM140.224 216.543L140.098 216.467L139.687 217.19H139.857L140.224 216.543ZM132.106 215.895L133.166 217.19H133.356L132.222 215.8L132.106 215.895ZM132.874 215.268L134.446 217.19H134.636L132.99 215.182L132.874 215.268ZM129.129 216.964L128.994 217.015L129.054 217.19H129.215L129.129 216.964ZM129.923 216.678L130.108 217.18H130.264L130.063 216.618L129.923 216.678ZM124.903 215.509L124.757 215.468L124.32 217.19H124.496L124.903 215.509ZM125.716 215.714L125.339 217.19H125.5L125.866 215.75L125.716 215.714ZM114.336 215.243L114.19 215.202L113.628 217.21H113.783L114.336 215.243ZM115.284 215.514L115.144 215.473L114.642 217.19H114.797L115.284 215.514ZM109.26 215.624L109.732 217.19H109.888L109.386 215.584L109.26 215.624ZM110.209 215.343L110.766 217.19H110.917L110.35 215.298L110.209 215.343ZM115.987 204.851L114.265 207.863L114.396 207.938L116.118 204.926L115.987 204.851ZM116.991 205.413L116.861 205.338L115.144 208.35L115.269 208.425L116.991 205.413ZM130.992 188.918L128.783 186.242L128.673 186.337L130.861 189.018L130.992 188.918ZM130.229 189.545L128.01 186.854L127.895 186.95L130.088 189.63L130.229 189.545ZM124.802 188.079L125.977 191.332L126.117 191.282L124.943 188.029L124.802 188.079ZM125.736 187.743L126.911 190.996L127.046 190.946L125.871 187.693L125.736 187.743ZM138.03 211.769L134.842 210.418L134.787 210.554L137.975 211.904L138.03 211.769ZM137.643 212.682L134.456 211.327L134.4 211.467L137.588 212.818L137.643 212.682ZM138.025 202.933L137.086 206.267L137.227 206.307L138.17 202.974L138.025 202.933ZM139.119 203.245L138.979 203.205L138.035 206.533L138.181 206.573L139.119 203.245ZM134.014 203.601L133.01 200.288L132.869 200.328L133.873 203.646L134.014 203.601ZM134.963 203.315L133.959 200.002L133.813 200.042L134.817 203.36L134.963 203.315ZM124.923 194.645L123.201 197.657L123.326 197.728L125.048 194.716L124.923 194.645ZM124.19 194.229L124.059 194.154L122.342 197.166L122.468 197.236L124.19 194.229ZM118.341 196.965L116.148 194.274L116.032 194.369L118.226 197.05L118.341 196.965ZM119.105 196.337L116.916 193.657L116.8 193.752L118.989 196.433L119.105 196.337ZM112.177 195.248L113.352 198.506L113.492 198.456L112.312 195.198L112.177 195.248ZM113.106 194.912L114.28 198.17L114.421 198.119L113.246 194.861L113.106 194.912ZM137.046 197.547L137.192 197.582L138.045 194.229L137.899 194.189L137.046 197.547ZM139.004 194.47L138.858 194.435L138.005 197.788L138.15 197.823L139.004 194.47ZM133.341 197.286L130.154 195.936L130.098 196.071L133.286 197.427L133.341 197.286ZM133.728 196.377L130.52 195.027L130.465 195.163L133.652 196.513L133.728 196.377ZM122.87 214.228L121.866 210.91L121.725 210.955L122.729 214.269L122.87 214.228ZM123.818 213.942L122.814 210.624L122.669 210.669L123.673 213.983L123.818 213.942ZM131.163 211.538V211.392L127.734 211.894V212.04L131.163 211.538ZM131.303 212.517V212.371L127.874 212.873V213.019L131.303 212.517ZM130.52 208.832L131.293 205.459L131.147 205.423L130.374 208.802L130.52 208.832ZM131.484 209.053L132.257 205.679L132.111 205.644L131.338 209.023L131.484 209.053ZM121.946 204.033L121.82 203.953L119.978 206.859L120.103 206.939L121.946 204.033ZM122.784 204.56L122.659 204.48L120.806 207.406L120.932 207.487L122.784 204.56ZM122.739 199.806L122.684 199.67L119.506 201.056L119.566 201.192L122.739 199.806ZM123.136 200.715L123.075 200.579L119.903 201.965L119.963 202.1L123.136 200.715ZM117.036 199.209L116.896 199.163L115.962 202.472L116.108 202.512L117.036 199.209ZM115.144 202.271L116.082 198.938L115.942 198.897L114.998 202.231L115.144 202.271ZM128.723 200.8L127.719 197.487L127.573 197.527L128.577 200.845L128.723 200.8ZM126.64 197.788L127.644 201.101L127.789 201.061L126.785 197.748L126.64 197.788ZM121.825 189.254L119.059 191.342L119.15 191.458L121.916 189.374L121.825 189.254ZM119.747 192.266L122.508 190.178L122.423 190.062L119.657 192.146L119.747 192.266ZM117.358 189.4L116.399 186.071L116.253 186.116L117.217 189.44L117.358 189.4ZM115.304 186.388L116.263 189.756L116.409 189.716L115.46 186.378L115.304 186.388ZM112.001 186.192L111.8 189.646H111.946L112.147 186.187L112.001 186.192ZM112.784 189.706H112.935L113.136 186.247H112.985L112.784 189.706ZM118.472 209.941L118.352 209.851L116.248 212.602L116.364 212.692L118.472 209.941ZM119.255 210.544L119.14 210.453L117.031 213.204L117.152 213.295L119.255 210.544ZM112.102 209.63L114.501 212.14L114.612 212.035L112.212 209.525L112.102 209.63ZM111.409 210.338L113.808 212.848L113.914 212.748L111.519 210.238L111.409 210.338ZM136.619 191.056L136.504 190.966L134.325 193.657L134.441 193.752L136.619 191.056ZM135.736 190.343L133.557 193.034L133.673 193.129L135.846 190.434L135.736 190.343ZM136.343 185.238H136.198L135.806 188.677H135.957L136.343 185.238ZM135.214 185.107L134.827 188.551H134.973L135.359 185.112L135.214 185.107ZM127.739 207.246L124.551 205.895L124.491 206.031L127.679 207.381L127.739 207.246ZM124.878 205.117L128.065 206.468L128.125 206.332L124.938 204.982L124.878 205.117ZM108.568 186.086L108.638 185.956L106.931 185.037V185.208L108.568 186.086ZM106.931 184.078L109.034 185.208L109.105 185.077L106.926 183.898L106.931 184.078ZM108.246 189.304L108.146 189.194L106.926 190.258V190.454L108.246 189.304ZM107.599 188.556L107.498 188.441L106.931 188.943V189.139L107.599 188.556ZM109.993 193.255L106.931 194.455V194.61L110.048 193.39L109.993 193.255ZM109.687 192.472L109.637 192.331L106.926 193.38V193.541L109.687 192.472ZM108.773 199.676L108.803 199.53L106.931 199.108V199.259L108.773 199.676ZM106.926 198.235L108.984 198.702L109.019 198.556L106.926 198.084V198.235ZM108.768 210.338L108.803 210.197L106.931 209.721V209.876L108.768 210.338ZM106.926 208.832L109.004 209.364L109.044 209.219L106.926 208.686V208.832ZM109.25 213.315L109.2 213.174L106.926 213.927V214.088L109.25 213.315ZM108.939 212.376L108.889 212.236L106.926 212.888V213.044L108.939 212.376ZM137.513 183.355L137.638 183.426L138.708 181.558H138.552L137.513 183.355ZM138.371 183.857L138.497 183.928L139.852 181.568H139.681L138.371 183.857ZM134.41 182.853L133.351 181.558H133.161L134.295 182.944L134.41 182.853ZM135.063 182.321L135.179 182.226L134.631 181.558H134.441L135.063 182.321ZM130.304 184.59L129.21 181.578H129.049L130.164 184.661L130.304 184.59ZM131.092 184.304L131.233 184.254L130.259 181.558H130.103L131.092 184.304ZM123.914 183.195L124.059 183.23L124.486 181.558H124.33L123.914 183.195ZM124.872 183.441L125.018 183.476L125.52 181.558H125.364L124.872 183.441ZM113.402 182.939L113.793 181.548H113.638L113.256 182.899L113.402 182.939ZM114.822 181.548H114.667L114.21 183.165L114.356 183.21L114.822 181.548ZM110.254 183.3L110.395 183.26L109.893 181.548H109.737L110.254 183.3ZM111.344 182.974L110.912 181.548H110.761L111.198 183.019L111.344 182.974ZM141.198 219.896L141.127 220.027L142.538 220.79V220.619L141.198 219.896ZM141.664 219.028L141.594 219.158L142.538 219.66V219.494L141.664 219.028ZM142.568 226.041V225.85L141.167 227.06L141.263 227.17L142.568 226.041ZM142.568 224.735V224.54L140.52 226.312L140.615 226.422L142.568 224.735ZM142.412 230.117L142.463 230.257L142.568 230.217V230.057L142.412 230.117ZM142.051 229.198L142.101 229.339L142.568 229.153V228.992L142.051 229.198ZM141.047 234.374L141.012 234.519L142.548 234.866V234.71L141.047 234.374ZM142.553 233.696L141.268 233.405L141.238 233.55L142.553 233.852V233.696ZM122.187 218.932L118.999 217.582L118.944 217.717L122.132 219.068L122.187 218.932ZM118.557 218.626L121.745 219.981L121.8 219.841L118.613 218.49L118.557 218.626ZM128.673 221.934L130.861 224.615L130.977 224.519L128.783 221.844L128.673 221.934ZM130.214 225.147L128.01 222.471L127.895 222.562L130.088 225.242L130.214 225.147ZM126.102 226.904L124.928 223.646L124.787 223.696L125.962 226.954L126.102 226.904ZM127.031 226.568L125.856 223.31L125.721 223.36L126.896 226.618L127.031 226.568ZM125.023 230.338L124.898 230.262L123.176 233.274L123.301 233.35L125.023 230.338ZM124.165 229.836L124.034 229.765L122.317 232.777L122.443 232.853L124.165 229.836ZM118.316 232.572L116.148 229.916L116.032 230.006L118.226 232.687L118.316 232.572ZM119.079 231.944L116.891 229.268L116.775 229.359L118.964 232.039L119.079 231.944ZM113.467 234.063L112.287 230.81L112.152 230.86L113.326 234.113L113.467 234.063ZM114.396 233.726L113.221 230.473L113.081 230.523L114.255 233.776L114.396 233.726ZM137.99 229.846L137.844 229.811L136.991 233.164L137.136 233.199L137.99 229.846ZM138.949 230.087L138.803 230.052L137.95 233.41L138.095 233.445L138.949 230.087ZM133.341 232.928L130.154 231.578L130.098 231.713L133.286 233.064L133.341 232.928ZM133.728 232.014L130.52 230.639L130.465 230.774L133.652 232.13L133.728 232.014ZM116.891 234.78L116.75 235.282H116.906L117.031 234.841L116.891 234.78ZM116.077 234.549L115.937 234.509L115.721 235.262H115.877L116.077 234.549ZM127.583 233.164L128.216 235.262H128.371L127.729 233.119L127.583 233.164ZM126.78 233.405L126.64 233.445L127.182 235.262H127.337L126.78 233.405ZM121.916 225.057L121.825 224.941L119.059 227.024L119.15 227.145L121.916 225.057ZM122.508 225.85L122.423 225.729L119.657 227.813L119.747 227.933L122.508 225.85ZM117.217 225.112L117.358 225.067L116.399 221.743L116.253 221.784L117.217 225.112ZM116.409 225.343L115.46 221.994L115.319 222.035L116.278 225.358L116.409 225.343ZM111.946 225.343L112.147 221.889H112.001L111.8 225.348L111.946 225.343ZM112.95 225.403L113.151 221.944H113L112.799 225.398L112.95 225.403ZM136.634 226.698L136.519 226.603L134.34 229.294L134.456 229.389L136.634 226.698ZM135.751 225.98L133.572 228.671L133.688 228.766L135.861 226.076L135.751 225.98ZM136.358 220.88H136.213L135.821 224.319H135.972L136.358 220.88ZM135.229 220.754L134.842 224.193H134.988L135.374 220.749L135.229 220.754ZM108.583 221.728L108.653 221.598L106.946 220.679V220.85L108.583 221.728ZM109.12 220.724L106.926 219.515V219.68L109.029 220.815L109.12 220.724ZM108.246 224.896L108.146 224.781L106.926 225.845V226.041L108.246 224.896ZM107.599 224.143L107.498 224.033L106.931 224.535V224.73L107.599 224.143ZM109.993 228.842L106.931 230.041V230.202L110.048 228.977L109.993 228.842ZM106.931 229.138L109.687 228.059L109.637 227.923L106.931 228.977V229.138ZM106.931 234.695V234.851L108.593 235.222H108.778L108.803 235.122L106.931 234.695ZM108.989 234.298L109.024 234.153L106.931 233.681V233.837L108.989 234.298ZM137.643 219.033L138.713 217.165H138.552L137.548 218.957L137.643 219.033ZM139.687 217.165L138.376 219.449L138.502 219.525L139.857 217.165H139.687ZM134.3 218.551L134.416 218.455L133.356 217.165H133.166L134.3 218.551ZM135.068 217.923L135.184 217.828L134.636 217.165H134.446L135.068 217.923ZM130.309 220.192L129.215 217.18H129.054L130.169 220.258L130.309 220.192ZM131.097 219.911L131.238 219.856L130.264 217.165H130.108L131.097 219.911ZM124.069 218.837L124.496 217.165H124.34L123.924 218.802L124.069 218.837ZM124.883 219.043L125.028 219.078L125.53 217.165H125.374L124.883 219.043ZM113.412 218.541L113.803 217.155H113.648L113.266 218.501L113.412 218.541ZM114.677 217.155L114.22 218.772L114.366 218.812L114.832 217.155H114.677ZM110.264 218.907L110.405 218.862L109.903 217.155H109.747L110.264 218.907ZM111.208 218.621L111.354 218.581L110.922 217.155H110.771L111.208 218.621ZM105.42 173.858L106.926 174.244V174.094L105.445 173.717L105.42 173.858ZM105.701 172.758L105.666 172.899L106.941 173.225V173.07L105.701 172.758ZM106.926 178.471V178.315L105.922 178.652L105.972 178.792L106.926 178.471ZM105.611 177.708L105.656 177.849L106.931 177.427V177.271L105.611 177.708ZM102.91 181.563H103.081L103.733 180.429L103.603 180.354L102.91 181.563ZM104.05 181.563H104.22L104.592 180.921L104.461 180.845L104.05 181.563ZM96.5898 180.178L96.4743 180.273L97.5336 181.563H97.7243L96.5898 180.178ZM97.2424 179.646L98.8087 181.563H99.0044L97.3579 179.555L97.2424 179.646ZM93.4975 181.337L93.3569 181.388L93.4222 181.563H93.5778L93.4975 181.337ZM94.2906 181.051L94.4714 181.553H94.632L94.4312 180.991L94.2906 181.051ZM88.854 181.553L89.2807 179.872L89.1401 179.836L88.7034 181.553H88.854ZM90.0989 180.077L89.7224 181.553H89.8781L90.2395 180.118L90.0989 180.077ZM78.1664 181.553L78.7136 179.611L78.573 179.57L78.0108 181.553H78.1664ZM79.6724 179.882L79.5268 179.841L79.0248 181.553H79.1804L79.6724 179.882ZM99.14 174.922L102.328 176.272L102.388 176.137L99.2002 174.786L99.14 174.922ZM98.7534 175.831L101.956 177.206L102.016 177.07L98.8287 175.7L98.7534 175.831ZM101.439 170.63L101.585 170.67L102.523 167.342L102.383 167.297L101.439 170.63ZM102.393 170.901L102.533 170.941L103.477 167.608L103.337 167.568L102.393 170.901ZM97.2474 164.706L98.2514 168.019L98.392 167.979L97.388 164.656L97.2474 164.706ZM98.1962 164.42L99.2002 167.733L99.3408 167.693L98.3368 164.38L98.1962 164.42ZM86.1181 175.339L87.1221 178.657L87.2626 178.612L86.2586 175.298L86.1181 175.339ZM88.2064 178.351L87.2024 175.037L87.0618 175.078L88.0658 178.396L88.2064 178.351ZM92.122 176.433L95.5507 175.931V175.785L92.122 176.287V176.433ZM92.2375 177.266V177.412L95.6661 176.91V176.764L92.2375 177.266ZM95.6812 169.852L95.5356 169.817L94.7675 173.19L94.9081 173.225L95.6812 169.852ZM96.5045 170.037L95.7314 173.411L95.8719 173.446L96.645 170.073L96.5045 170.037ZM84.336 171.242L84.4615 171.323L86.3139 168.396L86.1884 168.321L84.336 171.242ZM85.1743 171.774L85.2998 171.855L87.1522 168.928L87.0267 168.848L85.1743 171.774ZM93.0959 165.183L92.7746 164.114H92.624L92.9553 165.203L93.0959 165.183ZM92.0065 165.509L92.1471 165.469L91.7907 164.274L91.6451 164.305L92.0065 165.509ZM80.6413 176.985L80.7567 177.075L82.8601 174.33L82.7447 174.239L80.6413 176.985ZM83.6533 174.927L83.5328 174.837L81.4294 177.588L81.5499 177.678L83.6533 174.927ZM88.9243 170.263L88.869 170.399L92.0568 171.754L92.112 171.614L88.9243 170.263ZM89.2556 169.49L92.4433 170.841L92.4985 170.705L89.3108 169.355L89.2556 169.49ZM73.3121 201.392L72.047 204.615L72.1826 204.67L73.4476 201.448L73.3121 201.392ZM74.2307 201.754L72.9657 204.977L73.1012 205.032L74.3713 201.809L74.2307 201.754ZM105.505 184.43L106.921 185.193V185.022L105.576 184.299L105.505 184.43ZM106.047 183.426L105.977 183.551L106.921 184.053V183.883L106.047 183.426ZM106.926 190.258L105.52 191.473L105.621 191.583L106.926 190.454V190.258ZM104.973 190.835L106.926 189.149V188.953L104.878 190.72L104.973 190.835ZM106.765 194.53L106.821 194.671L106.926 194.625V194.47L106.765 194.53ZM106.926 193.406L106.424 193.611L106.479 193.747L106.946 193.566L106.926 193.406ZM106.926 199.123L105.42 198.782L105.39 198.928L106.926 199.274V199.123ZM105.641 197.818L105.606 197.964L106.926 198.26V198.109L105.641 197.818ZM106.926 209.705L105.445 209.329L105.405 209.475L106.911 209.861L106.926 209.705ZM105.686 208.37L105.651 208.516L106.926 208.832V208.681L105.686 208.37ZM106.926 214.088V213.927L105.922 214.264L105.972 214.404L106.926 214.088ZM106.926 213.044V212.888L105.606 213.325L105.651 213.465L106.926 213.044ZM83.332 182.1L86.5197 183.456L86.5799 183.32L83.3922 181.965L83.332 182.1ZM82.9454 183.014L86.1331 184.365L86.1934 184.229L83.0057 182.879L82.9454 183.014ZM103.758 216.041L103.628 215.97L102.91 217.18H103.081L103.758 216.041ZM104.617 216.543L104.486 216.467L104.075 217.19H104.245L104.617 216.543ZM96.4994 215.895L97.5587 217.19H97.7494L96.6149 215.8L96.4994 215.895ZM97.2675 215.268L98.8338 217.19H99.0295L97.383 215.182L97.2675 215.268ZM93.5226 216.964L93.382 217.015L93.4473 217.19H93.6029L93.5226 216.964ZM94.3158 216.678L94.4965 217.18H94.6571L94.4563 216.618L94.3158 216.678ZM88.7285 217.18H88.8791L89.3058 215.499L89.1652 215.458L88.7285 217.18ZM90.124 215.704L89.7475 217.18H89.9032L90.2646 215.74L90.124 215.704ZM73.794 215.574L73.6534 215.614L73.9295 216.528L74.05 216.417L73.794 215.574ZM74.7428 215.288L74.5972 215.333L74.7327 215.765L74.8482 215.649L74.7428 215.288ZM80.5107 204.911L80.3802 204.841L78.6584 207.853L78.7889 207.928L80.5107 204.911ZM79.6473 208.425L81.3692 205.413L81.2387 205.338L79.5168 208.35L79.6473 208.425ZM95.38 188.908L93.1712 186.242L93.0557 186.337L95.2495 189.018L95.38 188.908ZM94.6119 189.535L92.4182 186.854L92.3078 186.95L94.4965 189.63L94.6119 189.535ZM89.1903 188.069L90.365 191.322L90.5056 191.272L89.3309 188.019L89.1903 188.069ZM90.119 187.733L91.2937 190.986L91.4343 190.936L90.2596 187.683L90.119 187.733ZM102.408 211.759L99.2203 210.408L99.16 210.544L102.348 211.894L102.408 211.759ZM102.021 212.672L98.8338 211.317L98.7735 211.457L101.961 212.808L102.021 212.672ZM102.403 202.923L101.459 206.257L101.605 206.297L102.544 202.964L102.403 202.923ZM103.497 203.235L103.357 203.195L102.408 206.523L102.549 206.563L103.497 203.235ZM98.392 203.591L97.388 200.278L97.2474 200.318L98.2514 203.636L98.392 203.591ZM99.3408 203.305L98.3368 199.992L98.1962 200.032L99.2002 203.35L99.3408 203.305ZM89.3008 194.635L87.5789 197.647L87.7094 197.718L89.4313 194.706L89.3008 194.635ZM88.4423 194.133L86.7205 197.145L86.851 197.216L88.5729 194.204L88.4423 194.133ZM80.4103 194.359L82.6041 197.04L82.7145 196.945L80.5358 194.274L80.4103 194.359ZM81.1734 193.732L83.3671 196.413L83.4826 196.317L81.324 193.646L81.1734 193.732ZM76.55 195.238L77.7246 198.496L77.8652 198.446L76.6905 195.188L76.55 195.238ZM77.4837 194.901L78.6584 198.159L78.7939 198.109L77.6192 194.851L77.4837 194.901ZM101.404 197.547L101.55 197.582L102.398 194.229L102.257 194.189L101.404 197.547ZM103.362 194.47L103.216 194.435L102.363 197.788L102.508 197.823L103.362 194.47ZM97.7293 197.286L94.5416 195.936L94.4814 196.071L97.6691 197.427L97.7293 197.286ZM98.1159 196.377L94.9282 195.027L94.8679 195.163L98.0556 196.513L98.1159 196.377ZM87.0719 210.669L88.0759 213.983L88.2164 213.942L87.2124 210.624L87.0719 210.669ZM95.5557 211.538V211.392L92.127 211.894V212.04L95.5557 211.538ZM95.6912 212.517V212.371L92.2626 212.873V213.019L95.6912 212.517ZM94.9081 208.832L95.6812 205.459L95.5356 205.423L94.7675 208.802L94.9081 208.832ZM95.8719 209.053L96.645 205.679L96.5045 205.644L95.7314 209.023L95.8719 209.053ZM86.2034 203.953L84.8982 206.016L84.9534 206.207L86.344 204.013L86.2034 203.953ZM87.0418 204.48L85.2747 207.271L85.3299 207.457L87.1673 204.56L87.0418 204.48ZM83.8892 201.056L83.9494 201.192L87.1221 199.806L87.0618 199.67L83.8892 201.056ZM87.5187 200.715L87.4584 200.579L84.2858 201.965L84.341 202.1L87.5187 200.715ZM81.4194 199.209L81.2738 199.163L80.32 202.472L80.4605 202.512L81.4194 199.209ZM79.5218 202.271L80.4656 198.938L80.325 198.897L79.3813 202.231L79.5218 202.271ZM93.1109 200.8L92.1069 197.487L91.9664 197.527L92.9704 200.845L93.1109 200.8ZM91.0226 197.788L92.0266 201.101L92.1672 201.061L91.1632 197.748L91.0226 197.788ZM86.2084 189.254L83.4474 191.342L83.5378 191.458L86.2988 189.374L86.2084 189.254ZM84.0398 192.13L84.1302 192.251L86.8962 190.163L86.8058 190.047L84.0398 192.13ZM80.6413 186.106L81.6001 189.43L81.7457 189.39L80.7818 186.061L80.6413 186.106ZM79.6925 186.378L80.6513 189.706L80.7919 189.666L79.818 186.378H79.6925ZM76.1785 189.636H76.3291L76.5299 186.177H76.3793L76.1785 189.636ZM77.5138 186.247H77.3682L77.1674 189.706H77.313L77.5138 186.247ZM78.7287 211.693L76.6102 209.49L76.5048 209.59L78.6283 211.799L78.7287 211.693ZM75.8974 210.187L75.802 210.338L77.9505 212.572L78.0509 212.466L75.8974 210.187ZM100.997 191.011L100.882 190.921L98.7083 193.611L98.8237 193.707L100.997 191.011ZM100.114 190.298L97.9352 192.989L98.0506 193.084L100.229 190.389L100.114 190.298ZM100.731 185.238H100.581L100.194 188.677H100.34L100.731 185.238ZM99.5968 185.107L99.2103 188.551H99.3608L99.7474 185.112L99.5968 185.107ZM92.122 207.246L88.9343 205.895L88.8791 206.031L92.0668 207.381L92.122 207.246ZM92.5085 206.332L89.3208 204.982L89.2656 205.117L92.4533 206.468L92.5085 206.332ZM72.6293 189.309L72.534 189.199L72.4185 189.299L72.1675 189.711L72.6293 189.309ZM74.3813 193.26L71.3191 194.46V194.615L74.4365 193.395L74.3813 193.26ZM74.0751 192.477L74.0199 192.336L71.3191 193.395V193.556L74.0751 192.477ZM73.1564 199.681L73.1916 199.535L71.3191 199.113V199.264L73.1564 199.681ZM73.3773 198.717L73.4074 198.571L71.3191 198.099V198.25L73.3773 198.717ZM73.1514 210.338L73.1916 210.197L71.3191 209.721V209.876L73.1514 210.338ZM71.3191 208.832L73.3974 209.364L73.4325 209.219L71.3191 208.681V208.832ZM73.6384 213.315L73.5932 213.174L71.3191 213.922V214.083L73.6384 213.315ZM73.3271 212.376L73.2819 212.236L71.3191 212.883V213.039L73.3271 212.376ZM101.906 183.361L102.037 183.431L103.106 181.563H102.91L101.906 183.361ZM102.764 183.863L102.895 183.933L104.245 181.573H104.075L102.764 183.863ZM98.8087 182.859L97.7494 181.563H97.5587L98.6932 182.949L98.8087 182.859ZM99.4562 182.326L99.5717 182.231L99.0295 181.563H98.8338L99.4562 182.326ZM94.6973 184.595L93.6029 181.583H93.4473L94.5567 184.666L94.6973 184.595ZM95.4904 184.309L95.631 184.259L94.6571 181.563H94.4965L95.4904 184.309ZM88.3118 183.2L88.4574 183.235L88.8791 181.563H88.7285L88.3118 183.2ZM89.2706 183.446L89.4112 183.481L89.9132 181.563H89.7576L89.2706 183.446ZM77.6544 182.914L77.7999 182.954L78.1915 181.563H78.0359L77.6544 182.914ZM79.2206 181.563H79.065L78.6082 183.18L78.7487 183.225L79.2206 181.563ZM105.52 220.042L106.936 220.805V220.634L105.591 219.911L105.52 220.042ZM106.063 219.038L105.992 219.168L106.936 219.67V219.505L106.063 219.038ZM106.926 226.041V225.845L105.52 227.06L105.621 227.17L106.926 226.041ZM106.926 224.735V224.54L104.878 226.312L104.973 226.422L106.926 224.735ZM106.765 230.117L106.821 230.257L106.926 230.217V230.057L106.765 230.117ZM106.404 229.198L106.459 229.339L106.926 229.153V228.992L106.404 229.198ZM105.4 234.374L105.37 234.519L106.906 234.866V234.71L105.4 234.374ZM106.906 233.696L105.621 233.405L105.586 233.55L106.906 233.852V233.696ZM93.0557 221.934L95.2495 224.615L95.3649 224.519L93.1712 221.844L93.0557 221.934ZM94.5969 225.147L92.4031 222.471L92.2927 222.562L94.4814 225.242L94.5969 225.147ZM90.4905 226.904L89.4865 224.103L89.4162 224.349L90.355 226.954L90.4905 226.904ZM91.4192 226.568L90.2445 223.31L90.104 223.36L91.2786 226.618L91.4192 226.568ZM89.4112 230.338L89.2807 230.262L87.5588 233.274L87.6893 233.35L89.4112 230.338ZM88.4072 229.775L87.348 231.673L87.1823 232.26L88.5729 229.831L88.4072 229.775ZM102.368 229.856L102.227 229.821L101.374 233.174L101.519 233.209L102.368 229.856ZM103.332 230.097L103.186 230.062L102.333 233.42L102.478 233.455L103.332 230.097ZM97.7293 232.928L94.5416 231.578L94.4814 231.713L97.6691 233.064L97.7293 232.928ZM98.1159 232.014L94.9282 230.664L94.8679 230.8L98.0556 232.155L98.1159 232.014ZM91.9714 233.164L92.6039 235.262H92.7595L92.112 233.119L91.9714 233.164ZM91.1682 233.405L91.0226 233.445L91.5698 235.262H91.7254L91.1682 233.405ZM101.002 226.678L100.887 226.583L98.7133 229.273L98.8287 229.369L101.002 226.678ZM100.119 225.96L97.9402 228.651L98.0556 228.746L100.234 226.056L100.119 225.96ZM100.731 220.86H100.581L100.194 224.299H100.34L100.731 220.86ZM99.5968 220.734L99.2103 224.173H99.3608L99.7474 220.729L99.5968 220.734ZM102.031 219.073L103.101 217.205H102.91L101.906 218.997L102.031 219.073ZM104.07 217.205L102.759 219.489L102.89 219.565L104.24 217.205H104.07ZM98.6882 218.591L98.8036 218.495L97.7444 217.205H97.5536L98.6882 218.591ZM99.4512 217.963L99.5667 217.868L99.0245 217.205H98.8287L99.4512 217.963ZM94.6922 220.232L93.5979 217.22H93.4423L94.5517 220.298L94.6922 220.232ZM95.4854 219.951L95.626 219.896L94.6521 217.205H94.4914L95.4854 219.951ZM88.5076 218.039L88.5929 218.315L88.8741 217.205H88.7235L88.5076 218.039ZM89.2656 219.083L89.4062 219.118L89.9082 217.205H89.7526L89.2656 219.083ZM71.1585 194.53L71.2137 194.671L71.3191 194.625V194.47L71.1585 194.53ZM71.3191 193.406L70.8171 193.611L70.8723 193.747L71.3392 193.566L71.3191 193.406ZM69.778 198.928L71.3191 199.274V199.123L69.8131 198.782L69.778 198.928ZM69.9989 197.964L71.3191 198.26V198.109L70.029 197.788L69.9989 197.964ZM71.3191 209.731L69.8131 209.354L69.778 209.5L71.284 209.886L71.3191 209.731ZM70.0792 208.395L70.044 208.541L71.3191 208.862V208.712L70.0792 208.395ZM71.3191 214.113V213.952L70.3151 214.289L70.3603 214.429L71.3191 214.113ZM71.3191 213.069V212.913L69.9938 213.35L70.039 213.491L71.3191 213.069ZM68.1364 216.081L68.0109 216.011L67.3182 217.22H67.4889L68.1364 216.081ZM68.9949 216.583L68.8694 216.508L68.4577 217.23H68.6284L68.9949 216.583ZM60.8825 215.935L61.9367 217.23H62.1325L60.998 215.84L60.8825 215.935ZM61.6456 215.308L63.2169 217.23H63.4076L61.761 215.222L61.6456 215.308ZM58.8344 216.668L58.6938 216.718L58.8796 217.22H59.0402L58.8344 216.668ZM56.6758 187L57.1778 187.643L56.6758 186.975V187ZM53.5584 188.119L54.7381 191.372L54.8736 191.322L53.714 188.019L53.5584 188.119ZM54.4921 187.783L55.6668 191.036L55.8073 190.986L54.6327 187.733L54.4921 187.783ZM66.766 211.759L63.5783 210.408L63.5231 210.544L66.7108 211.894L66.766 211.759ZM66.3794 212.672L63.1968 211.317L63.1365 211.457L66.3242 212.808L66.3794 212.672ZM66.766 202.923L65.8222 206.257L65.9628 206.297L66.9065 202.964L66.766 202.923ZM67.8603 203.235L67.7148 203.195L66.776 206.523L66.9166 206.563L67.8603 203.235ZM62.755 203.591L61.751 200.278L61.6105 200.318L62.6145 203.636L62.755 203.591ZM63.6988 203.305L62.6948 199.992L62.5542 200.032L63.5582 203.35L63.6988 203.305ZM53.7993 194.711L53.6738 194.635L51.952 197.647L52.0825 197.718L53.7993 194.711ZM52.9409 194.209L52.8154 194.133L51.0935 197.145L51.2241 197.216L52.9409 194.209ZM62.1125 197.286L58.9247 195.936L58.8695 196.071L62.0572 197.427L62.1125 197.286ZM62.499 196.377L59.3113 195.027L59.2561 195.163L62.4438 196.513L62.499 196.377ZM56.5051 212.02L59.9338 211.518V211.372L56.5051 211.874V212.02ZM56.6457 212.999L60.0743 212.497V212.351L56.6457 212.853V212.999ZM59.1557 208.782L59.3012 208.812L60.0743 205.438L59.9287 205.403L59.1557 208.782ZM60.8926 205.624L60.1195 209.003L60.2651 209.033L61.0382 205.659L60.8926 205.624ZM51.455 199.65L50.1347 200.228L50.1849 200.368L51.5152 199.786L51.455 199.65ZM51.8465 200.559L50.456 201.166L50.5062 201.307L51.9068 200.695L51.8465 200.559ZM56.3645 197.547L57.3685 200.865L57.5141 200.82L56.5101 197.507L56.3645 197.547ZM55.4158 197.833L56.4198 201.146L56.5654 201.106L55.5614 197.793L55.4158 197.833ZM47.8356 191.413L47.9259 191.528L50.692 189.445L50.6016 189.324L47.8356 191.413ZM51.2893 190.233L51.199 190.117L48.433 192.201L48.5233 192.321L51.2893 190.233ZM56.5152 207.256L53.3275 205.905L53.2672 206.041L56.4549 207.391L56.5152 207.256ZM53.6537 205.127L56.8415 206.478L56.9017 206.342L53.714 204.967L53.6537 205.127ZM69.9788 219.936L69.9085 220.067L70.034 219.966L69.9788 219.936ZM70.4457 219.068L70.3754 219.198L70.7418 219.394L70.8623 219.289L70.4457 219.068ZM64.758 222.692H64.9086L65.1144 220.835H64.9688L64.758 222.692ZM63.754 222.522L63.8996 222.567L64.1054 220.724H63.9598L63.754 222.522ZM67.4638 217.18H67.2931L66.2891 218.972L66.4146 219.048L67.4638 217.18ZM68.6033 217.18H68.4326L67.1224 219.464L67.2529 219.54L68.6033 217.18ZM63.0512 218.566L63.1616 218.47L62.1074 217.18H61.9117L63.0512 218.566ZM63.8142 217.938L63.9297 217.843L63.3825 217.18H63.1917L63.8142 217.938ZM58.8545 217.18L59.5723 219.188L59.8484 219.51L59.0151 217.2L58.8545 217.18Z" fill="#EDF1D6"/>
<path d="M100.48 164.154C100.48 164.154 92.3278 163.019 88.5628 165.454C84.7978 167.889 66.1937 199.686 66.1937 199.686L55.9178 185.855L47.0073 189.856C47.0073 189.856 51.1839 206.021 56.0433 214.063C60.9026 222.105 63.6737 222.918 65.3403 222.652C70.3001 221.864 84.6673 205.243 84.6673 205.243L89.8881 222.612L86.344 235.237H152.357L144.35 221.884C144.35 221.884 154.797 173.692 152.136 168.587C149.476 163.481 133.974 164.154 129.099 164.154H115.144C113.029 164.573 110.879 164.795 108.723 164.817C105.966 164.736 103.215 164.515 100.48 164.154Z" stroke="black" stroke-width="0.985332"/>
<path d="M84.6723 205.243C82.7612 201.424 82.0191 197.127 82.5388 192.888C83.5077 186.127 87.6943 178.722 87.6943 178.722C87.6943 178.722 79.3411 190.77 79.3411 194.786C79.3411 198.802 81.826 204.675 81.826 204.675L79.6573 210.865L84.6723 205.243Z" fill="black" stroke="black" stroke-width="0.985332" stroke-linecap="round" stroke-linejoin="round"/>
<path d="M107.393 157.492L107.614 164.581L101.635 164.802C101.635 164.802 100.4 190.81 105.721 195.464C111.042 200.117 127.106 164.154 127.106 164.154L121.584 163.045L119.812 148.647L107.393 157.492Z" fill="#FFD6D6" stroke="black" stroke-width="0.985332" stroke-linecap="round" stroke-linejoin="round"/>
<path d="M120.45 151.458L107.664 163.506V159.244L120.45 151.458Z" fill="black" stroke="black" stroke-width="0.985332" stroke-linecap="round" stroke-linejoin="round"/>
<path d="M105.721 195.464C105.721 195.464 106.364 191.277 109.582 185.805L105.721 195.464Z" fill="#EDF1D6"/>
<path d="M105.721 195.464C105.721 195.464 106.364 191.277 109.582 185.805" stroke="black" stroke-width="0.985332" stroke-linecap="round" stroke-linejoin="round"/>
<path d="M104.818 117.523L90.2596 132.659C91.4033 135.88 91.9577 139.281 91.8961 142.699C91.7254 148.06 96.5998 155.946 100.586 159.611C104.572 163.276 112.704 157.643 115.741 155.655C117.769 154.281 119.661 152.714 121.389 150.976C122.496 150.928 123.574 150.6 124.52 150.023C125.467 149.445 126.251 148.637 126.8 147.673C126.8 147.673 105.646 125.068 104.818 117.523Z" fill="#FFD6D6" stroke="black" stroke-width="0.985332" stroke-linecap="round" stroke-linejoin="round"/>
<path d="M100.872 133.065C101.375 134.091 101.701 135.194 101.836 136.328C101.881 137.729 99.4261 144.29 99.7775 144.727C100.129 145.163 101.228 146.609 102.087 146.423" stroke="black" stroke-width="0.985332" stroke-linecap="round" stroke-linejoin="round"/>
<path d="M106.926 140.239C108.977 139.47 111.233 139.444 113.301 140.163" stroke="black" stroke-width="0.492666" stroke-linecap="round" stroke-linejoin="round"/>
<path d="M95.5958 140.761C96.6923 140.453 97.8253 140.294 98.9642 140.289" stroke="black" stroke-width="0.492666" stroke-linecap="round" stroke-linejoin="round"/>
<path d="M99.0345 129.355C98.472 129.314 97.9075 129.402 97.385 129.615C96.8625 129.827 96.3962 130.158 96.0225 130.58C94.7625 132.031 94.1501 133.296 93.8338 132.272C93.5176 131.248 94.9232 129.365 95.4201 128.984C95.9171 128.602 98.2464 127.106 99.0345 129.355Z" fill="black"/>
<path d="M105.264 128.512C106.741 128.506 108.198 128.851 109.516 129.516C111.439 130.57 110.52 128.432 109.17 127.819C107.82 127.207 105.48 127.267 105.264 128.512Z" fill="black"/>
<path d="M127.553 153.687C127.644 155.193 126.865 156.448 125.826 156.509C124.787 156.569 123.868 155.404 123.778 153.908C123.688 152.412 124.315 148.552 125.354 148.492C126.394 148.431 127.468 152.186 127.553 153.687Z" fill="#62C27D" stroke="black" stroke-width="0.985332" stroke-linecap="round" stroke-linejoin="round"/>
<path d="M98.4372 138.05C98.5074 139.054 98.1259 139.867 97.5888 139.902C97.0516 139.938 96.5848 139.169 96.4994 138.186C96.4141 137.202 96.8107 136.368 97.3478 136.333C97.885 136.298 98.392 137.086 98.4372 138.05Z" fill="black"/>
<path d="M109.27 137.663C109.341 138.667 108.959 139.476 108.427 139.516C107.895 139.556 107.423 138.783 107.333 137.794C107.242 136.805 107.649 135.982 108.181 135.947C108.713 135.911 109.205 136.68 109.27 137.663Z" fill="black"/>
<path d="M102.016 149.28C102.016 149.28 104.572 150.098 108.04 147.131" stroke="black" stroke-width="0.985332" stroke-linecap="round" stroke-linejoin="round"/>
<path d="M55.9178 185.866L51.2441 179.606C51.0283 177.939 50.6116 174.495 50.5413 172.171C50.446 169.008 50.6016 167.076 48.8044 164.269C47.0073 161.463 41.9923 157.031 41.5204 156.002C41.0485 154.972 39.6831 157.874 40.5415 159.756C41.3999 161.639 42.183 162.216 42.183 162.216C42.183 162.216 32.9513 157.628 32.6451 158.376C32.3388 159.124 36.9422 172.352 39.0506 175.841C39.9291 177.296 42.3638 179.244 43.5385 180.931C44.113 181.763 44.6056 182.649 45.0093 183.576C46.1037 188.23 47.3788 193.35 48.0213 193.536C49.4821 193.963 55.6818 194.063 55.9178 185.866Z" fill="#FFD6D6" stroke="black" stroke-width="0.985332" stroke-miterlimit="10"/>
<path d="M42.7955 171.483C42.7111 171.506 42.6231 171.512 42.5364 171.5C42.4498 171.489 42.3663 171.46 42.2907 171.416C42.2151 171.373 42.1489 171.314 42.096 171.245C42.0431 171.175 42.0044 171.096 41.9822 171.011L34.638 143.858C34.5987 143.694 34.6236 143.521 34.7076 143.374C34.7915 143.228 34.9282 143.119 35.0898 143.07C35.2595 143.025 35.44 143.049 35.5922 143.137C35.7444 143.224 35.856 143.368 35.903 143.537L43.2674 170.68C43.3089 170.849 43.2828 171.027 43.1947 171.177C43.1065 171.328 42.9633 171.437 42.7955 171.483Z" fill="black" stroke="black" stroke-width="0.985332" stroke-miterlimit="10"/>
<path d="M37.4994 154.209C37.4994 154.209 30.4111 157.954 30.8479 158.687C31.2846 159.42 32.5798 162.036 33.1721 161.975C33.7645 161.915 38.0666 158.401 38.3779 157.959C38.6891 157.518 37.4994 154.209 37.4994 154.209Z" fill="#FFD6D6" stroke="black" stroke-width="0.985332" stroke-miterlimit="10"/>
<path d="M38.7644 158.808C38.7644 158.808 32.876 163.15 33.0667 163.783C33.2575 164.415 36.144 171.9 36.646 172.507C37.148 173.115 41.7564 171.001 41.7564 171.001L38.7644 158.808Z" fill="#FFD6D6" stroke="black" stroke-width="0.985332" stroke-miterlimit="10"/>
<path d="M39.658 162.844C39.658 162.844 34.0205 167.271 34.392 167.412" stroke="black" stroke-width="0.985332" stroke-miterlimit="10"/>
<path d="M40.7222 167.643L35.9833 170.419" stroke="black" stroke-width="0.985332" stroke-miterlimit="10"/>
<path d="M42.168 162.216L44.7683 164.756C44.7683 164.756 41.3146 172.131 44.6227 176.202" stroke="black" stroke-width="0.985332" stroke-miterlimit="10"/>
<path d="M144.772 165.725C144.772 165.725 151.082 164.902 153.808 170.118C156.534 175.334 173.566 221.432 173.843 225.84C174.119 230.247 162.588 231.327 158.747 229.409C154.907 227.491 144.189 204.711 143.105 201.689" fill="#62C27D"/>
<path d="M146.778 197.647L145.843 200.972L145.987 201.012L146.922 197.687L146.778 197.647Z" fill="#EDF1D6"/>
<path d="M148.958 188.27L148 184.942L147.854 184.987L148.818 188.31L148.958 188.27Z" fill="#EDF1D6"/>
<path d="M148.489 197.977L147.544 201.309L147.689 201.35L148.634 198.018L148.489 197.977Z" fill="#EDF1D6"/>
<path d="M149.942 195.795L147.749 193.114L147.633 193.21L149.827 195.885L149.942 195.795Z" fill="#EDF1D6"/>
<path d="M154.677 199.387L151.502 200.772L151.562 200.91L154.737 199.525L154.677 199.387Z" fill="#EDF1D6"/>
<path d="M154.38 203.38L154.255 203.3L152.402 206.227L152.528 206.307L154.38 203.38Z" fill="#EDF1D6"/>
<path d="M146.905 185.258L147.864 188.586L148.01 188.541L147.046 185.218L146.905 185.258Z" fill="#EDF1D6"/>
<path d="M151.564 205.695L151.689 205.775L153.542 202.853L153.416 202.773L151.564 205.695Z" fill="#EDF1D6"/>
<path d="M150.705 195.168L148.517 192.487L148.401 192.582L150.59 195.258L150.705 195.168Z" fill="#EDF1D6"/>
<path d="M154.025 188.919L151.257 191.001L151.347 191.121L154.116 189.04L154.025 188.919Z" fill="#EDF1D6"/>
<path d="M153.331 174.179L154.33 177.497L154.47 177.452L153.476 174.139L153.331 174.179Z" fill="#EDF1D6"/>
<path d="M153.517 188.26L153.426 188.14L150.66 190.223L150.751 190.343L153.517 188.26Z" fill="#EDF1D6"/>
<path d="M151.689 170.178L152.728 168.536C152.693 168.501 152.663 168.461 152.628 168.421L151.564 170.098L151.689 170.178Z" fill="#EDF1D6"/>
<path d="M148.652 176.428L148.773 176.518L150.876 173.767L150.761 173.677L148.652 176.428Z" fill="#EDF1D6"/>
<path d="M150.54 180.941L153.727 182.291L153.788 182.156L150.6 180.805L150.54 180.941Z" fill="#EDF1D6"/>
<path d="M154.28 173.893L155.279 177.211L155.419 177.166L154.425 173.853L154.28 173.893Z" fill="#EDF1D6"/>
<path d="M154.069 196.061L155.791 193.054L155.66 192.984L153.943 195.986L154.069 196.061Z" fill="#EDF1D6"/>
<path d="M150.218 181.729L150.161 181.863L153.349 183.215L153.406 183.081L150.218 181.729Z" fill="#EDF1D6"/>
<path d="M154.273 198.5L151.097 199.884L151.158 200.022L154.333 198.638L154.273 198.5Z" fill="#EDF1D6"/>
<path d="M162.146 229.479L162.091 229.615L163.692 230.298H164.084L162.146 229.479Z" fill="#EDF1D6"/>
<path d="M162.839 218.711L161.865 216.016L161.664 215.458L161.523 215.509L161.709 216.016L162.698 218.762L162.839 218.711Z" fill="#EDF1D6"/>
<path d="M159.505 221.402L161.699 224.083L161.81 223.987L159.621 221.307L159.505 221.402Z" fill="#EDF1D6"/>
<path d="M161.905 219.048L160.816 216.016L160.73 215.795L160.595 215.84L160.655 216.016L161.769 219.098L161.905 219.048Z" fill="#EDF1D6"/>
<path d="M162.879 211.211L159.45 211.693L159.47 211.839L162.899 211.357L162.879 211.211Z" fill="#EDF1D6"/>
<path d="M172.839 226.01L173.767 225.207L173.737 225.042L172.733 225.9L172.839 226.01Z" fill="#EDF1D6"/>
<path d="M147.869 175.825L147.985 175.916L150.093 173.165L149.972 173.075L147.869 175.825Z" fill="#EDF1D6"/>
<path d="M143.917 194.031L143.776 194.082L144.952 197.34L145.094 197.289L143.917 194.031Z" fill="#EDF1D6"/>
<path d="M172.186 225.262L173.511 224.118C173.495 224.065 173.482 224.012 173.471 223.957L172.091 225.152L172.186 225.262Z" fill="#EDF1D6"/>
<path d="M162.578 223.36L160.384 220.684L160.268 220.775L162.462 223.455L162.578 223.36Z" fill="#EDF1D6"/>
<path d="M144.596 185.129L144.395 188.587L144.545 188.596L144.746 185.138L144.596 185.129Z" fill="#EDF1D6"/>
<path d="M160.324 199.635L159.33 196.322L159.184 196.362L160.183 199.681L160.324 199.635Z" fill="#EDF1D6"/>
<path d="M157.459 186.513L157.322 186.563L158.498 189.821L158.635 189.771L157.459 186.513Z" fill="#EDF1D6"/>
<path d="M156.955 180.404L156.478 182.286L156.624 182.321L157.111 180.404L157.477 178.963L157.332 178.928L156.955 180.404Z" fill="#EDF1D6"/>
<path d="M155.936 180.404L155.52 182.04L155.665 182.075L156.087 180.404L156.519 178.722L156.373 178.687L155.936 180.404Z" fill="#EDF1D6"/>
<path d="M158.235 196.648L159.234 199.962L159.375 199.921L158.381 196.603L158.235 196.648Z" fill="#EDF1D6"/>
<path d="M156.52 186.864L156.384 186.913L157.56 190.171L157.697 190.122L156.52 186.864Z" fill="#EDF1D6"/>
<path d="M144.854 193.685L144.713 193.737L145.888 196.995L146.03 196.944L144.854 193.685Z" fill="#EDF1D6"/>
<path d="M152.528 170.68L153.371 169.35L153.281 169.209L152.402 170.605L152.528 170.68Z" fill="#EDF1D6"/>
<path d="M156.478 203.943L159.666 205.293L159.721 205.157L156.534 203.807L156.478 203.943Z" fill="#EDF1D6"/>
<path d="M147.718 168.14L147.588 168.065L145.866 171.067L145.997 171.142L147.718 168.14Z" fill="#EDF1D6"/>
<path d="M171.182 216.513L171.117 216.327L169.987 218.305L170.113 218.375L171.182 216.513Z" fill="#EDF1D6"/>
<path d="M167.944 219.675L167.799 219.66L167.407 223.099L167.558 223.114L167.944 219.675Z" fill="#EDF1D6"/>
<path d="M166.048 210.174L165.991 210.308L169.18 211.661L169.237 211.527L166.048 210.174Z" fill="#EDF1D6"/>
<path d="M170.314 216.016L170.75 215.258L170.69 215.067L170.143 216.016L169.114 217.813L169.244 217.883L170.314 216.016Z" fill="#EDF1D6"/>
<path d="M168.22 225.493L168.105 225.398L165.926 228.089L166.041 228.184L168.22 225.493Z" fill="#EDF1D6"/>
<path d="M169.079 210.373L166.428 209.249L166.373 209.384L169.144 210.559L169.079 210.373Z" fill="#EDF1D6"/>
<path d="M167.447 224.871L167.332 224.776L165.158 227.466L165.273 227.562L167.447 224.871Z" fill="#EDF1D6"/>
<path d="M163.863 204.5L163.717 204.465L162.944 207.838L163.09 207.873L163.863 204.5Z" fill="#EDF1D6"/>
<path d="M165.901 217.406L166.016 217.311L164.957 216.016L163.823 214.63L163.707 214.725L164.766 216.016L165.901 217.406Z" fill="#EDF1D6"/>
<path d="M146.725 171.558L146.855 171.634L148.577 168.627L148.446 168.557L146.725 171.558Z" fill="#EDF1D6"/>
<path d="M156.52 222.473L156.383 222.522L157.559 225.78L157.696 225.731L156.52 222.473Z" fill="#EDF1D6"/>
<path d="M169.626 228.681L169.48 228.641L169.214 229.685L169.38 229.64L169.626 228.681Z" fill="#EDF1D6"/>
<path d="M157.462 222.125L157.326 222.174L158.501 225.432L158.638 225.383L157.462 222.125Z" fill="#EDF1D6"/>
<path d="M162.086 194.003L163.411 194.565C163.411 194.5 163.361 194.435 163.341 194.374L162.141 193.872L162.086 194.003Z" fill="#EDF1D6"/>
<path d="M170.585 228.912L170.439 228.877L170.319 229.344L170.489 229.283L170.585 228.912Z" fill="#EDF1D6"/>
<path d="M153.401 218.681L150.771 217.567L150.881 217.773L153.341 218.817L153.401 218.681Z" fill="#EDF1D6"/>
<path d="M144.41 173.572L146.122 175.354L146.233 175.253L144.42 173.371L144.41 173.572Z" fill="#EDF1D6"/>
<path d="M159.505 185.79L160.68 187.221L160.515 186.789L159.636 185.695L159.505 185.79Z" fill="#EDF1D6"/>
<path d="M145.409 176.041L145.515 175.936L144.36 174.731L144.35 174.937L145.409 176.041Z" fill="#EDF1D6"/>
<path d="M164.46 199.158L165.459 202.477L165.6 202.431L164.606 199.118L164.46 199.158Z" fill="#EDF1D6"/>
<path d="M153.788 217.773L150.6 216.417L150.54 216.553L153.727 217.908L153.788 217.773Z" fill="#EDF1D6"/>
<path d="M150.093 208.782L149.972 208.691L147.869 211.437L147.985 211.528L150.093 208.782Z" fill="#EDF1D6"/>
<path d="M155.419 212.783L154.425 209.465L154.28 209.51L155.279 212.823L155.419 212.783Z" fill="#EDF1D6"/>
<path d="M154.47 213.069L153.476 209.751L153.331 209.796L154.33 213.109L154.47 213.069Z" fill="#EDF1D6"/>
<path d="M150.876 209.379L150.761 209.294L148.652 212.04L148.773 212.13L150.876 209.379Z" fill="#EDF1D6"/>
<path d="M145.816 182.02L145.962 182.06L146.428 180.404L146.9 178.732L146.76 178.687L146.273 180.404L145.816 182.02Z" fill="#EDF1D6"/>
<path d="M145.244 180.404L144.862 181.754L145.008 181.794L145.399 180.404L145.946 178.461L145.806 178.421L145.244 180.404Z" fill="#EDF1D6"/>
<path d="M147.718 203.752L147.588 203.676L145.866 206.683L145.997 206.754L147.718 203.752Z" fill="#EDF1D6"/>
<path d="M148.577 204.244L148.446 204.168L146.725 207.175L146.855 207.246L148.577 204.244Z" fill="#EDF1D6"/>
<path d="M156.524 193.476L154.802 196.478L154.927 196.553L156.649 193.546L156.524 193.476Z" fill="#EDF1D6"/>
<path d="M162.753 204.244L161.98 207.617L162.126 207.652L162.899 204.279L162.753 204.244Z" fill="#EDF1D6"/>
<path d="M163.808 195.644L161.754 194.776L161.699 194.912L163.878 195.835C163.853 195.78 163.833 195.71 163.808 195.644Z" fill="#EDF1D6"/>
<path d="M162.763 210.378L162.743 210.233L159.315 210.714L159.335 210.86L162.763 210.378Z" fill="#EDF1D6"/>
<path d="M164.591 214.003L164.475 214.098L166.047 216.016L166.669 216.779L166.784 216.683L166.237 216.016L164.591 214.003Z" fill="#EDF1D6"/>
<path d="M157.111 216.016L157.477 214.58L157.332 214.545L156.955 216.016L156.478 217.898L156.624 217.933L157.111 216.016Z" fill="#EDF1D6"/>
<path d="M156.15 204.733L156.093 204.867L159.282 206.219L159.339 206.085L156.15 204.733Z" fill="#EDF1D6"/>
<path d="M156.087 216.016L156.519 214.334L156.373 214.299L155.936 216.016L155.52 217.652L155.665 217.692L156.087 216.016Z" fill="#EDF1D6"/>
<path d="M166.574 223.003L166.96 219.565L166.815 219.55L166.423 222.988L166.574 223.003Z" fill="#EDF1D6"/>
<path d="M144.772 165.725C144.772 165.725 151.082 164.902 153.808 170.118C156.534 175.334 173.566 221.432 173.843 225.84C174.119 230.247 162.588 231.327 158.747 229.409C154.907 227.491 144.189 204.711 143.105 201.689" stroke="black" stroke-width="0.985332"/>
<path d="M106.625 228.571C106.625 228.571 93.7284 226.924 91.5296 227.195C89.3309 227.466 79.4565 234.057 79.4565 234.057H107.428L106.625 228.571Z" fill="#FFD6D6" stroke="black" stroke-width="0.985332" stroke-linecap="round" stroke-linejoin="round"/>
<path d="M159.862 219.786L106.65 228.571L107.428 234.057H173.039C173.55 231.342 173.825 228.588 173.863 225.825C173.863 221.708 171.393 217.045 171.393 217.045" fill="#62C27D"/>
<path d="M164.269 228.847L165.268 232.16L165.409 232.12L164.415 228.802L164.269 228.847Z" fill="#EDF1D6"/>
<path d="M167.914 219.469L165.735 222.16L165.851 222.255L168.029 219.565L167.914 219.469Z" fill="#EDF1D6"/>
<path d="M164.967 221.538L165.083 221.633L167.256 218.942L167.141 218.847L164.967 221.538Z" fill="#EDF1D6"/>
<path d="M158.045 226.332L159.044 229.65L159.184 229.605L158.19 226.292L158.045 226.332Z" fill="#EDF1D6"/>
<path d="M166.358 231.834L165.359 228.515L165.218 228.561L166.217 231.874L166.358 231.834Z" fill="#EDF1D6"/>
<path d="M160.133 229.324L159.139 226.005L158.993 226.051L159.992 229.364L160.133 229.324Z" fill="#EDF1D6"/>
<path d="M169.293 222.714L168.44 226.072L168.586 226.109L169.439 222.752L169.293 222.714Z" fill="#EDF1D6"/>
<path d="M168.682 234.057H168.838L169.566 231.487L169.42 231.447L168.682 234.057Z" fill="#EDF1D6"/>
<path d="M156.343 233.49L156.288 233.626L157.302 234.057H157.683L156.343 233.49Z" fill="#EDF1D6"/>
<path d="M170.239 222.934L169.385 226.291L169.531 226.328L170.385 222.971L170.239 222.934Z" fill="#EDF1D6"/>
<path d="M144.659 223.368L144.517 223.419L145.693 226.678L145.835 226.627L144.659 223.368Z" fill="#EDF1D6"/>
<path d="M161.508 224.6L164.691 225.95L164.751 225.815L161.564 224.459L161.508 224.6Z" fill="#EDF1D6"/>
<path d="M162.563 233.932L162.533 234.057H162.683L162.708 233.962L162.563 233.932Z" fill="#EDF1D6"/>
<path d="M161.951 223.562L161.894 223.696L165.083 225.049L165.14 224.915L161.951 223.562Z" fill="#EDF1D6"/>
<path d="M147.442 222.893L149.636 225.574L149.752 225.478L147.558 222.798L147.442 222.893Z" fill="#EDF1D6"/>
<path d="M150.515 224.851L148.321 222.175L148.21 222.266L150.399 224.946L150.515 224.851Z" fill="#EDF1D6"/>
<path d="M172 219.334L172.307 219.068L172.246 218.922L171.905 219.223L172 219.334Z" fill="#EDF1D6"/>
<path d="M147.346 227.393L146.4 230.725L146.545 230.766L147.491 227.434L147.346 227.393Z" fill="#EDF1D6"/>
<path d="M172.638 226.462L173.848 226.738C173.848 226.688 173.848 226.638 173.848 226.588L172.663 226.317L172.638 226.462Z" fill="#EDF1D6"/>
<path d="M154.064 232.988L153.386 234.057H153.562L154.189 233.064L154.064 232.988Z" fill="#EDF1D6"/>
<path d="M173.812 227.592L172.452 227.286L172.417 227.426L173.802 227.742C173.807 227.692 173.812 227.642 173.812 227.592Z" fill="#EDF1D6"/>
<path d="M172.648 220.082L172.683 220.052L172.628 219.901L172.552 219.971L172.648 220.082Z" fill="#EDF1D6"/>
<path d="M154.08 228.179L150.905 229.564L150.965 229.702L154.14 228.317L154.08 228.179Z" fill="#EDF1D6"/>
<path d="M153.351 232.536L153.225 232.456L152.211 234.057H152.387L153.351 232.536Z" fill="#EDF1D6"/>
<path d="M148.309 227.689L147.363 231.021L147.508 231.062L148.454 227.73L148.309 227.689Z" fill="#EDF1D6"/>
<path d="M154.486 229.074L151.311 230.459L151.372 230.597L154.547 229.212L154.486 229.074Z" fill="#EDF1D6"/>
<path d="M156.458 223.234L156.333 223.159L154.611 226.166L154.736 226.241L156.458 223.234Z" fill="#EDF1D6"/>
<path d="M153.753 225.674L153.878 225.744L155.6 222.742L155.469 222.667L153.753 225.674Z" fill="#EDF1D6"/>
<path d="M118.47 228.182L115.295 229.566L115.355 229.705L118.53 228.32L118.47 228.182Z" fill="#EDF1D6"/>
<path d="M111.916 233.435L111.785 233.365L111.389 234.057H111.559L111.916 233.435Z" fill="#EDF1D6"/>
<path d="M110.932 230.769L111.795 227.717L111.635 227.742L110.791 230.729L110.932 230.769Z" fill="#EDF1D6"/>
<path d="M112.774 233.927L112.644 233.857L112.528 234.057H112.699L112.774 233.927Z" fill="#EDF1D6"/>
<path d="M129.466 225.037L129.526 224.901L129.335 224.826L129.064 224.866L129.466 225.037Z" fill="#EDF1D6"/>
<path d="M133.07 234.057H133.226L133.949 231.487L133.808 231.447L133.07 234.057Z" fill="#EDF1D6"/>
<path d="M134.37 223.992L133.783 226.312L133.924 226.352L134.531 223.967L134.37 223.992Z" fill="#EDF1D6"/>
<path d="M117.739 232.536L117.614 232.456L116.599 234.057H116.775L117.739 232.536Z" fill="#EDF1D6"/>
<path d="M118.577 233.064L118.452 232.988L117.769 234.057H117.945L118.577 233.064Z" fill="#EDF1D6"/>
<path d="M148.256 233.857L148.14 234.057H148.311L148.386 233.927L148.256 233.857Z" fill="#EDF1D6"/>
<path d="M170.374 231.718L169.711 234.057H169.867L170.514 231.758L170.374 231.718Z" fill="#EDF1D6"/>
<path d="M143.727 223.712L143.585 223.763L144.761 227.021L144.903 226.97L143.727 223.712Z" fill="#EDF1D6"/>
<path d="M134.757 231.718L134.099 234.057H134.25L134.902 231.758L134.757 231.718Z" fill="#EDF1D6"/>
<path d="M120.731 233.49L120.671 233.626L121.69 234.057H122.066L120.731 233.49Z" fill="#EDF1D6"/>
<path d="M147.528 233.435L147.397 233.365L147.001 234.057H147.171L147.528 233.435Z" fill="#EDF1D6"/>
<path d="M111.929 227.457L110.994 230.783L111.138 230.823L112.073 227.498L111.929 227.457Z" fill="#EDF1D6"/>
<path d="M140.485 229.976L140.344 229.921L139.079 233.144L139.215 233.199L140.485 229.976Z" fill="#EDF1D6"/>
<path d="M118.865 229.087L115.69 230.472L115.75 230.61L118.925 229.225L118.865 229.087Z" fill="#EDF1D6"/>
<path d="M141.403 230.333L141.263 230.282L139.998 233.505L140.138 233.556L141.403 230.333Z" fill="#EDF1D6"/>
<path d="M136.805 227.431L138.341 227.777L140.178 228.189L140.214 228.044L138.341 227.622L136.835 227.286L136.805 227.431Z" fill="#EDF1D6"/>
<path d="M140.399 227.225L140.434 227.08L138.341 226.608L137.056 226.317L137.021 226.462L138.341 226.758L140.399 227.225Z" fill="#EDF1D6"/>
<path d="M132.97 226.106L133.467 224.143L133.306 224.168L132.824 226.071L132.97 226.106Z" fill="#EDF1D6"/>
<path d="M129.139 225.815L127.513 225.122L127.242 225.167L129.079 225.95L129.139 225.815Z" fill="#EDF1D6"/>
<path d="M124.375 229.364L124.521 229.324L123.522 226.005L123.382 226.051L124.375 229.364Z" fill="#EDF1D6"/>
<path d="M123.572 229.605L122.573 226.292L122.433 226.332L123.432 229.65L123.572 229.605Z" fill="#EDF1D6"/>
<path d="M128.658 228.847L129.657 232.16L129.797 232.12L128.798 228.802L128.658 228.847Z" fill="#EDF1D6"/>
<path d="M126.946 233.932L126.916 234.057H127.071L127.091 233.962L126.946 233.932Z" fill="#EDF1D6"/>
<path d="M130.746 231.834L129.747 228.515L129.606 228.561L130.6 231.874L130.746 231.834Z" fill="#EDF1D6"/>
<path d="M159.862 219.786L106.65 228.571L107.428 234.057H173.039C173.55 231.342 173.825 228.588 173.863 225.825C173.863 221.708 171.393 217.045 171.393 217.045" stroke="black" stroke-width="0.985332"/>
<path d="M171.564 233.169H105.42L103.251 196.784C103.192 196.43 103.211 196.067 103.307 195.72C103.402 195.374 103.572 195.052 103.804 194.778C104.036 194.504 104.325 194.284 104.651 194.132C104.977 193.981 105.332 193.903 105.691 193.903H171.282C171.642 193.902 171.997 193.98 172.324 194.131C172.65 194.282 172.939 194.502 173.172 194.776C173.404 195.051 173.574 195.373 173.669 195.719C173.764 196.066 173.782 196.429 173.722 196.784L171.564 233.169Z" fill="#2E353A" stroke="#2E353A" stroke-width="0.985332" stroke-linecap="round" stroke-linejoin="round"/>
<path d="M108.668 194.776H170.805C171.156 194.772 171.504 194.845 171.823 194.99C172.143 195.134 172.427 195.347 172.656 195.613C172.885 195.879 173.054 196.191 173.149 196.529C173.245 196.866 173.266 197.221 173.21 197.567" stroke="#EDF1D6" stroke-width="0.985332" stroke-linecap="round" stroke-linejoin="round"/>
<path d="M103.743 197.01C103.79 196.399 104.067 195.829 104.518 195.414C104.969 195 105.56 194.772 106.173 194.776" stroke="#EDF1D6" stroke-width="0.985332" stroke-linecap="round" stroke-linejoin="round"/>
<path d="M171.84 229.625H105.134V233.169H171.84V229.625Z" fill="#EDF1D6" stroke="#2E353A" stroke-width="0.985332" stroke-linecap="round" stroke-linejoin="round"/>
<path d="M142.98 213.681C142.98 215.248 140.861 216.518 138.251 216.518C135.64 216.518 133.527 215.248 133.527 213.681C133.527 212.115 135.645 210.845 138.251 210.845C140.856 210.845 142.98 212.115 142.98 213.681Z" fill="#EDF1D6" stroke="#2E353A" stroke-width="0.985332" stroke-linecap="round" stroke-linejoin="round"/>
<path d="M39.6278 229.514C38.2259 229.445 36.849 229.116 35.5667 228.546C35.24 228.388 34.9867 228.111 34.8597 227.772C34.7326 227.432 34.7416 227.057 34.8848 226.724C35.028 226.391 35.2942 226.126 35.628 225.985C35.9618 225.843 36.3373 225.836 36.6761 225.965C37.9712 226.517 39.6329 226.859 40.0796 226.668C40.8929 225.749 42.1529 220.202 40.5264 217.557C40.441 217.37 40.3121 217.207 40.1506 217.08C39.989 216.953 39.7994 216.867 39.5977 216.829C38.674 216.703 37.3086 217.652 36.8267 218.104C36.5519 218.343 36.1951 218.466 35.8314 218.447C35.4678 218.428 35.1256 218.269 34.8771 218.003C34.6285 217.737 34.4929 217.384 34.4989 217.02C34.5049 216.656 34.6519 216.309 34.909 216.051C35.1651 215.81 37.4943 213.716 39.9692 214.043C40.5835 214.135 41.1686 214.366 41.6795 214.719C42.1903 215.073 42.6133 215.538 42.9159 216.081C45.3105 219.976 43.674 227.406 41.8316 228.862C41.192 229.322 40.4151 229.552 39.6278 229.514Z" fill="#2E353A" stroke="#2E353A" stroke-width="0.985332" stroke-linecap="round" stroke-linejoin="round"/>
<path d="M37.1429 212.898H21.6562V233.455H37.1429V212.898Z" fill="#2E353A" stroke="#2E353A" stroke-width="0.985332" stroke-linecap="round" stroke-linejoin="round"/>
<path d="M23.0618 211.774C23.0618 211.774 23.0618 210.062 26.1993 208.35C29.3368 206.638 31.0486 204.073 29.3368 199.224C27.625 194.374 27.9111 190.951 31.3448 188.094" stroke="#2E353A" stroke-width="0.985332" stroke-linecap="round" stroke-linejoin="round"/>
<path d="M23.7747 193.526C23.9354 191.443 24.8641 189.681 26.7867 188.094" stroke="#2E353A" stroke-width="0.985332" stroke-linecap="round" stroke-linejoin="round"/>
<path d="M24.7736 199.224C24.4602 198.359 24.2069 197.473 24.0156 196.573" stroke="#2E353A" stroke-width="0.985332" stroke-linecap="round" stroke-linejoin="round"/>
<path d="M35.8026 200.895C35.6824 200.328 35.523 199.769 35.3257 199.224L35.0647 198.451" stroke="#2E353A" stroke-width="0.985332" stroke-linecap="round" stroke-linejoin="round"/>
<path d="M29.0507 211.774C29.0507 211.774 29.0507 210.062 32.1882 208.35C34.2464 207.226 35.7022 205.735 35.9582 203.476" stroke="#2E353A" stroke-width="0.985332" stroke-linecap="round" stroke-linejoin="round"/>
<path d="M240.975 233.104H7.32416V238.274H240.975V233.104Z" fill="#2E353A"/>
</svg>
