<svg width="295" height="295" viewBox="0 0 295 295" fill="none" xmlns="http://www.w3.org/2000/svg">
<path d="M260.975 57.8967C259.91 55.5248 258.678 53.2317 257.287 51.035C249.204 39.4592 234.46 28.4793 207.574 27.9247C149.825 26.7447 166.592 124.024 93.2023 132.815C23.4407 141.122 17.1808 208.86 39.1229 231.87C69.8029 260.019 100.182 272.403 166.51 269.63C217.315 267.524 250.355 257.376 266.426 237.257C276.503 224.637 281.336 208.14 282.946 187.85C286.657 140.792 271.99 81.7504 260.975 57.8967Z" fill="#609966"/>
<path d="M266.426 237.298C250.355 257.417 217.315 267.565 166.51 269.671C100.182 272.421 69.8265 260.037 39.1229 231.911H260.963L266.426 237.298Z" fill="#809B83"/>
<path d="M12.3487 231.888H258.402" stroke="black" stroke-linecap="round" stroke-linejoin="round"/>
<path d="M260.975 48.852V231.888L277.241 248.154" stroke="black" stroke-linecap="round" stroke-linejoin="round"/>
<path d="M212.388 59.6903V27.8657" stroke="black" stroke-linecap="round" stroke-linejoin="round"/>
<path d="M198.653 73.4255C198.615 71.5982 198.942 69.7817 199.615 68.0825C200.289 66.3833 201.294 64.8355 202.573 63.5298C203.852 62.2241 205.378 61.1867 207.063 60.4786C208.748 59.7704 210.558 59.4056 212.385 59.4056C214.213 59.4056 216.022 59.7704 217.707 60.4786C219.392 61.1867 220.919 62.2241 222.198 63.5298C223.477 64.8355 224.482 66.3833 225.155 68.0825C225.828 69.7817 226.155 71.5982 226.117 73.4255H198.653Z" stroke="black" stroke-linecap="round" stroke-linejoin="round"/>
<path d="M39.1229 231.888H27.8775" stroke="black" stroke-linecap="round" stroke-linejoin="round"/>
<path d="M84.7063 158.592H72.9122V231.894H84.7063V158.592Z" stroke="black" stroke-linecap="round" stroke-linejoin="round"/>
<path d="M68.6937 164.032H21.0394V181.832H68.6937V164.032Z" stroke="black" stroke-linecap="round" stroke-linejoin="round"/>
<path d="M68.6937 183.773H21.0394V201.573H68.6937V183.773Z" stroke="black" stroke-linecap="round" stroke-linejoin="round"/>
<path d="M68.6937 203.521H21.0394V221.321H68.6937V203.521Z" stroke="black" stroke-linecap="round" stroke-linejoin="round"/>
<path d="M39.8545 165.318C39.8545 165.844 40.0634 166.348 40.4351 166.72C40.8069 167.092 41.3111 167.3 41.8369 167.3H47.8962C48.157 167.301 48.4155 167.25 48.6566 167.151C48.8978 167.052 49.1171 166.906 49.3018 166.722C49.4865 166.538 49.633 166.319 49.733 166.078C49.833 165.837 49.8845 165.579 49.8845 165.318" stroke="black" stroke-linecap="round" stroke-linejoin="round"/>
<path d="M39.8545 185.059C39.8592 185.583 40.0699 186.083 40.441 186.452C40.8121 186.821 41.3137 187.028 41.8369 187.03H47.8962C48.4235 187.03 48.9293 186.821 49.3021 186.448C49.675 186.075 49.8845 185.569 49.8845 185.042" stroke="black" stroke-linecap="round" stroke-linejoin="round"/>
<path d="M39.8545 204.807C39.8545 205.333 40.0632 205.838 40.4348 206.211C40.8064 206.583 41.3106 206.793 41.8369 206.795H47.8962C48.1573 206.795 48.4159 206.744 48.6571 206.644C48.8983 206.544 49.1175 206.397 49.3021 206.213C49.4868 206.028 49.6332 205.809 49.7332 205.568C49.8331 205.326 49.8845 205.068 49.8845 204.807" stroke="black" stroke-linecap="round" stroke-linejoin="round"/>
<path d="M70.9829 231.894H17.1808V158.592H70.9829" stroke="black" stroke-linecap="round" stroke-linejoin="round"/>
<path d="M116.938 196.305V224.035L131.458 229.15C131.639 229.214 131.796 229.332 131.907 229.488C132.018 229.645 132.077 229.832 132.077 230.023V230.885C132.078 231.028 132.045 231.169 131.981 231.297C131.917 231.426 131.824 231.537 131.709 231.623C131.595 231.709 131.462 231.767 131.321 231.792C131.18 231.818 131.035 231.81 130.897 231.77L115.982 227.392L115.711 230.973C115.694 231.223 115.583 231.456 115.4 231.626C115.217 231.796 114.975 231.89 114.726 231.888H113.958C113.709 231.887 113.47 231.792 113.287 231.623C113.105 231.454 112.992 231.222 112.973 230.973L112.702 227.392L97.7925 231.77C97.6552 231.809 97.5106 231.816 97.3702 231.79C97.2298 231.764 97.0973 231.706 96.983 231.62C96.8688 231.534 96.7759 231.423 96.7116 231.296C96.6473 231.168 96.6134 231.027 96.6125 230.885V230.023C96.6127 229.832 96.6724 229.645 96.7833 229.488C96.8943 229.332 97.0511 229.214 97.232 229.15L111.758 224.035V196.305" stroke="#263238" stroke-linecap="round" stroke-linejoin="round"/>
<path d="M110.312 186.263V178.227" stroke="#263238" stroke-linecap="round" stroke-linejoin="round"/>
<path d="M106.908 178.227V186.263" stroke="#263238" stroke-linecap="round" stroke-linejoin="round"/>
<path d="M95.58 176.799C93.161 176.705 91.45 175.136 91.45 172.422V158.35C91.4892 157.498 91.775 156.677 92.2725 155.984C92.77 155.292 93.4579 154.759 94.2525 154.45" stroke="#263238" stroke-linecap="round" stroke-linejoin="round"/>
<path d="M94.9133 156.568V172.363C94.9133 175.088 97.0904 176.593 99.8339 176.109C105.819 175.006 111.976 175.277 117.841 176.9C120.543 177.631 122.667 176.31 122.667 173.596V157.801C122.633 157.112 122.401 156.446 122.001 155.884C121.601 155.322 121.048 154.885 120.407 154.627C112.931 152.096 104.89 151.742 97.2202 153.607C96.5744 153.797 96.0045 154.185 95.5907 154.717C95.1769 155.248 94.94 155.895 94.9133 156.568Z" stroke="#263238" stroke-linecap="round" stroke-linejoin="round"/>
<path d="M106.052 187.431H98.2055C97.5441 187.43 96.889 187.56 96.2778 187.813C95.6665 188.065 95.111 188.436 94.643 188.903C94.1751 189.371 93.8038 189.926 93.5506 190.537C93.2973 191.148 93.1669 191.803 93.1669 192.464C93.1669 193.076 93.4099 193.663 93.8426 194.095C94.2752 194.528 94.862 194.771 95.4738 194.771H104.601" stroke="#263238" stroke-linecap="round" stroke-linejoin="round"/>
<path d="M107.286 194.771H133.198C133.81 194.771 134.397 194.528 134.83 194.095C135.262 193.663 135.505 193.076 135.505 192.464C135.505 191.803 135.375 191.148 135.122 190.537C134.868 189.926 134.497 189.371 134.029 188.903C133.561 188.436 133.006 188.065 132.394 187.813C131.783 187.56 131.128 187.43 130.467 187.431H110.017C109.356 187.43 108.701 187.56 108.09 187.813C107.478 188.065 106.923 188.436 106.455 188.903C105.987 189.371 105.616 189.926 105.362 190.537C105.109 191.148 104.979 191.803 104.979 192.464C104.979 193.076 105.222 193.663 105.654 194.095C106.087 194.528 106.674 194.771 107.286 194.771Z" stroke="#263238" stroke-linecap="round" stroke-linejoin="round"/>
<path d="M229.292 146.226C229.6 146.219 229.896 146.102 230.125 145.895C230.353 145.688 230.5 145.405 230.537 145.099L233.121 121.044C233.14 120.902 233.129 120.758 233.087 120.62C233.046 120.483 232.975 120.357 232.879 120.249C232.784 120.142 232.667 120.057 232.535 120C232.404 119.943 232.261 119.914 232.118 119.918" stroke="black" stroke-linecap="round" stroke-linejoin="round"/>
<path d="M165.377 168.362H248.532V160.645H165.377V168.362Z" stroke="black" stroke-linecap="round" stroke-linejoin="round"/>
<path d="M135.777 160.639V168.357H164.091" stroke="black" stroke-linecap="round" stroke-linejoin="round"/>
<path d="M251.204 159.813V154.987H170.121" stroke="black" stroke-linecap="round" stroke-linejoin="round"/>
<path d="M133.098 159.819H168.828V154.993H133.098V159.819Z" stroke="black" stroke-linecap="round" stroke-linejoin="round"/>
<path d="M244.018 169.649V231.888H245.818L246.467 169.649" stroke="black" stroke-linecap="round" stroke-linejoin="round"/>
<path d="M241.576 169.649L242.219 231.888H244.018V169.649" stroke="black" stroke-linecap="round" stroke-linejoin="round"/>
<path d="M220.241 169.649V231.888H222.041L222.684 169.649" stroke="black" stroke-linecap="round" stroke-linejoin="round"/>
<path d="M217.798 169.649L218.442 231.888H220.241V169.649" stroke="black" stroke-linecap="round" stroke-linejoin="round"/>
<path d="M164.061 169.649V231.888H165.867L166.51 169.649" stroke="black" stroke-linecap="round" stroke-linejoin="round"/>
<path d="M161.619 169.649L162.262 231.888H164.061V169.649" stroke="black" stroke-linecap="round" stroke-linejoin="round"/>
<path d="M140.284 169.649V231.888H142.084L142.727 169.649" stroke="black" stroke-linecap="round" stroke-linejoin="round"/>
<path d="M137.842 169.649L138.485 231.888H140.284V169.649" stroke="black" stroke-linecap="round" stroke-linejoin="round"/>
<path d="M201.166 153.488H183.673V154.987H201.166V153.488Z" stroke="black" stroke-linecap="round" stroke-linejoin="round"/>
<path d="M233.316 154.987H229.256C228.986 154.987 228.726 154.88 228.535 154.688C228.343 154.497 228.236 154.237 228.236 153.966V152.68H234.336V153.966C234.336 154.237 234.229 154.497 234.037 154.688C233.846 154.88 233.586 154.987 233.316 154.987Z" stroke="black" stroke-linecap="round" stroke-linejoin="round"/>
<path d="M234.336 152.692C234.336 151.819 232.967 151.105 231.28 151.105C229.593 151.105 228.23 151.819 228.23 152.692H234.336Z" stroke="black" stroke-linecap="round" stroke-linejoin="round"/>
<path d="M228.23 152.692C228.23 151.819 229.598 151.105 231.28 151.105V152.692H228.23Z" stroke="black" stroke-linecap="round" stroke-linejoin="round"/>
<path d="M228.023 146.226H193.921C193.778 146.229 193.635 146.201 193.504 146.143C193.372 146.086 193.255 146.001 193.16 145.894C193.064 145.786 192.993 145.66 192.952 145.523C192.91 145.385 192.899 145.241 192.918 145.099L195.502 121.044C195.54 120.739 195.687 120.457 195.916 120.25C196.144 120.043 196.439 119.925 196.747 119.917H230.855C230.998 119.915 231.14 119.944 231.271 120.002C231.402 120.059 231.519 120.145 231.614 120.252C231.71 120.358 231.781 120.485 231.823 120.621C231.865 120.758 231.877 120.902 231.858 121.044L229.274 145.099C229.237 145.406 229.09 145.689 228.86 145.897C228.63 146.104 228.333 146.221 228.023 146.226Z" stroke="black" stroke-linecap="round" stroke-linejoin="round"/>
<path d="M215.905 146.869L216.489 152.285H217.775L217.191 146.869" stroke="black" stroke-linecap="round" stroke-linejoin="round"/>
<path d="M207.538 146.869L208.123 152.285H216.489L215.905 146.869" stroke="black" stroke-linecap="round" stroke-linejoin="round"/>
<path d="M226.601 144.485H195.721C195.596 144.488 195.472 144.464 195.358 144.414C195.243 144.364 195.141 144.29 195.058 144.197C194.975 144.104 194.913 143.994 194.877 143.875C194.84 143.755 194.83 143.629 194.847 143.506L197.089 122.637C197.122 122.371 197.25 122.125 197.449 121.945C197.649 121.765 197.907 121.663 198.175 121.658H229.056C229.18 121.655 229.304 121.679 229.419 121.729C229.533 121.779 229.636 121.853 229.719 121.946C229.802 122.039 229.863 122.149 229.9 122.269C229.936 122.388 229.946 122.514 229.929 122.637L227.687 143.506C227.654 143.772 227.526 144.018 227.327 144.198C227.128 144.378 226.87 144.48 226.601 144.485Z" stroke="black" stroke-linecap="round" stroke-linejoin="round"/>
<path d="M219.067 152.285H202.104V154.993H219.067V152.285Z" stroke="black" stroke-linecap="round" stroke-linejoin="round"/>
<path d="M224.029 152.285H219.067V154.993H224.029V152.285Z" stroke="black" stroke-linecap="round" stroke-linejoin="round"/>
<path d="M240.13 126.762H184.582V139.275H240.13V126.762Z" fill="white" stroke="black" stroke-linecap="round" stroke-linejoin="round"/>
<path d="M191.296 134.331L190.399 133.647L190.546 134.744C190.559 134.817 190.556 134.891 190.537 134.962C190.518 135.033 190.484 135.099 190.437 135.155C190.389 135.212 190.33 135.257 190.264 135.288C190.197 135.319 190.124 135.334 190.051 135.334C189.977 135.334 189.905 135.319 189.838 135.288C189.771 135.257 189.712 135.212 189.665 135.155C189.618 135.099 189.583 135.033 189.564 134.962C189.545 134.891 189.542 134.817 189.555 134.744L189.703 133.647L188.8 134.331C188.744 134.373 188.679 134.403 188.61 134.418C188.541 134.434 188.47 134.435 188.401 134.421C188.332 134.407 188.267 134.378 188.21 134.338C188.152 134.297 188.104 134.244 188.068 134.184C188.033 134.123 188.01 134.055 188.003 133.985C187.996 133.914 188.003 133.843 188.026 133.776C188.048 133.709 188.084 133.648 188.133 133.596C188.181 133.544 188.239 133.503 188.304 133.476L189.337 133.045L188.304 132.614C188.239 132.586 188.18 132.545 188.132 132.492C188.084 132.44 188.048 132.378 188.025 132.311C188.003 132.243 187.995 132.172 188.003 132.101C188.01 132.03 188.033 131.962 188.068 131.9C188.103 131.839 188.151 131.786 188.209 131.745C188.266 131.703 188.331 131.675 188.401 131.661C188.47 131.647 188.541 131.648 188.61 131.664C188.679 131.679 188.744 131.71 188.8 131.753L189.697 132.437L189.549 131.34C189.536 131.268 189.539 131.193 189.558 131.122C189.577 131.051 189.612 130.985 189.659 130.929C189.706 130.873 189.765 130.827 189.832 130.796C189.899 130.765 189.971 130.75 190.045 130.75C190.118 130.75 190.191 130.765 190.258 130.796C190.325 130.827 190.384 130.873 190.431 130.929C190.478 130.985 190.512 131.051 190.531 131.122C190.55 131.193 190.553 131.268 190.541 131.34L190.393 132.437L191.29 131.753C191.346 131.71 191.411 131.679 191.479 131.664C191.548 131.648 191.62 131.647 191.689 131.661C191.758 131.675 191.824 131.703 191.881 131.745C191.939 131.786 191.986 131.839 192.021 131.9C192.057 131.962 192.08 132.03 192.087 132.101C192.094 132.172 192.087 132.243 192.064 132.311C192.042 132.378 192.006 132.44 191.958 132.492C191.909 132.545 191.851 132.586 191.785 132.614L190.753 133.045L191.785 133.476C191.851 133.503 191.909 133.544 191.957 133.596C192.005 133.648 192.042 133.709 192.064 133.776C192.086 133.843 192.094 133.914 192.087 133.985C192.08 134.055 192.057 134.123 192.021 134.184C191.986 134.243 191.938 134.295 191.881 134.335C191.824 134.376 191.759 134.404 191.691 134.417C191.623 134.431 191.552 134.431 191.484 134.416C191.416 134.401 191.352 134.372 191.296 134.331Z" fill="black"/>
<path d="M199.302 134.331L198.405 133.647L198.553 134.744C198.566 134.817 198.563 134.891 198.544 134.962C198.525 135.033 198.49 135.099 198.443 135.155C198.396 135.212 198.337 135.257 198.27 135.288C198.203 135.319 198.131 135.334 198.057 135.334C197.984 135.335 197.911 135.319 197.845 135.288C197.778 135.257 197.719 135.212 197.673 135.155C197.626 135.099 197.592 135.033 197.574 134.961C197.556 134.89 197.553 134.816 197.567 134.744L197.715 133.647L196.818 134.331C196.761 134.373 196.696 134.403 196.627 134.419C196.558 134.434 196.486 134.435 196.417 134.421C196.347 134.407 196.281 134.379 196.224 134.338C196.166 134.297 196.117 134.245 196.081 134.184C196.046 134.122 196.025 134.054 196.018 133.984C196.012 133.913 196.02 133.842 196.043 133.776C196.066 133.709 196.103 133.647 196.151 133.596C196.199 133.544 196.257 133.503 196.323 133.476L197.349 133.045L196.323 132.614C196.257 132.586 196.199 132.545 196.15 132.492C196.102 132.44 196.066 132.378 196.043 132.311C196.02 132.244 196.012 132.173 196.018 132.102C196.025 132.031 196.046 131.962 196.081 131.9C196.116 131.839 196.165 131.786 196.222 131.744C196.28 131.703 196.346 131.674 196.416 131.66C196.486 131.646 196.558 131.647 196.627 131.663C196.696 131.679 196.761 131.71 196.818 131.753L197.715 132.437L197.567 131.34C197.553 131.268 197.556 131.194 197.574 131.123C197.592 131.052 197.626 130.985 197.673 130.929C197.719 130.873 197.778 130.827 197.845 130.796C197.911 130.765 197.984 130.749 198.057 130.75C198.131 130.75 198.203 130.765 198.27 130.796C198.337 130.827 198.396 130.873 198.443 130.929C198.49 130.985 198.525 131.051 198.544 131.122C198.563 131.193 198.566 131.268 198.553 131.34L198.405 132.437L199.302 131.753C199.358 131.71 199.423 131.679 199.492 131.664C199.561 131.648 199.632 131.647 199.701 131.661C199.771 131.675 199.836 131.703 199.893 131.745C199.951 131.786 199.999 131.839 200.034 131.9C200.069 131.962 200.092 132.03 200.099 132.101C200.107 132.172 200.099 132.243 200.077 132.311C200.054 132.378 200.018 132.44 199.97 132.492C199.922 132.545 199.863 132.586 199.798 132.614L198.771 133.045L199.798 133.476C199.863 133.503 199.921 133.544 199.969 133.596C200.018 133.648 200.054 133.709 200.076 133.776C200.099 133.843 200.106 133.914 200.099 133.985C200.092 134.055 200.069 134.123 200.034 134.184C199.998 134.244 199.95 134.297 199.892 134.338C199.835 134.378 199.77 134.407 199.701 134.421C199.632 134.435 199.561 134.434 199.492 134.418C199.423 134.403 199.358 134.373 199.302 134.331Z" fill="black"/>
<path d="M207.308 134.331L206.412 133.647L206.559 134.744C206.573 134.816 206.571 134.89 206.553 134.961C206.534 135.033 206.501 135.099 206.454 135.155C206.407 135.212 206.348 135.257 206.282 135.288C206.215 135.319 206.143 135.335 206.069 135.334C205.995 135.336 205.922 135.32 205.855 135.29C205.788 135.259 205.728 135.214 205.681 135.157C205.633 135.101 205.599 135.034 205.58 134.963C205.562 134.891 205.56 134.817 205.574 134.744L205.721 133.647L204.824 134.331C204.768 134.373 204.703 134.403 204.635 134.418C204.566 134.434 204.495 134.435 204.426 134.421C204.357 134.407 204.291 134.378 204.234 134.338C204.177 134.297 204.129 134.244 204.093 134.184C204.057 134.123 204.035 134.055 204.027 133.985C204.02 133.914 204.028 133.843 204.05 133.776C204.072 133.709 204.109 133.648 204.157 133.596C204.205 133.544 204.264 133.503 204.329 133.476L205.355 133.045L204.329 132.614C204.263 132.586 204.205 132.545 204.157 132.492C204.109 132.44 204.072 132.378 204.05 132.311C204.027 132.243 204.02 132.172 204.027 132.101C204.035 132.03 204.057 131.962 204.093 131.9C204.128 131.839 204.176 131.786 204.233 131.745C204.29 131.703 204.356 131.675 204.425 131.661C204.494 131.647 204.566 131.648 204.635 131.664C204.704 131.679 204.768 131.71 204.824 131.753L205.721 132.437L205.574 131.34C205.56 131.267 205.562 131.193 205.58 131.121C205.599 131.05 205.633 130.983 205.681 130.927C205.728 130.87 205.788 130.825 205.855 130.794C205.922 130.764 205.995 130.749 206.069 130.75C206.143 130.749 206.215 130.765 206.282 130.796C206.348 130.827 206.407 130.873 206.454 130.929C206.501 130.985 206.534 131.052 206.553 131.123C206.571 131.194 206.573 131.268 206.559 131.34L206.412 132.437L207.308 131.753C207.364 131.71 207.429 131.679 207.498 131.664C207.567 131.648 207.638 131.647 207.708 131.661C207.777 131.675 207.842 131.703 207.9 131.745C207.957 131.786 208.005 131.839 208.04 131.9C208.075 131.962 208.096 132.031 208.102 132.102C208.109 132.173 208.101 132.244 208.078 132.311C208.055 132.378 208.018 132.44 207.97 132.492C207.922 132.545 207.863 132.586 207.798 132.614L206.771 133.045L207.798 133.476C207.863 133.503 207.922 133.544 207.97 133.596C208.018 133.648 208.054 133.709 208.077 133.776C208.099 133.843 208.107 133.914 208.099 133.985C208.092 134.055 208.07 134.123 208.034 134.184C207.998 134.243 207.95 134.295 207.893 134.335C207.837 134.376 207.772 134.404 207.704 134.417C207.635 134.431 207.565 134.431 207.497 134.416C207.429 134.401 207.365 134.372 207.308 134.331Z" fill="black"/>
<path d="M215.35 134.331L214.447 133.647L214.595 134.744C214.609 134.816 214.607 134.89 214.588 134.961C214.57 135.033 214.536 135.099 214.49 135.155C214.443 135.212 214.384 135.257 214.317 135.288C214.251 135.319 214.178 135.335 214.105 135.334C214.032 135.334 213.959 135.319 213.892 135.288C213.825 135.257 213.766 135.212 213.719 135.155C213.672 135.099 213.638 135.033 213.619 134.962C213.6 134.891 213.597 134.817 213.609 134.744L213.757 133.647L212.86 134.331C212.804 134.373 212.739 134.403 212.67 134.418C212.602 134.434 212.531 134.435 212.461 134.421C212.392 134.407 212.327 134.378 212.27 134.338C212.212 134.297 212.164 134.244 212.129 134.184C212.093 134.123 212.07 134.055 212.063 133.985C212.056 133.914 212.064 133.843 212.086 133.776C212.108 133.709 212.145 133.648 212.193 133.596C212.241 133.544 212.299 133.503 212.365 133.476L213.397 133.045L212.365 132.614C212.299 132.586 212.241 132.545 212.192 132.492C212.144 132.44 212.108 132.378 212.086 132.311C212.063 132.243 212.056 132.172 212.063 132.101C212.07 132.03 212.093 131.962 212.129 131.9C212.164 131.839 212.211 131.786 212.269 131.745C212.326 131.703 212.392 131.675 212.461 131.661C212.53 131.647 212.602 131.648 212.671 131.664C212.739 131.679 212.804 131.71 212.86 131.753L213.757 132.437L213.609 131.34C213.597 131.268 213.6 131.193 213.619 131.122C213.638 131.051 213.672 130.985 213.719 130.929C213.766 130.873 213.825 130.827 213.892 130.796C213.959 130.765 214.032 130.75 214.105 130.75C214.178 130.749 214.251 130.765 214.317 130.796C214.384 130.827 214.443 130.873 214.49 130.929C214.536 130.985 214.57 131.052 214.588 131.123C214.607 131.194 214.609 131.268 214.595 131.34L214.447 132.437L215.35 131.753C215.406 131.71 215.471 131.679 215.54 131.664C215.609 131.648 215.68 131.647 215.749 131.661C215.819 131.675 215.884 131.703 215.941 131.745C215.999 131.786 216.047 131.839 216.082 131.9C216.116 131.962 216.138 132.03 216.145 132.101C216.152 132.171 216.144 132.242 216.122 132.31C216.1 132.377 216.064 132.439 216.016 132.491C215.968 132.544 215.91 132.586 215.846 132.614L214.813 133.045L215.84 133.476C215.905 133.503 215.963 133.544 216.011 133.596C216.06 133.647 216.096 133.709 216.119 133.776C216.142 133.842 216.15 133.913 216.144 133.984C216.138 134.054 216.116 134.122 216.082 134.184C216.046 134.244 215.998 134.297 215.94 134.338C215.883 134.378 215.818 134.407 215.749 134.421C215.68 134.435 215.609 134.434 215.54 134.418C215.471 134.403 215.406 134.373 215.35 134.331Z" fill="black"/>
<path d="M223.327 134.331L222.43 133.647L222.577 134.744C222.59 134.817 222.587 134.891 222.568 134.962C222.549 135.033 222.515 135.099 222.468 135.155C222.421 135.212 222.361 135.257 222.295 135.288C222.228 135.319 222.155 135.334 222.082 135.334C222.008 135.334 221.936 135.319 221.869 135.288C221.802 135.257 221.743 135.212 221.696 135.155C221.649 135.099 221.614 135.033 221.595 134.962C221.576 134.891 221.573 134.817 221.586 134.744L221.734 133.647L220.837 134.331C220.781 134.373 220.716 134.403 220.647 134.418C220.578 134.434 220.507 134.435 220.438 134.421C220.369 134.407 220.304 134.378 220.247 134.338C220.189 134.297 220.141 134.244 220.105 134.184C220.07 134.123 220.047 134.055 220.04 133.985C220.033 133.914 220.04 133.843 220.063 133.776C220.085 133.709 220.121 133.648 220.17 133.596C220.218 133.544 220.276 133.503 220.341 133.476L221.374 133.045L220.341 132.614C220.276 132.586 220.217 132.545 220.169 132.492C220.121 132.44 220.085 132.378 220.062 132.311C220.04 132.243 220.032 132.172 220.04 132.101C220.047 132.03 220.07 131.962 220.105 131.9C220.14 131.839 220.188 131.786 220.246 131.745C220.303 131.703 220.368 131.675 220.438 131.661C220.507 131.647 220.578 131.648 220.647 131.664C220.716 131.679 220.781 131.71 220.837 131.753L221.734 132.437L221.586 131.34C221.573 131.268 221.576 131.193 221.595 131.122C221.614 131.051 221.649 130.985 221.696 130.929C221.743 130.873 221.802 130.827 221.869 130.796C221.936 130.765 222.008 130.75 222.082 130.75C222.155 130.75 222.228 130.765 222.295 130.796C222.361 130.827 222.421 130.873 222.468 130.929C222.515 130.985 222.549 131.051 222.568 131.122C222.587 131.193 222.59 131.268 222.577 131.34L222.43 132.396L223.327 131.712C223.383 131.669 223.448 131.638 223.516 131.622C223.585 131.606 223.657 131.605 223.726 131.619C223.795 131.633 223.861 131.662 223.918 131.703C223.976 131.745 224.023 131.798 224.058 131.859C224.094 131.921 224.117 131.989 224.124 132.06C224.131 132.13 224.124 132.202 224.101 132.269C224.079 132.337 224.043 132.399 223.995 132.451C223.946 132.504 223.888 132.545 223.822 132.573L222.79 133.004L223.822 133.434C223.888 133.462 223.946 133.503 223.994 133.554C224.042 133.606 224.079 133.668 224.101 133.735C224.124 133.802 224.131 133.873 224.124 133.943C224.116 134.014 224.094 134.081 224.058 134.142C224.026 134.206 223.981 134.263 223.925 134.308C223.869 134.353 223.805 134.385 223.735 134.403C223.666 134.421 223.594 134.424 223.523 134.411C223.453 134.399 223.386 134.372 223.327 134.331Z" fill="black"/>
<path d="M236.714 133.021C236.714 133.021 235.08 135.057 233.068 135.057C231.056 135.057 229.427 133.021 229.427 133.021C229.427 133.021 231.056 130.98 233.05 130.98C235.044 130.98 236.714 133.021 236.714 133.021Z" fill="white" stroke="black" stroke-linecap="round" stroke-linejoin="round"/>
<path d="M234.324 133.021C234.326 133.27 234.253 133.514 234.115 133.721C233.978 133.929 233.782 134.091 233.553 134.187C233.323 134.283 233.07 134.308 232.826 134.261C232.582 134.213 232.358 134.094 232.181 133.918C232.005 133.742 231.885 133.519 231.836 133.275C231.787 133.031 231.811 132.778 231.906 132.548C232.001 132.318 232.162 132.121 232.369 131.983C232.576 131.844 232.819 131.771 233.068 131.771C233.232 131.77 233.396 131.802 233.548 131.864C233.701 131.927 233.839 132.019 233.956 132.135C234.073 132.251 234.165 132.389 234.229 132.541C234.292 132.694 234.324 132.857 234.324 133.021Z" fill="white" stroke="black" stroke-linecap="round" stroke-linejoin="round"/>
<path d="M222.654 187.537C222.654 187.537 215.899 201.491 209.963 194.411C204.028 187.331 214.058 184.676 214.058 184.676C214.058 184.676 201.975 186.104 201.975 179.555C201.975 173.006 210.577 177.1 210.577 177.1C210.577 177.1 199.402 168.386 204.842 164.71C208.63 162.15 217.739 171.395 217.739 171.395C217.739 171.395 214.258 162.356 218.329 162.15C222.4 161.943 225.091 175.053 225.091 175.053C225.091 175.053 227.339 165.395 231.433 168.174C235.528 170.953 228.218 181.679 228.218 181.679C228.218 181.679 233.481 176.481 234.914 180.168C236.348 183.856 228.218 186.31 228.218 186.31C228.218 186.31 228.159 199.827 223.657 198.187C219.155 196.547 222.654 187.537 222.654 187.537Z" fill="#609966"/>
<path d="M237.056 217.84C237.056 217.84 237.056 186.723 218.542 177.301" stroke="black" stroke-linecap="round" stroke-linejoin="round"/>
<path d="M225.162 182.269C225.162 182.269 219.993 183.189 214.158 189.537" stroke="black" stroke-linecap="round" stroke-linejoin="round"/>
<path d="M221.545 179.13C221.545 179.13 215.846 180.87 210.335 180.239" stroke="black" stroke-linecap="round" stroke-linejoin="round"/>
<path d="M223.15 180.375C225.812 178.592 227.913 176.09 229.209 173.159" stroke="black" stroke-linecap="round" stroke-linejoin="round"/>
<path d="M257.777 196.712C257.777 196.712 263.476 208.482 268.485 202.512C273.494 196.541 265.028 194.293 265.028 194.293C265.028 194.293 275.223 195.502 275.223 189.974C275.223 184.446 267.966 187.897 267.966 187.897C267.966 187.897 277.406 180.546 272.804 177.443C269.606 175.289 261.919 183.083 261.919 183.083C261.919 183.083 264.869 175.46 261.405 175.289C257.942 175.118 255.7 186.174 255.7 186.174C255.7 186.174 253.8 178.021 250.349 180.369C246.897 182.717 253.063 191.768 253.063 191.768C253.063 191.768 248.62 187.378 247.411 190.493C246.201 193.608 253.063 195.673 253.063 195.673C253.063 195.673 253.11 207.072 256.91 205.703C260.709 204.335 257.777 196.712 257.777 196.712Z" fill="#609966"/>
<mask id="mask0_206_252" style="mask-type:luminance" maskUnits="userSpaceOnUse" x="247" y="175" width="29" height="31">
<path d="M257.777 196.712C257.777 196.712 263.476 208.482 268.485 202.512C273.494 196.541 265.028 194.293 265.028 194.293C265.028 194.293 275.223 195.502 275.223 189.974C275.223 184.446 267.966 187.897 267.966 187.897C267.966 187.897 277.406 180.546 272.804 177.443C269.606 175.289 261.919 183.083 261.919 183.083C261.919 183.083 264.869 175.46 261.405 175.289C257.942 175.118 255.7 186.174 255.7 186.174C255.7 186.174 253.8 178.021 250.349 180.369C246.897 182.717 253.063 191.768 253.063 191.768C253.063 191.768 248.62 187.378 247.411 190.493C246.201 193.608 253.063 195.673 253.063 195.673C253.063 195.673 253.11 207.072 256.91 205.703C260.709 204.335 257.777 196.712 257.777 196.712Z" fill="white"/>
</mask>
<g mask="url(#mask0_206_252)">
<path opacity="0.1" d="M257.777 196.712C257.777 196.712 263.476 208.482 268.485 202.512C273.494 196.541 265.028 194.293 265.028 194.293C265.028 194.293 275.223 195.502 275.223 189.974C275.223 184.446 267.966 187.897 267.966 187.897C267.966 187.897 277.406 180.546 272.804 177.443C269.606 175.289 261.919 183.083 261.919 183.083C261.919 183.083 264.869 175.46 261.405 175.289C257.942 175.118 255.7 186.174 255.7 186.174C255.7 186.174 253.8 178.021 250.349 180.369C246.897 182.717 253.063 191.768 253.063 191.768C253.063 191.768 248.62 187.378 247.411 190.493C246.201 193.608 253.063 195.673 253.063 195.673C253.063 195.673 253.11 207.072 256.91 205.703C260.709 204.335 257.777 196.712 257.777 196.712Z" fill="white"/>
</g>
<path d="M257.087 190.228C249.033 196.039 247.883 216.188 247.883 216.188" stroke="black" stroke-linecap="round" stroke-linejoin="round"/>
<path d="M254.709 192.564C257.959 193.816 260.885 195.784 263.27 198.323" stroke="black" stroke-linecap="round" stroke-linejoin="round"/>
<path d="M259.688 180.375C259.688 184.776 257.081 190.228 257.081 190.228L258.992 190.818" stroke="black" stroke-linecap="round" stroke-linejoin="round"/>
<path d="M260.568 191.29C260.568 191.29 265.423 192.375 269.105 191.29" stroke="black" stroke-linecap="round" stroke-linejoin="round"/>
<path d="M240.454 166.38C240.454 166.38 226.82 166.97 227.675 159.666C228.389 153.565 238.041 157.642 238.041 157.642C238.041 157.642 230.124 148.409 235.563 144.762C241.003 141.116 244.26 151.736 244.26 151.736C244.26 151.736 247.729 136.396 253.812 138.845C258.048 140.568 251.151 153.282 251.151 153.282C251.151 153.282 259.169 147.813 261.624 151.099C264.078 154.385 252.219 161.442 252.219 161.442C252.219 161.442 261.494 157.931 261.464 162.881C261.435 167.831 248.455 167.731 248.455 167.731C248.455 167.731 255.706 169.212 253.44 172.451C251.175 175.69 244.59 170.309 244.59 170.309C244.59 170.309 235.711 176.735 234.56 172.079C233.41 167.424 240.454 166.38 240.454 166.38Z" fill="#609966"/>
<mask id="mask1_206_252" style="mask-type:luminance" maskUnits="userSpaceOnUse" x="227" y="138" width="35" height="36">
<path d="M240.454 166.38C240.454 166.38 226.82 166.97 227.675 159.666C228.389 153.565 238.041 157.642 238.041 157.642C238.041 157.642 230.124 148.409 235.563 144.762C241.003 141.116 244.26 151.736 244.26 151.736C244.26 151.736 247.729 136.396 253.812 138.845C258.048 140.568 251.151 153.282 251.151 153.282C251.151 153.282 259.169 147.813 261.624 151.099C264.078 154.385 252.219 161.442 252.219 161.442C252.219 161.442 261.494 157.931 261.464 162.881C261.435 167.831 248.455 167.731 248.455 167.731C248.455 167.731 255.706 169.212 253.44 172.451C251.175 175.69 244.59 170.309 244.59 170.309C244.59 170.309 235.711 176.735 234.56 172.079C233.41 167.424 240.454 166.38 240.454 166.38Z" fill="white"/>
</mask>
<g mask="url(#mask1_206_252)">
<path opacity="0.2" d="M240.454 166.38C240.454 166.38 226.82 166.97 227.675 159.666C228.389 153.565 238.041 157.642 238.041 157.642C238.041 157.642 230.124 148.409 235.563 144.762C241.003 141.116 244.26 151.736 244.26 151.736C244.26 151.736 247.729 136.396 253.812 138.845C258.048 140.568 251.151 153.282 251.151 153.282C251.151 153.282 259.169 147.813 261.624 151.099C264.078 154.385 252.219 161.442 252.219 161.442C252.219 161.442 261.494 157.931 261.464 162.881C261.435 167.831 248.455 167.731 248.455 167.731C248.455 167.731 255.706 169.212 253.44 172.451C251.175 175.69 244.59 170.309 244.59 170.309C244.59 170.309 235.711 176.735 234.56 172.079C233.41 167.424 240.454 166.38 240.454 166.38Z" fill="#568359"/>
</g>
<path d="M242.337 217.84C242.337 217.84 240.159 179.325 247.877 153.53" stroke="black" stroke-linecap="round" stroke-linejoin="round"/>
<path d="M232.867 160.563C232.867 160.563 238.614 160.079 245.405 163.808" stroke="black" stroke-linecap="round" stroke-linejoin="round"/>
<path d="M237.646 148.432C237.646 148.432 243.393 154.061 245.735 162.15" stroke="black" stroke-linecap="round" stroke-linejoin="round"/>
<path d="M246.248 159.766C246.248 159.766 249.983 155.636 254.709 154.574" stroke="black" stroke-linecap="round" stroke-linejoin="round"/>
<path d="M256.963 214.028H227.598L229.958 240.655C229.983 240.935 230.112 241.196 230.32 241.386C230.527 241.576 230.798 241.681 231.079 241.682L231.669 248.26C231.696 248.541 231.826 248.802 232.034 248.991C232.243 249.181 232.514 249.287 232.796 249.287H251.765C252.046 249.286 252.317 249.181 252.524 248.991C252.732 248.801 252.861 248.54 252.886 248.26L253.476 241.682C253.758 241.681 254.029 241.576 254.238 241.386C254.446 241.196 254.576 240.936 254.603 240.655L256.963 214.028Z" fill="#568359" stroke="black" stroke-linecap="round" stroke-linejoin="round"/>
<path d="M257.152 216.206H227.41C226.853 216.204 226.32 215.982 225.926 215.589C225.533 215.195 225.311 214.662 225.309 214.105C225.311 213.549 225.533 213.015 225.926 212.622C226.32 212.228 226.853 212.006 227.41 212.005H257.152C257.708 212.006 258.24 212.228 258.633 212.622C259.026 213.016 259.246 213.549 259.246 214.105C259.246 214.661 259.026 215.195 258.633 215.588C258.24 215.982 257.708 216.204 257.152 216.206Z" fill="black" stroke="black" stroke-linecap="round" stroke-linejoin="round"/>
<path d="M248.06 241.758H250.007" stroke="black" stroke-linecap="round" stroke-linejoin="round"/>
<path d="M234.549 241.758H246.107" stroke="black" stroke-linecap="round" stroke-linejoin="round"/>
<path d="M177.153 22.8507H169.112V176.652H177.153C178.434 176.65 179.661 176.141 180.566 175.235C181.471 174.328 181.98 173.1 181.98 171.82V27.6828C181.98 26.4023 181.471 25.1741 180.566 24.2681C179.661 23.362 178.434 22.8523 177.153 22.8507Z" fill="#999999" stroke="black" stroke-linecap="round" stroke-linejoin="round"/>
<path d="M174.982 22.8507H105.002C102.558 22.8507 100.577 24.8318 100.577 27.2757V172.227C100.577 174.671 102.558 176.652 105.002 176.652H174.982C177.426 176.652 179.407 174.671 179.407 172.227V27.2757C179.407 24.8318 177.426 22.8507 174.982 22.8507Z" fill="black" stroke="black" stroke-linecap="round" stroke-linejoin="round"/>
<path d="M153.642 29.618C153.528 30.5604 153.074 31.4285 152.364 32.0589C151.654 32.6892 150.738 33.0382 149.789 33.04H129.529C128.578 33.0409 127.66 32.6931 126.949 32.0623C126.238 31.4316 125.783 30.5619 125.67 29.618C125.551 28.6805 125.094 27.8186 124.384 27.1941C123.675 26.5695 122.762 26.2251 121.817 26.2255H107.569C106.542 26.2255 105.557 26.6321 104.83 27.3563C104.102 28.0805 103.691 29.0634 103.687 30.09V169.395C103.688 170.424 104.098 171.411 104.825 172.138C105.553 172.866 106.54 173.276 107.569 173.277H172.416C173.445 173.277 174.433 172.868 175.161 172.14C175.889 171.412 176.298 170.425 176.298 169.395V30.09C176.299 29.58 176.199 29.0748 176.004 28.6034C175.809 28.1321 175.523 27.7038 175.163 27.3431C174.802 26.9825 174.374 26.6966 173.902 26.5017C173.431 26.3069 172.926 26.207 172.416 26.2078H157.495C156.547 26.208 155.632 26.5548 154.922 27.183C154.213 27.8112 153.757 28.6773 153.642 29.618Z" fill="#609966"/>
<mask id="mask2_206_252" style="mask-type:luminance" maskUnits="userSpaceOnUse" x="103" y="26" width="74" height="148">
<path d="M153.642 29.618C153.528 30.5604 153.074 31.4285 152.364 32.0589C151.654 32.6892 150.738 33.0382 149.789 33.04H129.529C128.578 33.0409 127.66 32.6931 126.949 32.0623C126.238 31.4316 125.783 30.5619 125.67 29.618C125.551 28.6805 125.094 27.8186 124.384 27.1941C123.675 26.5695 122.762 26.2251 121.817 26.2255H107.569C106.542 26.2255 105.557 26.6321 104.83 27.3563C104.102 28.0805 103.691 29.0634 103.687 30.09V169.395C103.688 170.424 104.098 171.411 104.825 172.138C105.553 172.866 106.54 173.276 107.569 173.277H172.416C173.445 173.277 174.433 172.868 175.161 172.14C175.889 171.412 176.298 170.425 176.298 169.395V30.09C176.299 29.58 176.199 29.0748 176.004 28.6034C175.809 28.1321 175.523 27.7038 175.163 27.3431C174.802 26.9825 174.374 26.6966 173.902 26.5017C173.431 26.3069 172.926 26.207 172.416 26.2078H157.495C156.547 26.208 155.632 26.5548 154.922 27.183C154.213 27.8112 153.757 28.6773 153.642 29.618Z" fill="white"/>
</mask>
<g mask="url(#mask2_206_252)">
<path opacity="0.4" d="M125.074 183.059H101.38L158.498 14.9093H182.192L125.074 183.059Z" fill="white"/>
<path opacity="0.4" d="M141.641 183.059H135.34L192.464 14.9093H198.765L141.641 183.059Z" fill="white"/>
</g>
<path d="M153.642 29.618C153.528 30.5604 153.074 31.4285 152.364 32.0589C151.654 32.6892 150.738 33.0382 149.789 33.04H129.529C128.578 33.0409 127.66 32.6931 126.949 32.0623C126.238 31.4316 125.783 30.5619 125.67 29.618C125.551 28.6805 125.094 27.8186 124.384 27.1941C123.675 26.5695 122.762 26.2251 121.817 26.2255H107.569C106.542 26.2255 105.557 26.6321 104.83 27.3563C104.102 28.0805 103.691 29.0634 103.687 30.09V169.395C103.688 170.424 104.098 171.411 104.825 172.138C105.553 172.866 106.54 173.276 107.569 173.277H172.416C173.445 173.277 174.433 172.868 175.161 172.14C175.889 171.412 176.298 170.425 176.298 169.395V30.09C176.299 29.58 176.199 29.0748 176.004 28.6034C175.809 28.1321 175.523 27.7038 175.163 27.3431C174.802 26.9825 174.374 26.6966 173.902 26.5017C173.431 26.3069 172.926 26.207 172.416 26.2078H157.495C156.547 26.208 155.632 26.5548 154.922 27.183C154.213 27.8112 153.757 28.6773 153.642 29.618Z" stroke="black" stroke-linecap="round" stroke-linejoin="round"/>
<path d="M133.021 28.2197C133.021 28.5698 132.918 28.912 132.723 29.2031C132.529 29.4941 132.252 29.721 131.929 29.855C131.605 29.9889 131.249 30.024 130.906 29.9557C130.563 29.8874 130.247 29.7188 130 29.4713C129.752 29.2237 129.584 28.9084 129.515 28.565C129.447 28.2217 129.482 27.8658 129.616 27.5424C129.75 27.2189 129.977 26.9425 130.268 26.748C130.559 26.5535 130.901 26.4497 131.251 26.4497C131.721 26.4497 132.171 26.6362 132.503 26.9681C132.835 27.3001 133.021 27.7503 133.021 28.2197Z" fill="#609966" stroke="black" stroke-linecap="round" stroke-linejoin="round"/>
<path d="M147.016 26.5028H138.06C137.605 26.5028 137.168 26.6837 136.846 27.0057C136.524 27.3277 136.343 27.7644 136.343 28.2197C136.343 28.6751 136.524 29.1118 136.846 29.4337C137.168 29.7557 137.605 29.9366 138.06 29.9366H147.016C147.472 29.9366 147.908 29.7557 148.23 29.4337C148.552 29.1118 148.733 28.6751 148.733 28.2197C148.733 27.7644 148.552 27.3277 148.23 27.0057C147.908 26.6837 147.472 26.5028 147.016 26.5028Z" fill="#999999" stroke="black" stroke-linecap="round" stroke-linejoin="round"/>
<path d="M148.09 165.713H130.874C130.404 165.713 129.954 165.9 129.622 166.232C129.29 166.564 129.104 167.014 129.104 167.483C129.104 167.953 129.29 168.403 129.622 168.735C129.954 169.067 130.404 169.253 130.874 169.253H148.09C148.559 169.253 149.01 169.067 149.342 168.735C149.674 168.403 149.86 167.953 149.86 167.483C149.86 167.014 149.674 166.564 149.342 166.232C149.01 165.9 148.559 165.713 148.09 165.713Z" fill="#999999" stroke="black" stroke-linecap="round" stroke-linejoin="round"/>
<path d="M182.859 61.9913V50.4863C182.859 50.2312 182.757 49.9866 182.577 49.8063C182.397 49.6259 182.152 49.5246 181.897 49.5246C181.642 49.5246 181.397 49.6259 181.217 49.8063C181.037 49.9866 180.935 50.2312 180.935 50.4863V61.9913C180.935 62.2464 181.037 62.491 181.217 62.6713C181.397 62.8517 181.642 62.953 181.897 62.953C182.152 62.953 182.397 62.8517 182.577 62.6713C182.757 62.491 182.859 62.2464 182.859 61.9913Z" fill="black"/>
<path d="M182.859 70.5345V66.7054C182.859 66.4503 182.757 66.2057 182.577 66.0254C182.397 65.845 182.152 65.7437 181.897 65.7437C181.642 65.7437 181.397 65.845 181.217 66.0254C181.037 66.2057 180.935 66.4503 180.935 66.7054V70.5345C180.935 70.7896 181.037 71.0342 181.217 71.2145C181.397 71.3949 181.642 71.4962 181.897 71.4962C182.152 71.4962 182.397 71.3949 182.577 71.2145C182.757 71.0342 182.859 70.7896 182.859 70.5345Z" fill="black"/>
<path d="M184.646 79.0187H97.8515V98.5713H184.646V79.0187Z" fill="white" stroke="black" stroke-linecap="round" stroke-linejoin="round"/>
<path d="M108.342 90.86L106.938 89.7921L107.168 91.509C107.183 91.6188 107.174 91.7306 107.143 91.8369C107.111 91.9432 107.057 92.0415 106.985 92.1253C106.912 92.2091 106.822 92.2764 106.722 92.3227C106.621 92.3691 106.511 92.3934 106.401 92.394C106.289 92.3942 106.179 92.3705 106.078 92.3245C105.976 92.2786 105.886 92.2114 105.813 92.1275C105.739 92.0436 105.685 91.945 105.653 91.8383C105.621 91.7316 105.613 91.6193 105.628 91.509L105.858 89.7921L104.43 90.86C104.342 90.927 104.242 90.9746 104.134 90.9997C104.027 91.0248 103.915 91.0268 103.807 91.0056C103.699 90.9844 103.597 90.9405 103.507 90.8768C103.417 90.813 103.341 90.7309 103.285 90.6358V90.6004C103.23 90.5047 103.195 90.3982 103.184 90.2881C103.173 90.178 103.185 90.0667 103.22 89.9617C103.256 89.8568 103.313 89.7605 103.388 89.6794C103.463 89.5982 103.555 89.5341 103.657 89.4912L105.268 88.8186L103.657 88.1401C103.555 88.0972 103.463 88.0331 103.388 87.9519C103.313 87.8708 103.256 87.7745 103.22 87.6696C103.185 87.5646 103.173 87.4534 103.184 87.3432C103.195 87.2331 103.23 87.1266 103.285 87.0309V87.0014C103.337 86.9026 103.409 86.816 103.497 86.7476C103.586 86.6791 103.687 86.6304 103.796 86.6046C103.904 86.5789 104.017 86.5768 104.127 86.5984C104.236 86.62 104.339 86.6649 104.43 86.73L105.834 87.7979L105.604 86.081C105.589 85.971 105.597 85.8589 105.629 85.7525C105.661 85.6461 105.716 85.5479 105.789 85.4644C105.863 85.381 105.953 85.3144 106.054 85.2691C106.156 85.2238 106.266 85.2009 106.377 85.2019C106.488 85.2017 106.597 85.2252 106.698 85.2709C106.798 85.3166 106.888 85.3833 106.961 85.4667C107.034 85.55 107.088 85.648 107.119 85.754C107.151 85.8599 107.159 85.9715 107.144 86.081L106.914 87.7979L108.318 86.73C108.406 86.6633 108.507 86.616 108.615 86.5914C108.722 86.5667 108.834 86.5652 108.942 86.5869C109.051 86.6087 109.153 86.6532 109.243 86.7176C109.332 86.7819 109.407 86.8646 109.463 86.9601V86.9896C109.518 87.0853 109.553 87.1918 109.564 87.3019C109.575 87.4121 109.563 87.5233 109.528 87.6283C109.493 87.7332 109.435 87.8295 109.36 87.9106C109.285 87.9918 109.193 88.0559 109.091 88.0988L107.48 88.7773L109.091 89.4499C109.193 89.4928 109.285 89.5569 109.36 89.6381C109.435 89.7192 109.493 89.8155 109.528 89.9204C109.563 90.0254 109.575 90.1366 109.564 90.2468C109.553 90.3569 109.518 90.4634 109.463 90.5591V90.5945C109.41 90.6894 109.338 90.7722 109.252 90.8378C109.166 90.9033 109.066 90.95 108.961 90.975C108.855 91 108.746 91.0027 108.639 90.9829C108.533 90.9631 108.431 90.9212 108.342 90.86Z" fill="black"/>
<path d="M120.856 90.86L119.451 89.7921L119.682 91.509C119.696 91.6192 119.686 91.7311 119.654 91.8373C119.622 91.9436 119.567 92.0418 119.494 92.1255C119.421 92.2091 119.331 92.2763 119.23 92.3226C119.129 92.3689 119.02 92.3932 118.909 92.394C118.798 92.3934 118.688 92.3691 118.588 92.3227C118.487 92.2764 118.397 92.2091 118.325 92.1253C118.252 92.0415 118.198 91.9432 118.167 91.8369C118.135 91.7306 118.126 91.6188 118.142 91.509L118.366 89.7921L116.968 90.86C116.88 90.927 116.779 90.9746 116.672 90.9997C116.564 91.0248 116.453 91.0268 116.345 91.0056C116.237 90.9844 116.134 90.9405 116.044 90.8768C115.954 90.813 115.879 90.7309 115.823 90.6358V90.6004C115.767 90.5047 115.733 90.3982 115.722 90.2881C115.71 90.1779 115.723 90.0667 115.758 89.9617C115.793 89.8568 115.85 89.7605 115.925 89.6794C116.001 89.5982 116.093 89.5341 116.195 89.4912L117.799 88.8186L116.195 88.1401C116.093 88.0972 116.001 88.0331 115.925 87.9519C115.85 87.8708 115.793 87.7745 115.758 87.6696C115.723 87.5646 115.71 87.4534 115.722 87.3432C115.733 87.2331 115.767 87.1266 115.823 87.0309V87.0014C115.878 86.9059 115.953 86.8232 116.043 86.7589C116.133 86.6945 116.235 86.65 116.343 86.6282C116.452 86.6065 116.563 86.608 116.671 86.6326C116.778 86.6573 116.88 86.7046 116.968 86.7713L118.366 87.8392L118.142 86.1223C118.126 86.0128 118.135 85.9012 118.166 85.7952C118.198 85.6893 118.252 85.5913 118.325 85.508C118.397 85.4246 118.487 85.3579 118.588 85.3122C118.689 85.2665 118.798 85.243 118.909 85.2432C119.019 85.2431 119.129 85.2667 119.23 85.3123C119.331 85.3579 119.421 85.4246 119.494 85.5078C119.567 85.591 119.622 85.6888 119.654 85.7948C119.686 85.9008 119.696 86.0124 119.682 86.1223L119.451 87.8392L120.856 86.7713C120.943 86.7047 121.044 86.6575 121.151 86.6329C121.258 86.6082 121.369 86.6068 121.477 86.6285C121.585 86.6503 121.687 86.6948 121.776 86.7591C121.865 86.8234 121.94 86.906 121.994 87.0014V87.0309C122.05 87.1266 122.084 87.2331 122.096 87.3432C122.107 87.4534 122.095 87.5646 122.059 87.6696C122.024 87.7745 121.967 87.8708 121.892 87.9519C121.816 88.0331 121.725 88.0972 121.623 88.1401L120.012 88.8186L121.623 89.4912C121.725 89.5341 121.816 89.5982 121.892 89.6794C121.967 89.7605 122.024 89.8568 122.059 89.9617C122.095 90.0667 122.107 90.1779 122.096 90.2881C122.084 90.3982 122.05 90.5047 121.994 90.6004V90.6358C121.939 90.7307 121.864 90.8127 121.775 90.8765C121.685 90.9402 121.583 90.9841 121.476 91.0053C121.368 91.0265 121.257 91.0245 121.15 90.9995C121.043 90.9744 120.943 90.9269 120.856 90.86Z" fill="black"/>
<path d="M133.34 90.86L131.942 89.7921L132.172 91.509C132.186 91.6192 132.177 91.7311 132.144 91.8373C132.112 91.9436 132.058 92.0418 131.985 92.1255C131.912 92.2091 131.822 92.2763 131.721 92.3226C131.62 92.3689 131.51 92.3932 131.399 92.394C131.288 92.3932 131.178 92.3689 131.077 92.3226C130.976 92.2763 130.886 92.2091 130.813 92.1255C130.74 92.0418 130.686 91.9436 130.653 91.8373C130.621 91.7311 130.612 91.6192 130.626 91.509L130.856 89.7921L129.481 90.86C129.394 90.927 129.293 90.9746 129.186 90.9997C129.078 91.0248 128.967 91.0268 128.859 91.0056C128.75 90.9844 128.648 90.9405 128.558 90.8768C128.468 90.813 128.393 90.7309 128.337 90.6358V90.6004C128.281 90.5047 128.247 90.3982 128.235 90.2881C128.224 90.1779 128.237 90.0667 128.272 89.9617C128.307 89.8568 128.364 89.7605 128.439 89.6794C128.515 89.5982 128.606 89.5341 128.708 89.4912L130.319 88.8186L128.708 88.1401C128.606 88.0972 128.515 88.0331 128.439 87.9519C128.364 87.8708 128.307 87.7745 128.272 87.6696C128.237 87.5646 128.224 87.4534 128.235 87.3432C128.247 87.2331 128.281 87.1266 128.337 87.0309V87.0014C128.392 86.9059 128.467 86.8232 128.557 86.7589C128.647 86.6945 128.749 86.65 128.857 86.6282C128.965 86.6065 129.077 86.608 129.185 86.6326C129.292 86.6573 129.393 86.7046 129.481 86.7713L130.88 87.8392L130.65 86.1223C130.635 86.0124 130.645 85.9008 130.677 85.7948C130.709 85.6888 130.764 85.591 130.837 85.5078C130.91 85.4246 131 85.3579 131.101 85.3123C131.202 85.2667 131.312 85.2431 131.422 85.2432C131.533 85.2431 131.643 85.2667 131.744 85.3123C131.845 85.3579 131.935 85.4246 132.008 85.5078C132.081 85.591 132.136 85.6888 132.168 85.7948C132.2 85.9008 132.21 86.0124 132.195 86.1223L131.965 87.8392L133.34 86.73C133.428 86.6633 133.529 86.616 133.637 86.5913C133.744 86.5667 133.856 86.5652 133.964 86.5869C134.072 86.6087 134.175 86.6532 134.265 86.7176C134.354 86.7819 134.429 86.8646 134.485 86.9601V86.9896C134.541 87.0847 134.577 87.1909 134.589 87.301C134.601 87.4111 134.59 87.5225 134.555 87.6277C134.52 87.7329 134.463 87.8294 134.388 87.9107C134.313 87.9919 134.221 88.0561 134.119 88.0988L132.508 88.7773L134.113 89.4499C134.215 89.4928 134.307 89.5569 134.382 89.6381C134.457 89.7192 134.514 89.8155 134.55 89.9204C134.585 90.0254 134.597 90.1366 134.586 90.2468C134.575 90.3569 134.54 90.4634 134.485 90.5591V90.5945C134.432 90.6929 134.36 90.7789 134.271 90.8467C134.183 90.9146 134.081 90.9627 133.973 90.9879C133.864 91.013 133.752 91.0146 133.643 90.9926C133.533 90.9705 133.43 90.9253 133.34 90.86Z" fill="black"/>
<path d="M145.878 90.86L144.473 89.7921L144.703 91.509C144.719 91.6188 144.71 91.7306 144.678 91.8369C144.647 91.9432 144.593 92.0415 144.52 92.1253C144.448 92.2091 144.358 92.2764 144.257 92.3227C144.157 92.3691 144.047 92.3934 143.936 92.394C143.825 92.3942 143.715 92.3705 143.614 92.3245C143.512 92.2786 143.422 92.2114 143.348 92.1275C143.275 92.0436 143.221 91.945 143.189 91.8383C143.157 91.7316 143.148 91.6193 143.163 91.509L143.394 89.7921L141.989 90.86C141.902 90.927 141.801 90.9746 141.694 90.9997C141.586 91.0248 141.475 91.0268 141.367 91.0056C141.258 90.9844 141.156 90.9405 141.066 90.8768C140.976 90.813 140.901 90.7309 140.845 90.6358V90.6004C140.789 90.5047 140.755 90.3982 140.743 90.2881C140.732 90.1779 140.745 90.0667 140.78 89.9617C140.815 89.8568 140.872 89.7605 140.947 89.6794C141.023 89.5982 141.114 89.5341 141.217 89.4912L142.827 88.8186L141.217 88.1401C141.114 88.0972 141.023 88.0331 140.947 87.9519C140.872 87.8708 140.815 87.7745 140.78 87.6696C140.745 87.5646 140.732 87.4534 140.743 87.3432C140.755 87.2331 140.789 87.1266 140.845 87.0309V87.0014C140.9 86.9059 140.975 86.8232 141.065 86.7589C141.155 86.6945 141.257 86.65 141.365 86.6282C141.473 86.6065 141.585 86.608 141.693 86.6326C141.8 86.6573 141.901 86.7046 141.989 86.7713L143.394 87.8392L143.163 86.1223C143.148 86.0123 143.157 85.9002 143.189 85.7938C143.221 85.6874 143.275 85.5892 143.349 85.5057C143.422 85.4223 143.512 85.3557 143.614 85.3104C143.715 85.2651 143.825 85.2421 143.936 85.2432C144.047 85.243 144.156 85.2665 144.257 85.3122C144.358 85.3579 144.448 85.4246 144.52 85.508C144.593 85.5913 144.647 85.6893 144.679 85.7953C144.71 85.9012 144.719 86.0128 144.703 86.1223L144.473 87.8392L145.878 86.7713C145.965 86.7046 146.067 86.6573 146.174 86.6326C146.282 86.608 146.393 86.6065 146.502 86.6282C146.61 86.65 146.712 86.6945 146.802 86.7589C146.892 86.8232 146.967 86.9059 147.022 87.0014V87.0309C147.078 87.1266 147.112 87.2331 147.123 87.3432C147.135 87.4534 147.122 87.5646 147.087 87.6696C147.052 87.7745 146.995 87.8708 146.92 87.9519C146.844 88.0331 146.752 88.0972 146.65 88.1401L145.046 88.8186L146.65 89.4912C146.752 89.5341 146.844 89.5982 146.92 89.6794C146.995 89.7605 147.052 89.8568 147.087 89.9617C147.122 90.0667 147.135 90.1779 147.123 90.2881C147.112 90.3982 147.078 90.5047 147.022 90.6004V90.6358C146.966 90.7309 146.891 90.813 146.801 90.8768C146.711 90.9405 146.608 90.9844 146.5 91.0056C146.392 91.0268 146.281 91.0248 146.173 90.9997C146.066 90.9746 145.965 90.927 145.878 90.86Z" fill="black"/>
<path d="M158.391 90.86L156.987 89.7921L157.217 91.509C157.231 91.6192 157.222 91.7311 157.19 91.8373C157.158 91.9436 157.103 92.0418 157.03 92.1255C156.957 92.2091 156.867 92.2763 156.766 92.3226C156.665 92.3689 156.555 92.3932 156.444 92.394C156.334 92.3934 156.224 92.3691 156.123 92.3227C156.023 92.2764 155.933 92.2091 155.86 92.1253C155.788 92.0415 155.734 91.9432 155.702 91.8369C155.671 91.7306 155.662 91.6188 155.677 91.509L155.902 89.7921L154.503 90.86C154.416 90.927 154.315 90.9746 154.208 90.9997C154.1 91.0248 153.989 91.0268 153.881 91.0056C153.772 90.9844 153.67 90.9405 153.58 90.8768C153.49 90.813 153.415 90.7309 153.359 90.6358V90.6004C153.303 90.5047 153.269 90.3982 153.257 90.2881C153.246 90.1779 153.258 90.0667 153.294 89.9617C153.329 89.8568 153.386 89.7605 153.461 89.6794C153.537 89.5982 153.628 89.5341 153.73 89.4912L155.335 88.8186L153.73 88.1401C153.628 88.0972 153.537 88.0331 153.461 87.9519C153.386 87.8708 153.329 87.7745 153.294 87.6696C153.258 87.5646 153.246 87.4534 153.257 87.3432C153.269 87.2331 153.303 87.1266 153.359 87.0309V87.0014C153.414 86.9059 153.489 86.8232 153.579 86.7589C153.668 86.6945 153.771 86.65 153.879 86.6282C153.987 86.6065 154.099 86.608 154.207 86.6326C154.314 86.6573 154.415 86.7046 154.503 86.7713L155.902 87.8392L155.677 86.1223C155.662 86.0128 155.671 85.9012 155.702 85.7952C155.734 85.6893 155.788 85.5913 155.861 85.508C155.933 85.4246 156.023 85.3579 156.124 85.3122C156.224 85.2665 156.334 85.243 156.444 85.2432C156.555 85.2431 156.665 85.2667 156.766 85.3123C156.867 85.3579 156.957 85.4246 157.03 85.5078C157.103 85.591 157.158 85.6888 157.19 85.7948C157.222 85.9008 157.232 86.0124 157.217 86.1223L156.987 87.8392L158.391 86.7713C158.479 86.7047 158.58 86.6575 158.687 86.6329C158.794 86.6082 158.905 86.6068 159.013 86.6285C159.121 86.6503 159.223 86.6948 159.312 86.7591C159.401 86.8234 159.475 86.906 159.53 87.0014V87.0309C159.586 87.1266 159.62 87.2331 159.631 87.3432C159.643 87.4534 159.63 87.5646 159.595 87.6696C159.56 87.7745 159.503 87.8708 159.427 87.9519C159.352 88.0331 159.26 88.0972 159.158 88.1401L157.548 88.8186L159.158 89.4912C159.26 89.5341 159.352 89.5982 159.427 89.6794C159.503 89.7605 159.56 89.8568 159.595 89.9617C159.63 90.0667 159.643 90.1779 159.631 90.2881C159.62 90.3982 159.586 90.5047 159.53 90.6004V90.6358C159.475 90.7307 159.4 90.8127 159.311 90.8765C159.221 90.9402 159.119 90.9841 159.011 91.0053C158.904 91.0265 158.793 91.0245 158.686 90.9995C158.579 90.9744 158.478 90.9269 158.391 90.86Z" fill="black"/>
<path d="M179.307 88.795C179.307 88.795 176.758 91.9751 173.613 91.9751C170.469 91.9751 167.926 88.795 167.926 88.795C167.926 88.795 170.469 85.609 173.613 85.609C176.758 85.609 179.307 88.795 179.307 88.795Z" fill="white" stroke="black" stroke-linecap="round" stroke-linejoin="round"/>
<path d="M175.572 88.795C175.572 89.1824 175.457 89.5611 175.242 89.8833C175.027 90.2054 174.721 90.4564 174.363 90.6047C174.005 90.753 173.611 90.7917 173.231 90.7162C172.851 90.6406 172.502 90.454 172.228 90.1801C171.954 89.9061 171.768 89.5571 171.692 89.1771C171.617 88.7972 171.655 88.4033 171.804 88.0454C171.952 87.6875 172.203 87.3816 172.525 87.1663C172.847 86.9511 173.226 86.8362 173.613 86.8362C174.133 86.8362 174.631 87.0426 174.998 87.4099C175.366 87.7773 175.572 88.2755 175.572 88.795Z" fill="#999999" stroke="black" stroke-linecap="round" stroke-linejoin="round"/>
<path d="M114.743 108.336H109.569C108.275 108.336 107.227 109.384 107.227 110.678V117.345C107.227 118.639 108.275 119.687 109.569 119.687H114.743C116.037 119.687 117.085 118.639 117.085 117.345V110.678C117.085 109.384 116.037 108.336 114.743 108.336Z" fill="#609966" stroke="black" stroke-linecap="round" stroke-linejoin="round"/>
<path d="M125.741 108.336H120.567C119.273 108.336 118.224 109.384 118.224 110.678V117.345C118.224 118.639 119.273 119.687 120.567 119.687H125.741C127.034 119.687 128.083 118.639 128.083 117.345V110.678C128.083 109.384 127.034 108.336 125.741 108.336Z" fill="#609966" stroke="black" stroke-linecap="round" stroke-linejoin="round"/>
<path d="M136.732 108.336H131.558C130.265 108.336 129.216 109.384 129.216 110.678V117.345C129.216 118.639 130.265 119.687 131.558 119.687H136.732C138.026 119.687 139.075 118.639 139.075 117.345V110.678C139.075 109.384 138.026 108.336 136.732 108.336Z" fill="#609966" stroke="black" stroke-linecap="round" stroke-linejoin="round"/>
<path d="M147.724 108.336H142.55C141.256 108.336 140.208 109.384 140.208 110.678V117.345C140.208 118.639 141.256 119.687 142.55 119.687H147.724C149.018 119.687 150.067 118.639 150.067 117.345V110.678C150.067 109.384 149.018 108.336 147.724 108.336Z" fill="#609966" stroke="black" stroke-linecap="round" stroke-linejoin="round"/>
<path d="M158.722 108.336H153.548C152.254 108.336 151.205 109.384 151.205 110.678V117.345C151.205 118.639 152.254 119.687 153.548 119.687H158.722C160.015 119.687 161.064 118.639 161.064 117.345V110.678C161.064 109.384 160.015 108.336 158.722 108.336Z" fill="#609966" stroke="black" stroke-linecap="round" stroke-linejoin="round"/>
<path d="M169.713 108.336H164.539C163.246 108.336 162.197 109.384 162.197 110.678V117.345C162.197 118.639 163.246 119.687 164.539 119.687H169.713C171.007 119.687 172.056 118.639 172.056 117.345V110.678C172.056 109.384 171.007 108.336 169.713 108.336Z" fill="#609966" stroke="black" stroke-linecap="round" stroke-linejoin="round"/>
<path d="M120.242 121.493H115.068C113.774 121.493 112.725 122.541 112.725 123.835V130.502C112.725 131.796 113.774 132.844 115.068 132.844H120.242C121.536 132.844 122.584 131.796 122.584 130.502V123.835C122.584 122.541 121.536 121.493 120.242 121.493Z" fill="#609966" stroke="black" stroke-linecap="round" stroke-linejoin="round"/>
<path d="M131.234 121.493H126.059C124.766 121.493 123.717 122.541 123.717 123.835V130.502C123.717 131.796 124.766 132.844 126.059 132.844H131.234C132.527 132.844 133.576 131.796 133.576 130.502V123.835C133.576 122.541 132.527 121.493 131.234 121.493Z" fill="#609966" stroke="black" stroke-linecap="round" stroke-linejoin="round"/>
<path d="M142.231 121.493H137.057C135.763 121.493 134.715 122.541 134.715 123.835V130.502C134.715 131.796 135.763 132.844 137.057 132.844H142.231C143.525 132.844 144.574 131.796 144.574 130.502V123.835C144.574 122.541 143.525 121.493 142.231 121.493Z" fill="#609966" stroke="black" stroke-linecap="round" stroke-linejoin="round"/>
<path d="M153.223 121.493H148.049C146.755 121.493 145.706 122.541 145.706 123.835V130.502C145.706 131.796 146.755 132.844 148.049 132.844H153.223C154.517 132.844 155.565 131.796 155.565 130.502V123.835C155.565 122.541 154.517 121.493 153.223 121.493Z" fill="#609966" stroke="black" stroke-linecap="round" stroke-linejoin="round"/>
<path d="M164.215 121.493H159.04C157.747 121.493 156.698 122.541 156.698 123.835V130.502C156.698 131.796 157.747 132.844 159.04 132.844H164.215C165.508 132.844 166.557 131.796 166.557 130.502V123.835C166.557 122.541 165.508 121.493 164.215 121.493Z" fill="#609966" stroke="black" stroke-linecap="round" stroke-linejoin="round"/>
<path d="M114.743 134.65H109.569C108.275 134.65 107.227 135.698 107.227 136.992V143.659C107.227 144.953 108.275 146.001 109.569 146.001H114.743C116.037 146.001 117.085 144.953 117.085 143.659V136.992C117.085 135.698 116.037 134.65 114.743 134.65Z" fill="#609966" stroke="black" stroke-linecap="round" stroke-linejoin="round"/>
<path d="M125.741 134.65H120.567C119.273 134.65 118.224 135.698 118.224 136.992V143.659C118.224 144.953 119.273 146.001 120.567 146.001H125.741C127.034 146.001 128.083 144.953 128.083 143.659V136.992C128.083 135.698 127.034 134.65 125.741 134.65Z" fill="#609966" stroke="black" stroke-linecap="round" stroke-linejoin="round"/>
<path d="M136.732 134.65H131.558C130.265 134.65 129.216 135.698 129.216 136.992V143.659C129.216 144.953 130.265 146.001 131.558 146.001H136.732C138.026 146.001 139.075 144.953 139.075 143.659V136.992C139.075 135.698 138.026 134.65 136.732 134.65Z" fill="#609966" stroke="black" stroke-linecap="round" stroke-linejoin="round"/>
<path d="M147.724 134.65H142.55C141.256 134.65 140.208 135.698 140.208 136.992V143.659C140.208 144.953 141.256 146.001 142.55 146.001H147.724C149.018 146.001 150.067 144.953 150.067 143.659V136.992C150.067 135.698 149.018 134.65 147.724 134.65Z" fill="#609966" stroke="black" stroke-linecap="round" stroke-linejoin="round"/>
<path d="M158.722 134.65H153.548C152.254 134.65 151.205 135.698 151.205 136.992V143.659C151.205 144.953 152.254 146.001 153.548 146.001H158.722C160.015 146.001 161.064 144.953 161.064 143.659V136.992C161.064 135.698 160.015 134.65 158.722 134.65Z" fill="#609966" stroke="black" stroke-linecap="round" stroke-linejoin="round"/>
<path d="M169.713 134.65H164.539C163.246 134.65 162.197 135.698 162.197 136.992V143.659C162.197 144.953 163.246 146.001 164.539 146.001H169.713C171.007 146.001 172.056 144.953 172.056 143.659V136.992C172.056 135.698 171.007 134.65 169.713 134.65Z" fill="#609966" stroke="black" stroke-linecap="round" stroke-linejoin="round"/>
<path d="M120.242 147.807H115.068C113.774 147.807 112.725 148.855 112.725 150.149V156.816C112.725 158.11 113.774 159.158 115.068 159.158H120.242C121.536 159.158 122.584 158.11 122.584 156.816V150.149C122.584 148.855 121.536 147.807 120.242 147.807Z" fill="#609966" stroke="black" stroke-linecap="round" stroke-linejoin="round"/>
<path d="M131.234 147.807H126.059C124.766 147.807 123.717 148.855 123.717 150.149V156.816C123.717 158.11 124.766 159.158 126.059 159.158H131.234C132.527 159.158 133.576 158.11 133.576 156.816V150.149C133.576 148.855 132.527 147.807 131.234 147.807Z" fill="#609966" stroke="black" stroke-linecap="round" stroke-linejoin="round"/>
<path d="M142.231 147.807H137.057C135.763 147.807 134.715 148.855 134.715 150.149V156.816C134.715 158.11 135.763 159.158 137.057 159.158H142.231C143.525 159.158 144.574 158.11 144.574 156.816V150.149C144.574 148.855 143.525 147.807 142.231 147.807Z" fill="#609966" stroke="black" stroke-linecap="round" stroke-linejoin="round"/>
<path d="M153.223 147.807H148.049C146.755 147.807 145.706 148.855 145.706 150.149V156.816C145.706 158.11 146.755 159.158 148.049 159.158H153.223C154.517 159.158 155.565 158.11 155.565 156.816V150.149C155.565 148.855 154.517 147.807 153.223 147.807Z" fill="#609966" stroke="black" stroke-linecap="round" stroke-linejoin="round"/>
<path d="M164.215 147.807H159.04C157.747 147.807 156.698 148.855 156.698 150.149V156.816C156.698 158.11 157.747 159.158 159.04 159.158H164.215C165.508 159.158 166.557 158.11 166.557 156.816V150.149C166.557 148.855 165.508 147.807 164.215 147.807Z" fill="#609966" stroke="black" stroke-linecap="round" stroke-linejoin="round"/>
<path d="M154.012 63.3058C158.269 55.2881 155.221 45.3368 147.204 41.0791C139.186 36.8214 129.235 39.8695 124.977 47.8872C120.719 55.9049 123.767 65.8562 131.785 70.1139C139.803 74.3716 149.754 71.3235 154.012 63.3058Z" fill="white" stroke="black" stroke-linecap="round" stroke-linejoin="round"/>
<path d="M139.494 72.0272C143.086 72.0348 146.581 70.8568 149.435 68.676C145.582 67.2459 141.509 66.503 137.399 66.4812C134.456 66.5038 131.538 67.0327 128.773 68.0447C131.753 70.6167 135.558 72.0304 139.494 72.0272Z" fill="#609966" stroke="black" stroke-linecap="round" stroke-linejoin="round"/>
<path d="M135.069 62.9235C135.069 62.9235 134.927 57.5663 133.423 53.6487C131.918 49.7311 131.063 43.9432 136.803 43.1408C142.544 42.3384 144.816 43.2883 148.102 43.0287C154.415 42.539 147.459 49.7901 147.459 49.7901L139.004 53.1C139.004 53.1 136.072 63.1831 135.069 62.9235Z" fill="black" stroke="black" stroke-linecap="round" stroke-linejoin="round"/>
<path d="M134.685 64.4811L136.178 58.41L140.308 59.6608L141.553 64.605C141.669 65.0781 141.888 65.5199 142.194 65.8991C142.5 66.2784 142.885 66.5858 143.323 66.7998C143.946 67.0891 144.538 67.4388 145.093 67.8441C145.093 67.8441 140.172 74.1512 130.726 67.8441C131.351 67.389 132.029 67.0107 132.744 66.7172C133.221 66.5244 133.646 66.2212 133.983 65.8325C134.321 65.4438 134.561 64.9807 134.685 64.4811Z" fill="white"/>
<mask id="mask3_206_252" style="mask-type:luminance" maskUnits="userSpaceOnUse" x="130" y="58" width="16" height="13">
<path d="M134.685 64.4811L136.178 58.41L140.308 59.6608L141.553 64.605C141.669 65.0781 141.888 65.5199 142.194 65.8991C142.5 66.2784 142.885 66.5858 143.323 66.7998C143.946 67.0891 144.538 67.4388 145.093 67.8441C145.093 67.8441 140.172 74.1512 130.726 67.8441C131.351 67.389 132.029 67.0107 132.744 66.7172C133.221 66.5244 133.646 66.2212 133.983 65.8325C134.321 65.4438 134.561 64.9807 134.685 64.4811Z" fill="white"/>
</mask>
<g mask="url(#mask3_206_252)">
<path d="M147.588 49.9789L148.131 53.5956C148.186 53.9774 148.153 54.3666 148.037 54.7343L147.724 55.7196L147.907 58.0796C147.916 58.2014 147.916 58.3236 147.907 58.4454C147.824 59.6254 147.24 65.4192 143.777 65.6847C140.691 65.9207 137.612 62.7347 136.52 61.2243C136.247 60.8477 136.047 60.4235 135.93 59.9735L135.464 58.1386C135.024 58.1356 134.597 57.9936 134.243 57.7329C133.889 57.4722 133.627 57.1061 133.493 56.6872C133.027 55.2063 132.254 54.2505 133.753 53.513C135.252 52.7755 135.771 54.87 135.771 54.87C135.771 54.87 136.16 52.4333 136.573 51.7371C136.986 51.0409 138.261 50.3801 138.65 49.7842C138.87 49.3112 139.048 48.8195 139.181 48.3151C139.181 48.3151 143.742 49.1942 147.205 48.4921L147.588 49.9789Z" fill="black" stroke="black" stroke-linecap="round" stroke-linejoin="round"/>
</g>
<path d="M134.685 64.4811L136.178 58.41L140.308 59.6608L141.553 64.605C141.669 65.0781 141.888 65.5199 142.194 65.8991C142.5 66.2784 142.885 66.5858 143.323 66.7998C143.946 67.0891 144.538 67.4388 145.093 67.8441C145.093 67.8441 140.172 74.1512 130.726 67.8441C131.351 67.389 132.029 67.0107 132.744 66.7172C133.221 66.5244 133.646 66.2212 133.983 65.8325C134.321 65.4438 134.561 64.9807 134.685 64.4811Z" stroke="black" stroke-linecap="round" stroke-linejoin="round"/>
<path d="M147.588 49.3358L148.131 52.9525C148.185 53.3344 148.153 53.7235 148.037 54.0912L147.724 55.0765L147.907 57.4365C147.916 57.5602 147.916 57.6845 147.907 57.8082C147.825 58.9882 147.24 64.782 143.777 65.0475C140.691 65.2835 137.612 62.0975 136.52 60.5871C136.248 60.2098 136.048 59.7859 135.93 59.3363L135.464 57.5014C135.022 57.5009 134.592 57.36 134.236 57.0992C133.88 56.8383 133.615 56.4709 133.482 56.05C133.016 54.5691 132.243 53.6133 133.741 52.8758C135.24 52.1383 135.771 54.221 135.771 54.221C135.771 54.221 136.16 51.7843 136.573 51.0881C136.986 50.3919 138.261 49.7311 138.65 49.1352C138.87 48.6622 139.048 48.1706 139.181 47.6661C139.181 47.6661 143.742 48.5452 147.205 47.8431L147.588 49.3358Z" fill="white" stroke="black" stroke-linecap="round" stroke-linejoin="round"/>
<path d="M145.14 55.3715L146.273 58.1091C146.314 58.1982 146.332 58.2962 146.326 58.3942C146.32 58.4922 146.289 58.5871 146.237 58.6703C146.185 58.7535 146.113 58.8224 146.028 58.8707C145.942 58.919 145.846 58.9452 145.748 58.9469L144.338 59.0413" stroke="black" stroke-width="0.75" stroke-linecap="round" stroke-linejoin="round"/>
<path d="M141.63 60.062C141.743 60.2951 141.906 60.5006 142.107 60.6637C142.309 60.8269 142.543 60.9439 142.795 61.0063C143.047 61.0688 143.309 61.0753 143.563 61.0252C143.817 60.9752 144.058 60.87 144.267 60.7169" stroke="black" stroke-width="0.75" stroke-linecap="round" stroke-linejoin="round"/>
<path d="M141.6 45.017C135.488 44.3208 134.361 46.7339 134.361 46.7339" stroke="#7F7F7F" stroke-width="0.75" stroke-linecap="round" stroke-linejoin="round"/>
<path d="M148.308 44.3503C146.554 44.789 144.754 45.0207 142.945 45.0406" stroke="#7F7F7F" stroke-width="0.75" stroke-linecap="round" stroke-linejoin="round"/>
<path d="M142.78 46.7752C144.521 46.7752 148.037 46.4507 149.441 44.8459" stroke="#7F7F7F" stroke-width="0.75" stroke-linecap="round" stroke-linejoin="round"/>
<path d="M140.208 46.4802C140.659 46.5834 141.116 46.6583 141.576 46.7044" stroke="#7F7F7F" stroke-width="0.75" stroke-linecap="round" stroke-linejoin="round"/>
<path d="M142.686 54.9762C142.686 55.4482 142.497 55.8258 142.261 55.8258C142.025 55.8258 141.836 55.4482 141.836 54.9762C141.836 54.5042 142.031 54.1266 142.261 54.1266C142.491 54.1266 142.686 54.5101 142.686 54.9762Z" fill="black"/>
<path d="M146.686 54.87C146.686 55.2771 146.521 55.6075 146.32 55.6075C146.119 55.6075 145.948 55.2771 145.948 54.87C145.948 54.4629 146.114 54.1325 146.32 54.1325C146.527 54.1325 146.686 54.457 146.686 54.87Z" fill="black"/>
<path d="M140.874 53.7254C140.874 53.7254 141.382 52.2091 142.261 52.2504C142.532 52.2761 142.792 52.371 143.016 52.5259C143.241 52.6808 143.421 52.8907 143.541 53.1354" stroke="black" stroke-width="0.75" stroke-linecap="round" stroke-linejoin="round"/>
<path d="M146.963 53.1C146.798 52.6929 146.544 52.2327 146.208 52.2563C145.618 52.2917 145.329 53.1413 145.329 53.1413" stroke="black" stroke-width="0.75" stroke-linecap="round" stroke-linejoin="round"/>
<path d="M55.5131 124.738C56.6931 121.87 53.808 113.197 52.5159 109.64C52.4408 109.434 52.3164 109.25 52.1535 109.103C51.9906 108.957 51.7943 108.852 51.5817 108.799C51.3692 108.746 51.1469 108.746 50.9343 108.799C50.7217 108.852 50.5253 108.956 50.3624 109.103C49.1824 110.147 47.7723 112.177 47.5363 115.941C47.5363 115.941 38.5329 131.794 38.5329 139.028C38.5329 145.807 51.9377 159.925 51.9377 159.925C53.4491 159.456 54.7266 158.431 55.5131 157.058C55.5131 157.058 50.504 144.668 46.6159 139.358C46.61 139.364 54.1856 127.912 55.5131 124.738Z" fill="black"/>
<mask id="mask4_206_252" style="mask-type:luminance" maskUnits="userSpaceOnUse" x="38" y="108" width="18" height="52">
<path d="M55.5131 124.738C56.6931 121.87 53.808 113.197 52.5159 109.64C52.4408 109.434 52.3164 109.25 52.1535 109.103C51.9906 108.957 51.7943 108.852 51.5817 108.799C51.3692 108.746 51.1469 108.746 50.9343 108.799C50.7217 108.852 50.5253 108.956 50.3624 109.103C49.1824 110.147 47.7723 112.177 47.5363 115.941C47.5363 115.941 38.5329 131.794 38.5329 139.028C38.5329 145.807 51.9377 159.925 51.9377 159.925C53.4491 159.456 54.7266 158.431 55.5131 157.058C55.5131 157.058 50.504 144.668 46.6159 139.358C46.61 139.364 54.1856 127.912 55.5131 124.738Z" fill="white"/>
</mask>
<g mask="url(#mask4_206_252)">
<path opacity="0.2" d="M54.0086 129.375C54.0086 129.375 49.7193 120.236 48.1086 121.056C46.4979 121.876 42.3207 137.287 43.9196 139.742C45.5185 142.196 54.2387 159.524 56.4217 159.176C58.6047 158.828 54.0086 129.375 54.0086 129.375Z" fill="black"/>
</g>
<path d="M55.5131 124.738C56.6931 121.87 53.808 113.197 52.5159 109.64C52.4408 109.434 52.3164 109.25 52.1535 109.103C51.9906 108.957 51.7943 108.852 51.5817 108.799C51.3692 108.746 51.1469 108.746 50.9343 108.799C50.7217 108.852 50.5253 108.956 50.3624 109.103C49.1824 110.147 47.7723 112.177 47.5363 115.941C47.5363 115.941 38.5329 131.794 38.5329 139.028C38.5329 145.807 51.9377 159.925 51.9377 159.925C53.4491 159.456 54.7266 158.431 55.5131 157.058C55.5131 157.058 50.504 144.668 46.6159 139.358C46.61 139.364 54.1856 127.912 55.5131 124.738Z" stroke="black" stroke-linecap="round" stroke-linejoin="round"/>
<path d="M54.3744 155.937L56.3981 159.176C56.3981 159.176 62.6993 161.147 63.3542 163.229C64.0091 165.312 60.7818 168.215 58.8643 167.631C56.9468 167.047 53.8198 161.265 53.8198 161.265L51.271 158.315L54.3744 155.937Z" fill="white" stroke="black" stroke-linecap="round" stroke-linejoin="round"/>
<path d="M50.4037 159.105L51.7666 160.675C53.6832 160.139 55.3216 158.889 56.345 157.182L55.519 155.217C55.519 155.217 54.3567 157.943 50.4037 159.105Z" fill="white" stroke="black" stroke-linecap="round" stroke-linejoin="round"/>
<path d="M58.4808 245.942L56.7108 253.287C56.652 253.533 56.6497 253.789 56.7041 254.036C56.7585 254.284 56.8681 254.515 57.0248 254.714C57.1815 254.913 57.3811 255.073 57.6088 255.184C57.8364 255.294 58.0861 255.352 58.3392 255.352H68.676C68.9208 255.352 69.1627 255.299 69.3847 255.196C69.6068 255.092 69.8036 254.942 69.9615 254.755C70.1194 254.568 70.2345 254.348 70.2988 254.112C70.3632 253.876 70.3751 253.629 70.3339 253.387C70.2539 252.835 70.0594 252.306 69.7627 251.833C69.466 251.361 69.0737 250.956 68.6111 250.644C66.2511 249.11 65.1301 244.307 65.1301 244.307L58.4808 245.942Z" fill="black" stroke="black" stroke-linecap="round" stroke-linejoin="round"/>
<path d="M83.9511 247.169C83.9511 247.169 82.2814 249.57 82.01 253.853C82.0012 254.047 82.0318 254.24 82.0999 254.422C82.168 254.603 82.2723 254.769 82.4063 254.909C82.5403 255.049 82.7013 255.161 82.8796 255.237C83.0579 255.313 83.2498 255.352 83.4437 255.352H101.775C102.133 255.354 102.482 255.244 102.775 255.039C103.068 254.833 103.289 254.541 103.408 254.204C103.528 253.867 103.539 253.501 103.441 253.157C103.343 252.812 103.14 252.508 102.861 252.284C102.08 251.704 101.156 251.348 100.188 251.257C95.6921 250.667 91.7096 248.602 90.9898 245.947L83.9511 247.169Z" fill="black" stroke="black" stroke-linecap="round" stroke-linejoin="round"/>
<path d="M55.5131 157.058C55.5131 157.058 53.4363 165.648 54.2564 184.198L54.7874 205.202C54.7874 205.202 51.802 219.952 57.5309 246.655C57.5309 246.655 59.3009 250.608 66.434 245.664L67.26 204.925L74.7235 159.925L55.5131 157.058Z" fill="#999999"/>
<mask id="mask5_206_252" style="mask-type:luminance" maskUnits="userSpaceOnUse" x="54" y="157" width="21" height="92">
<path d="M55.5131 157.058C55.5131 157.058 53.4363 165.648 54.2564 184.198L54.7874 205.202C54.7874 205.202 51.802 219.952 57.5309 246.655C57.5309 246.655 59.3009 250.608 66.434 245.664L67.26 204.925L74.7235 159.925L55.5131 157.058Z" fill="white"/>
</mask>
<g mask="url(#mask5_206_252)">
<path opacity="0.2" d="M70.3575 176.015C70.3575 176.015 67.3131 188.151 66.0859 195.243C64.8587 202.335 57.5604 201.792 56.6813 206.453C55.8022 211.114 64.3513 205.633 63.5194 222.383C62.6875 239.133 59.6962 248.29 64.3926 248.154C69.089 248.018 69.2247 234.82 69.2247 234.82L72.0862 194.594V189.001L72.7706 178.381L70.3575 176.015Z" fill="black"/>
</g>
<path d="M55.5131 157.058C55.5131 157.058 53.4363 165.648 54.2564 184.198L54.7874 205.202C54.7874 205.202 51.802 219.952 57.5309 246.655C57.5309 246.655 59.3009 250.608 66.434 245.664L67.26 204.925L74.7235 159.925L55.5131 157.058Z" stroke="black" stroke-linecap="round" stroke-linejoin="round"/>
<path d="M56.6813 209.757C56.3639 210.177 56.0704 210.614 55.8022 211.067" stroke="black" stroke-linecap="round" stroke-linejoin="round"/>
<path d="M57.053 205.131C57.053 205.131 63.897 203.497 64.3631 205.131C64.7643 206.553 61.065 204.883 57.4129 208.872" stroke="black" stroke-linecap="round" stroke-linejoin="round"/>
<path d="M68.9179 178.965C74.2279 187.537 81.7032 204.406 81.7032 204.406C81.7032 204.406 80.5763 206.358 81.7032 209.633C81.7032 209.633 78.7532 221.026 83.0307 248.266C83.0307 248.266 86.7123 250.626 92.0341 246.496C92.0341 246.496 94.6891 205.55 93.6684 200.028C92.6477 194.505 83.0484 158.032 83.0484 158.032H61.95" fill="#999999"/>
<mask id="mask6_206_252" style="mask-type:luminance" maskUnits="userSpaceOnUse" x="61" y="158" width="33" height="91">
<path d="M68.9179 178.965C74.2279 187.537 81.7032 204.406 81.7032 204.406C81.7032 204.406 80.5763 206.358 81.7032 209.633C81.7032 209.633 78.7532 221.026 83.0307 248.266C83.0307 248.266 86.7123 250.626 92.0341 246.496C92.0341 246.496 94.6891 205.55 93.6684 200.028C92.6477 194.505 83.0484 158.032 83.0484 158.032H61.95" fill="white"/>
</mask>
<g mask="url(#mask6_206_252)">
<path opacity="0.2" d="M67.7202 179.561C67.7202 179.561 70.9357 181.195 77.1012 179.561C83.2667 177.926 78.1573 184.871 80.1987 192.446C82.2401 200.022 87.9749 203.497 87.0545 206.766C86.1341 210.034 83.4083 210.86 82.8242 219.657C82.2401 228.454 89.9573 244.703 86.9188 248.03C83.8803 251.358 76.5171 243.487 76.5171 243.487L70.3575 201.78L67.7202 179.561Z" fill="black"/>
</g>
<path d="M68.9179 178.965C74.2279 187.537 81.7032 204.406 81.7032 204.406C81.7032 204.406 80.5763 206.358 81.7032 209.633C81.7032 209.633 78.7532 221.026 83.0307 248.266C83.0307 248.266 86.7123 250.626 92.0341 246.496C92.0341 246.496 94.6891 205.55 93.6684 200.028C92.6477 194.505 83.0484 158.032 83.0484 158.032H61.95" stroke="black" stroke-linecap="round" stroke-linejoin="round"/>
<path d="M85.609 205.851C88.0339 205.485 91.1314 205.261 91.0075 206.358C90.8069 208.199 86.4822 206.329 83.8508 209.426" stroke="black" stroke-linecap="round" stroke-linejoin="round"/>
<path d="M82.8242 206.358C82.8242 206.358 83.249 206.264 83.9039 206.14" stroke="black" stroke-linecap="round" stroke-linejoin="round"/>
<path d="M99.71 100.135L100.093 96.2408C100.093 96.2408 99.3265 92.1875 99.71 90.8128C100.093 89.4381 103.456 80.7238 104.524 81.1073C105.592 81.4908 102.92 86.2285 102.996 87.5973C102.996 87.5973 104.418 87.674 104.766 88.5885C104.766 88.5885 106.117 88.8186 106.194 90.0399C106.524 90.2504 106.79 90.5466 106.965 90.8968C107.14 91.247 107.216 91.6381 107.185 92.0282C107.038 93.3262 104.436 96.8426 104.436 96.8426L104.589 101.887L99.71 100.135Z" fill="white" stroke="black" stroke-linecap="round" stroke-linejoin="round"/>
<path d="M77.0894 93.5563C77.0894 93.5563 75.5849 90.6063 75.3666 89.4971C75.2073 88.7242 75.5259 87.1371 75.3666 86.3583C75.0008 84.5588 72.4815 79.6087 72.4815 79.6087C72.3804 79.3959 72.2259 79.213 72.0331 79.0777L70.5581 80.8949H66.5579L60.4455 88.9661L63.4545 96.2113L62.5754 97.2556C63.1123 97.7866 63.4545 98.0934 63.4545 98.0934L62.5754 103.35L71.1894 104.223L71.39 100.89H74.0096C74.3632 100.89 74.7024 100.75 74.9525 100.499C75.2025 100.249 75.343 99.9102 75.343 99.5566V94.99L76.523 94.6478C76.6369 94.6214 76.7437 94.5706 76.836 94.4989C76.9284 94.4273 77.0041 94.3364 77.0579 94.2327C77.1118 94.1289 77.1425 94.0147 77.1479 93.8979C77.1533 93.7812 77.1334 93.6646 77.0894 93.5563Z" fill="white" stroke="black" stroke-linecap="round" stroke-linejoin="round"/>
<path d="M56.2565 90.9308C59.7257 96.0402 63.4545 98.0934 63.4545 98.0934L64.9236 94.4413C64.9236 94.4413 61.9736 94.1286 62.4161 91.2612C63.1064 87.0309 66.5461 90.8364 66.5461 90.8364L67.2895 87.5678C67.2895 87.5678 69.1244 85.5972 68.9946 84.9069C68.8963 84.4055 68.7663 83.9109 68.6052 83.426C68.6052 83.426 75.2427 77.1071 74.5406 73.5848C74.5406 73.5848 69.0123 74.7058 62.4161 75.9448C54.3862 77.3962 52.3389 85.1724 56.2565 90.9308Z" fill="black" stroke="black" stroke-linecap="round" stroke-linejoin="round"/>
<path d="M74.0332 100.89C74.0332 100.89 69.4135 100.105 67.6494 97.94C65.8853 95.7747 67.2895 98.0934 68.1155 99.4209C69.8855 102.259 71.39 100.89 74.0332 100.89Z" fill="black"/>
<path d="M71.1894 94.2466C71.508 94.6074 71.9101 94.8847 72.3606 95.0544C72.811 95.2241 73.2961 95.281 73.7736 95.2201" stroke="black" stroke-width="0.75" stroke-linecap="round" stroke-linejoin="round"/>
<path d="M74.5524 88.6003C74.5524 89.0133 74.399 89.3437 74.2043 89.3437C74.0096 89.3437 73.8621 89.0133 73.8621 88.6003C73.8621 88.1873 74.0155 87.8569 74.2043 87.8569C74.3931 87.8569 74.5524 88.1932 74.5524 88.6003Z" fill="black"/>
<path d="M74.4875 86.4291C74.0097 86.3243 73.5102 86.3925 73.0781 86.6216C72.6459 86.8506 72.309 87.2257 72.1275 87.6799" stroke="black" stroke-width="0.75" stroke-linecap="round" stroke-linejoin="round"/>
<path d="M58.0737 105.645C58.0737 105.645 58.0737 101.61 65.0298 102.235C73.4845 103.002 76.8947 107.333 76.8947 107.333L58.0737 105.645Z" fill="white" stroke="black" stroke-linecap="round" stroke-linejoin="round"/>
<path d="M71.7145 104.92C76.9832 105.51 86.1695 106.778 85.6208 120.944C85.0721 135.11 83.0307 158.02 83.0307 158.02C83.0307 158.02 56.6813 169.277 53.69 158.834C53.69 158.834 55.0588 147.034 50.6928 128.667C46.3268 110.301 48.3033 102.365 71.7145 104.92Z" fill="black"/>
<mask id="mask7_206_252" style="mask-type:luminance" maskUnits="userSpaceOnUse" x="48" y="104" width="38" height="60">
<path d="M71.7145 104.92C76.9832 105.51 86.1695 106.778 85.6208 120.944C85.0721 135.11 83.0307 158.02 83.0307 158.02C83.0307 158.02 56.6813 169.277 53.69 158.834C53.69 158.834 55.0588 147.034 50.6928 128.667C46.3268 110.301 48.3033 102.365 71.7145 104.92Z" fill="white"/>
</mask>
<g mask="url(#mask7_206_252)">
<path opacity="0.2" d="M86.9542 144.65C86.9542 144.65 83.5145 145.476 72.9771 139.741C56.4571 130.732 54.6045 117.51 49.9671 119.682C45.3297 121.853 54.5514 164.492 54.5514 164.492L71.6614 165.566H87.5206L86.9542 144.65Z" fill="black"/>
</g>
<path d="M71.7145 104.92C76.9832 105.51 86.1695 106.778 85.6208 120.944C85.0721 135.11 83.0307 158.02 83.0307 158.02C83.0307 158.02 56.6813 169.277 53.69 158.834C53.69 158.834 55.0588 147.034 50.6928 128.667C46.3268 110.301 48.3033 102.365 71.7145 104.92Z" stroke="black" stroke-linecap="round" stroke-linejoin="round"/>
<path d="M41.3 138.768C41.005 138.839 40.6923 138.927 40.3619 139.033" stroke="#535353" stroke-width="0.75" stroke-linecap="round" stroke-linejoin="round"/>
<path d="M45.6542 139.033C45.6542 139.033 44.545 138.243 42.1142 138.609" stroke="#535353" stroke-width="0.75" stroke-linecap="round" stroke-linejoin="round"/>
<path d="M73.75 105.179C73.75 105.179 82.8773 105.238 86.966 107.693C86.966 107.693 94.1935 106.465 97.0609 107.693L99.651 98.0108C99.651 98.0108 103.061 96.3706 104.695 98.825C104.695 98.825 105.923 113.575 103.881 114.785C101.84 115.994 85.6267 119.693 85.6267 119.693C85.6267 119.693 75.2722 116.578 73.75 105.179Z" fill="black"/>
<mask id="mask8_206_252" style="mask-type:luminance" maskUnits="userSpaceOnUse" x="73" y="97" width="33" height="23">
<path d="M73.75 105.179C73.75 105.179 82.8773 105.238 86.966 107.693C86.966 107.693 94.1935 106.465 97.0609 107.693L99.651 98.0108C99.651 98.0108 103.061 96.3706 104.695 98.825C104.695 98.825 105.923 113.575 103.881 114.785C101.84 115.994 85.6267 119.693 85.6267 119.693C85.6267 119.693 75.2722 116.578 73.75 105.179Z" fill="white"/>
</mask>
<g mask="url(#mask8_206_252)">
<path opacity="0.2" d="M85.55 117.192C85.55 117.192 85.0721 113.398 92.04 113.888C99.0079 114.377 104.43 114.513 105.12 111.239C105.811 107.964 113.451 102.3 111.02 112.902L108.56 123.522L93.9044 124.49L85.55 117.192Z" fill="black"/>
</g>
<path d="M73.75 105.179C73.75 105.179 82.8773 105.238 86.966 107.693C86.966 107.693 94.1935 106.465 97.0609 107.693L99.651 98.0108C99.651 98.0108 103.061 96.3706 104.695 98.825C104.695 98.825 105.923 113.575 103.881 114.785C101.84 115.994 85.6267 119.693 85.6267 119.693C85.6267 119.693 75.2722 116.578 73.75 105.179Z" stroke="black" stroke-linecap="round" stroke-linejoin="round"/>
<path d="M98.7542 108.418C99.5422 109.061 100.22 109.828 100.76 110.69" stroke="#535353" stroke-width="0.75" stroke-linecap="round" stroke-linejoin="round"/>
<path d="M97.2792 107.787C97.5014 107.786 97.721 107.835 97.9223 107.929" stroke="#535353" stroke-width="0.75" stroke-linecap="round" stroke-linejoin="round"/>
<path d="M50.4981 124.49C50.1795 121.434 49.3181 115.823 49.6544 111.941" stroke="#535353" stroke-width="0.75" stroke-linecap="round" stroke-linejoin="round"/>
<path d="M48.085 117.192C48.085 117.192 49.678 126.632 50.445 126.632" stroke="#535353" stroke-width="0.75" stroke-linecap="round" stroke-linejoin="round"/>
<path d="M53.8139 152.249V157.548" stroke="#535353" stroke-width="0.75" stroke-linecap="round" stroke-linejoin="round"/>
<path d="M62.8055 165.578C62.8055 165.578 63.661 171.566 66.2924 175.265Z" fill="#999999"/>
<path d="M62.8055 165.578C62.8055 165.578 63.661 171.566 66.2924 175.265" stroke="black" stroke-linecap="round" stroke-linejoin="round"/>
<path d="M98.9076 96.8957L98.3176 99.0905C98.3176 99.0905 102.306 98.1465 105.834 100.04L105.474 97.4739C105.474 97.4739 103.191 95.7688 98.9076 96.8957Z" fill="white" stroke="black" stroke-linecap="round" stroke-linejoin="round"/>
<path d="M77.1189 153.477C74.2456 154.751 68.5462 155.872 57.3539 154.769" stroke="#535353" stroke-width="0.75" stroke-linecap="round" stroke-linejoin="round"/>
<path d="M79.9981 151.129C79.7534 151.671 79.3608 152.133 78.8653 152.462" stroke="#535353" stroke-width="0.75" stroke-linecap="round" stroke-linejoin="round"/>
<path d="M87.91 107.97L92.5651 110.849" stroke="#535353" stroke-width="0.75" stroke-linecap="round" stroke-linejoin="round"/>
<path d="M80.6412 132.201C83.6168 128.699 85.4673 124.381 85.9512 119.811" stroke="#535353" stroke-width="0.75" stroke-linecap="round" stroke-linejoin="round"/>
<path d="M77.9272 131.346C74.1445 135.714 69.42 139.168 64.1094 141.447" stroke="#535353" stroke-width="0.75" stroke-linecap="round" stroke-linejoin="round"/>
<path d="M80.24 128.349C79.7975 128.986 79.3314 129.605 78.8417 130.213" stroke="#535353" stroke-width="0.75" stroke-linecap="round" stroke-linejoin="round"/>
<path d="M81.6619 126.213C81.4377 126.59 81.2017 126.956 80.9657 127.322" stroke="#535353" stroke-width="0.75" stroke-linecap="round" stroke-linejoin="round"/>
<path d="M56.1562 148.68C62.1273 151.409 68.7699 152.318 75.2545 151.294" stroke="#535353" stroke-width="0.75" stroke-linecap="round" stroke-linejoin="round"/>
<path d="M72.1275 75.4138C72.737 75.1484 73.3181 74.8223 73.8621 74.4403" stroke="#535353" stroke-width="0.75" stroke-linecap="round" stroke-linejoin="round"/>
<path d="M57.7551 89.3437C57.7551 89.3437 54.4806 83.3375 58.2625 80.063C61.1476 77.5732 66.2924 77.3372 70.4106 76.051" stroke="#535353" stroke-width="0.75" stroke-linecap="round" stroke-linejoin="round"/>
<path d="M60.5104 85.078C60.3264 84.532 60.2963 83.946 60.4232 83.384C60.5502 82.822 60.8294 82.3058 61.2302 81.892C63.4781 79.7562 70.0389 79.532 73.3075 76.2811" stroke="#535353" stroke-width="0.75" stroke-linecap="round" stroke-linejoin="round"/>
<path d="M61.8438 87.8569C61.5728 87.4834 61.3321 87.0888 61.124 86.6769" stroke="#535353" stroke-width="0.75" stroke-linecap="round" stroke-linejoin="round"/>
</svg>
