<svg width="316" height="316" viewBox="0 0 316 316" fill="none" xmlns="http://www.w3.org/2000/svg">
<rect width="316" height="316" fill="white"/>
<path d="M116.092 246.48C117.571 246.48 119.081 246.48 120.624 246.48C124.466 246.404 128.012 246.158 131.323 245.778V173.591H116.092V246.48Z" fill="#40513B"/>
<path d="M144.267 243.32C149.542 241.902 154.647 239.915 159.492 237.392V173.56H144.267V243.32Z" fill="#40513B"/>
<path d="M172.435 229.555C177.491 226.288 182.155 223.444 187.666 222.022V173.591H172.435V229.555Z" fill="#40513B"/>
<path d="M200.609 221.345C206.057 221.977 211.025 223.425 215.841 224.986V173.591H200.609V221.345Z" fill="#40513B"/>
<path d="M43.924 196.603C44.8088 199.025 45.7673 201.393 46.7996 203.706V173.591H38.7542C39.5238 181.445 41.2602 189.174 43.924 196.603Z" fill="#40513B"/>
<path d="M59.743 224.227C64.1202 229.148 69.2635 233.328 74.9742 236.608V173.591H59.743V224.227Z" fill="#40513B"/>
<path d="M87.9175 242.277C92.8828 243.845 97.9811 244.956 103.149 245.595V173.591H87.9175V242.277Z" fill="#40513B"/>
<path d="M228.784 228.891C233.763 230.136 238.939 230.385 244.015 229.625V173.591H228.784V228.891Z" fill="#40513B"/>
<path d="M265.769 88.8782C261.489 80.2567 256.214 72.1667 250.051 64.7737C224.17 34.128 171.904 43.6838 151.781 59.5028C131.658 75.3218 130.691 97.3722 113.431 103.111C96.1714 108.849 82.7541 97.8399 59.743 111.744C44.1705 121.154 37.623 143.521 38.255 165.913H280.538C280.659 164.086 280.76 162.298 280.829 160.566C282.002 135.777 276.818 111.099 265.769 88.8782ZM61.0449 135.45L58.144 133.927L55.2431 135.45L55.7993 132.221L53.4482 129.933L56.6904 129.459L58.144 126.52L59.5976 129.459L62.8398 129.933L60.4887 132.221L61.0449 135.45ZM127.272 141.827L123.088 147.256L121.344 140.62L114.917 138.313L120.661 134.61L120.87 127.784L126.16 132.101L132.72 130.192L130.249 136.563L134.091 142.206L127.272 141.827ZM159.631 99.679L159.087 103.623L156.287 100.791L152.369 101.487L154.208 97.96L152.312 94.4461L156.243 95.0781L159.005 92.2088L159.637 96.1398L163.214 97.8842L159.631 99.679ZM174.432 160.471L171.272 158.803L168.112 160.471L168.744 156.938L166.172 154.41L169.724 153.892L171.31 150.681L172.896 153.892L176.448 154.41L173.876 156.938L174.432 160.471ZM218.438 56.6399L216.776 55.7677L215.114 56.6399L215.43 54.7881L214.09 53.4799L215.948 53.2081L216.776 51.527L217.604 53.2081L219.462 53.4799L218.122 54.7881L218.438 56.6399ZM267.734 144.191L263.544 141.985L259.341 144.191L260.144 139.514L256.744 136.196L261.439 135.513L263.544 131.26L265.649 135.513L270.344 136.196L266.944 139.514L267.734 144.191Z" fill="#40513B"/>
<path d="M256.959 225.144C257.685 224.764 258.418 224.36 259.164 223.924C264.821 220.631 269.042 214.709 272.19 207.435V173.591H256.959V225.144Z" fill="#40513B"/>
<g opacity="0.7">
<path d="M116.092 246.48C117.571 246.48 119.081 246.48 120.624 246.48C124.466 246.404 128.012 246.158 131.323 245.778V173.591H116.092V246.48Z" fill="#609966"/>
<path d="M144.267 243.32C149.542 241.902 154.647 239.915 159.492 237.392V173.56H144.267V243.32Z" fill="#609966"/>
<path d="M172.435 229.555C177.491 226.288 182.155 223.444 187.666 222.022V173.591H172.435V229.555Z" fill="#609966"/>
<path d="M200.609 221.345C206.057 221.977 211.025 223.425 215.841 224.986V173.591H200.609V221.345Z" fill="#609966"/>
<path d="M43.924 196.603C44.8088 199.025 45.7673 201.393 46.7996 203.706V173.591H38.7542C39.5238 181.445 41.2602 189.174 43.924 196.603Z" fill="#609966"/>
<path d="M59.743 224.227C64.1202 229.148 69.2635 233.328 74.9742 236.608V173.591H59.743V224.227Z" fill="#609966"/>
<path d="M87.9175 242.277C92.8828 243.845 97.9811 244.956 103.149 245.595V173.591H87.9175V242.277Z" fill="#609966"/>
<path d="M228.784 228.891C233.763 230.136 238.939 230.385 244.015 229.625V173.591H228.784V228.891Z" fill="#609966"/>
<path d="M265.769 88.8782C261.489 80.2567 256.214 72.1667 250.051 64.7737C224.17 34.128 171.904 43.6838 151.781 59.5028C131.658 75.3218 130.691 97.3722 113.431 103.111C96.1714 108.849 82.7541 97.8399 59.743 111.744C44.1705 121.154 37.623 143.521 38.255 165.913H280.538C280.659 164.086 280.76 162.298 280.829 160.566C282.002 135.777 276.818 111.099 265.769 88.8782ZM61.0449 135.45L58.144 133.927L55.2431 135.45L55.7993 132.221L53.4482 129.933L56.6904 129.459L58.144 126.52L59.5976 129.459L62.8398 129.933L60.4887 132.221L61.0449 135.45ZM127.272 141.827L123.088 147.256L121.344 140.62L114.917 138.313L120.661 134.61L120.87 127.784L126.16 132.101L132.72 130.192L130.249 136.563L134.091 142.206L127.272 141.827ZM159.631 99.679L159.087 103.623L156.287 100.791L152.369 101.487L154.208 97.96L152.312 94.4461L156.243 95.0781L159.005 92.2088L159.637 96.1398L163.214 97.8842L159.631 99.679ZM174.432 160.471L171.272 158.803L168.112 160.471L168.744 156.938L166.172 154.41L169.724 153.892L171.31 150.681L172.896 153.892L176.448 154.41L173.876 156.938L174.432 160.471ZM218.438 56.6399L216.776 55.7677L215.114 56.6399L215.43 54.7881L214.09 53.4799L215.948 53.2081L216.776 51.527L217.604 53.2081L219.462 53.4799L218.122 54.7881L218.438 56.6399ZM267.734 144.191L263.544 141.985L259.341 144.191L260.144 139.514L256.744 136.196L261.439 135.513L263.544 131.26L265.649 135.513L270.344 136.196L266.944 139.514L267.734 144.191Z" fill="#609966"/>
<path d="M256.959 225.144C257.685 224.764 258.418 224.36 259.164 223.924C264.821 220.631 269.042 214.709 272.19 207.435V173.591H256.959V225.144Z" fill="#609966"/>
</g>
<path d="M211.941 270.9C231.135 270.9 246.695 268.541 246.695 265.63C246.695 262.719 231.135 260.359 211.941 260.359C192.747 260.359 177.188 262.719 177.188 265.63C177.188 268.541 192.747 270.9 211.941 270.9Z" fill="#78947B"/>
<path opacity="0.5" d="M211.941 270.9C231.135 270.9 246.695 268.541 246.695 265.63C246.695 262.719 231.135 260.359 211.941 260.359C192.747 260.359 177.188 262.719 177.188 265.63C177.188 268.541 192.747 270.9 211.941 270.9Z" fill="#78947B"/>
<path d="M106.005 263.234C120.435 263.234 132.132 260.874 132.132 257.963C132.132 255.052 120.435 252.693 106.005 252.693C91.5759 252.693 79.8785 255.052 79.8785 257.963C79.8785 260.874 91.5759 263.234 106.005 263.234Z" fill="#78947B"/>
<path opacity="0.5" d="M106.005 263.234C120.435 263.234 132.132 260.874 132.132 257.963C132.132 255.052 120.435 252.693 106.005 252.693C91.5759 252.693 79.8785 255.052 79.8785 257.963C79.8785 260.874 91.5759 263.234 106.005 263.234Z" fill="#78947B"/>
<path d="M93.3022 244.274L106.606 238.738C105.677 237.215 104.748 237.935 103.56 235.471C102.928 234.207 103.484 232.172 102.687 230.541C102.055 229.207 100.09 228.361 99.3314 226.831C98.6426 225.453 99.1418 223.399 98.3961 221.914C97.6503 220.429 95.7354 219.696 94.9896 218.249C94.2438 216.801 94.7305 214.766 93.9784 213.344C93.2263 211.922 91.2608 211.139 90.5087 209.735C89.7566 208.332 90.1548 206.228 89.3838 204.856C88.6127 203.485 86.584 202.689 85.8066 201.368C84.9345 199.889 85.2568 197.797 84.4542 196.539C83.4746 195.01 81.4332 194.454 80.6053 193.379C79.0506 191.357 78.2163 189.132 77.4453 189.284C76.6742 189.436 77.3442 191.673 77.7676 194.34C77.9825 195.667 76.9839 197.5 77.4263 199.276C77.7802 200.704 79.5246 201.892 80.0049 203.523C80.4283 204.983 79.5814 206.91 80.0807 208.484C80.58 210.058 82.337 211.063 82.8489 212.598C83.3608 214.134 82.5582 216.049 83.0764 217.56C83.5946 219.07 85.4148 220.126 85.9394 221.611C86.4639 223.096 85.7245 225.099 86.2554 226.566C86.7862 228.032 88.6506 229.144 89.1752 230.579C89.763 232.165 89.0362 234.137 89.5544 235.521C90.1864 237.202 92.0382 238.226 92.5248 239.496C93.5802 242.271 92.095 242.22 92.9672 244.445L93.3022 244.274Z" fill="#40513B"/>
<path d="M78.9747 193.765L98.7563 241.285" stroke="white" stroke-width="0.360849" stroke-miterlimit="10"/>
<path d="M83.127 197.886L81.7366 200.654L78.981 199.029" stroke="white" stroke-width="0.360849" stroke-miterlimit="10"/>
<path d="M86.565 206.152L85.181 208.927L82.4254 207.302" stroke="white" stroke-width="0.360849" stroke-miterlimit="10"/>
<path d="M89.8072 213.932L88.4231 216.706L85.6613 215.082" stroke="white" stroke-width="0.360849" stroke-miterlimit="10"/>
<path d="M93.6624 223.184L92.272 225.959L89.5165 224.335" stroke="white" stroke-width="0.360849" stroke-miterlimit="10"/>
<path d="M97.5555 232.538L96.1714 235.313L93.4159 233.688" stroke="white" stroke-width="0.360849" stroke-miterlimit="10"/>
<path d="M91.798 240.602L113.501 239.914C113.002 237.272 111.314 237.79 110.973 233.688C110.796 231.615 112.629 228.993 112.376 226.275C112.167 224.038 109.886 221.813 109.633 219.253C109.406 216.947 111.207 214.318 110.948 211.827C110.695 209.476 108.382 207.283 108.11 204.844C107.838 202.404 109.601 199.788 109.311 197.393C109.02 194.997 106.663 192.836 106.347 190.441C106.031 188.045 107.724 185.309 107.37 182.97C107.004 180.493 104.59 178.414 104.21 176.132C103.774 173.604 105.348 170.811 104.887 168.624C104.324 165.938 101.727 164.061 101.158 162.089C100.058 158.411 100.065 154.827 98.8954 154.631C97.7262 154.436 97.4734 157.937 96.6581 161.887C96.2473 163.871 93.852 165.944 93.536 168.662C93.2769 170.861 95.097 173.465 94.8948 176.012C94.7115 178.3 92.4932 180.562 92.3668 183.04C92.2341 185.378 94.1743 187.887 94.0669 190.327C93.9594 192.766 91.817 195.023 91.7411 197.43C91.6653 199.838 93.6371 202.291 93.6055 204.667C93.5739 207.043 91.4378 209.47 91.3998 211.815C91.3619 214.292 93.397 216.725 93.3717 219.026C93.3717 221.554 91.2734 223.968 91.2671 226.199C91.2671 228.898 93.3148 231.325 93.3211 233.385C93.3211 237.847 91.2608 236.987 91.2987 240.583L91.798 240.602Z" fill="#40513B"/>
<path d="M98.6173 161.798L101.088 239.307" stroke="white" stroke-width="0.543628" stroke-miterlimit="10"/>
<path d="M102.264 169.818L98.8258 172.978L95.8112 169.218" stroke="white" stroke-width="0.543628" stroke-miterlimit="10"/>
<path d="M102.694 183.305L99.2556 186.472L96.241 182.711" stroke="white" stroke-width="0.543628" stroke-miterlimit="10"/>
<path d="M103.098 195.996L99.6601 199.156L96.6454 195.395" stroke="white" stroke-width="0.543628" stroke-miterlimit="10"/>
<path d="M103.578 211.088L100.14 214.254L97.1321 210.494" stroke="white" stroke-width="0.543628" stroke-miterlimit="10"/>
<path d="M104.065 226.344L100.627 229.511L97.6124 225.75" stroke="white" stroke-width="0.543628" stroke-miterlimit="10"/>
<path d="M104.868 191.85C105.98 192.615 108.976 193.114 108.982 193.114C108.988 193.114 108.717 191.041 108.685 190.908C108.293 189.41 106.663 186.75 104.937 186.655C104.65 186.646 104.364 186.698 104.098 186.807C103.831 186.916 103.591 187.08 103.393 187.288C103.194 187.496 103.042 187.744 102.945 188.015C102.849 188.286 102.81 188.574 102.833 188.861C102.883 190.093 103.913 191.193 104.868 191.85Z" fill="#40513B"/>
<path d="M134.907 198.353C134.907 198.353 135.836 196.457 135.88 196.35C136.379 194.89 136.512 191.768 135.103 190.731C134.868 190.566 134.6 190.452 134.318 190.396C134.036 190.341 133.745 190.345 133.465 190.41C133.185 190.474 132.921 190.597 132.692 190.77C132.462 190.943 132.271 191.162 132.132 191.414C131.5 192.463 131.753 193.942 132.183 195.016C132.72 196.274 134.907 198.353 134.907 198.353Z" fill="#40513B"/>
<path d="M145.91 189.271C144.254 188.766 141.796 190.687 140.911 191.957C140.835 192.065 139.83 193.917 139.862 193.923H139.9C139.508 194.22 139.097 194.555 138.636 194.915C137.82 195.598 136.898 196.381 135.956 197.298C134.93 198.273 133.961 199.307 133.055 200.395C132.036 201.61 131.127 202.912 130.337 204.288V204.338C130.445 203.845 130.691 202.442 130.698 202.341C130.792 200.799 130.066 197.759 128.46 197.127C128.189 197.028 127.9 196.988 127.612 197.009C127.324 197.029 127.044 197.111 126.79 197.248C126.536 197.384 126.313 197.573 126.137 197.802C125.961 198.03 125.835 198.294 125.768 198.574C125.439 199.75 126.078 201.102 126.773 202.031C127.563 203.068 130.047 204.408 130.249 204.515C129.48 205.944 128.806 207.422 128.233 208.939C127.898 209.818 127.601 210.709 127.278 211.613C127.354 211.183 127.424 210.791 127.424 210.74C127.519 209.198 126.792 206.158 125.193 205.526C124.922 205.429 124.635 205.389 124.348 205.41C124.061 205.431 123.782 205.512 123.528 205.648C123.275 205.784 123.053 205.971 122.877 206.199C122.701 206.426 122.575 206.688 122.507 206.967C122.172 208.143 122.81 209.495 123.505 210.424C124.201 211.353 126.312 212.542 126.874 212.845L126.533 213.888C125.996 215.55 125.471 217.218 124.908 218.836C124.706 219.405 124.491 219.961 124.276 220.511C124.34 220.132 124.397 219.803 124.403 219.759C124.498 218.211 123.771 215.177 122.166 214.545C121.895 214.446 121.607 214.406 121.32 214.426C121.033 214.446 120.753 214.527 120.5 214.663C120.246 214.8 120.024 214.988 119.848 215.216C119.672 215.444 119.547 215.706 119.48 215.986C119.151 217.162 119.783 218.514 120.484 219.443C121.186 220.372 123.088 221.446 123.746 221.813C123.512 222.369 123.272 222.938 123.019 223.469C122.836 223.829 122.684 224.189 122.482 224.543C122.279 224.897 122.096 225.245 121.906 225.586C121.515 226.218 121.11 226.913 120.712 227.545C120.44 227.981 120.175 228.392 119.903 228.809C120.105 228.24 120.484 227.128 120.535 227.033C120.773 225.695 120.664 224.317 120.219 223.033C120.256 222.884 120.277 222.731 120.282 222.578C120.301 222.291 120.259 222.003 120.16 221.733C120.06 221.464 119.905 221.218 119.704 221.012C119.503 220.807 119.261 220.646 118.994 220.54C118.726 220.434 118.44 220.385 118.152 220.397C116.427 220.517 114.822 223.197 114.455 224.695C114.455 224.783 114.304 225.769 114.228 226.395C114.228 226.022 114.228 225.662 114.19 225.276C114.19 224.518 114.101 223.76 114.051 222.944C114.006 222.552 113.969 222.154 113.924 221.756C113.88 221.358 113.811 220.941 113.754 220.53C113.602 219.576 113.4 218.634 113.172 217.661C113.842 217.661 116.2 217.496 117.236 216.978C118.272 216.46 119.442 215.518 119.669 214.318C119.731 214.037 119.734 213.746 119.676 213.464C119.618 213.183 119.502 212.916 119.334 212.683C119.167 212.449 118.952 212.253 118.703 212.108C118.455 211.963 118.179 211.871 117.893 211.84C116.168 211.695 114.183 214.103 113.589 215.525C113.551 215.619 113.242 216.688 113.077 217.282C112.938 216.706 112.806 216.131 112.648 215.55C112.186 213.888 111.668 212.213 111.156 210.538L110.701 209.002C110.935 209.002 113.747 208.895 114.91 208.314C115.94 207.802 117.116 206.854 117.337 205.653C117.4 205.372 117.403 205.082 117.346 204.8C117.29 204.518 117.174 204.252 117.007 204.018C116.84 203.784 116.625 203.588 116.377 203.443C116.129 203.298 115.853 203.207 115.568 203.175C113.842 203.03 111.851 205.438 111.257 206.866C111.213 206.974 110.764 208.516 110.67 208.914C110.341 207.783 110.038 206.658 109.747 205.533C109.37 204.017 109.093 202.478 108.919 200.925C109.026 200.925 111.959 200.831 113.153 200.237C114.183 199.725 115.359 198.777 115.58 197.576C115.643 197.295 115.646 197.005 115.59 196.723C115.533 196.442 115.417 196.175 115.25 195.941C115.083 195.707 114.868 195.511 114.62 195.366C114.372 195.221 114.096 195.13 113.811 195.098C112.085 194.953 110.094 197.361 109.5 198.783C109.462 198.878 109.121 200.047 108.969 200.616H108.875C108.735 199.049 108.735 197.474 108.875 195.907C108.944 195.048 109.058 194.226 109.184 193.43C109.734 193.468 112.243 193.62 113.374 193.202C114.506 192.785 115.726 191.995 116.079 190.826C116.173 190.554 116.207 190.265 116.181 189.978C116.155 189.692 116.069 189.414 115.928 189.163C115.787 188.912 115.595 188.693 115.364 188.521C115.133 188.349 114.869 188.228 114.588 188.165C112.888 187.83 110.651 190.004 109.905 191.357C109.861 191.433 109.532 192.223 109.273 192.804C109.336 192.45 109.393 192.077 109.462 191.736C109.715 190.472 110.025 189.29 110.309 188.266C110.474 187.685 110.632 187.16 110.79 186.674C111.346 186.427 113.583 185.41 114.379 184.55C115.176 183.691 115.909 182.395 115.688 181.188C115.644 180.906 115.541 180.637 115.387 180.397C115.233 180.157 115.03 179.952 114.792 179.795C114.554 179.638 114.286 179.532 114.005 179.485C113.724 179.437 113.436 179.449 113.16 179.52C111.504 180.006 110.518 182.964 110.474 184.512C110.474 184.645 110.657 186.737 110.688 186.724C110.53 187.192 110.36 187.691 110.196 188.248C109.886 189.265 109.564 190.422 109.273 191.711C108.954 193.09 108.718 194.487 108.565 195.895C108.381 197.47 108.341 199.059 108.445 200.641C108.442 200.66 108.442 200.679 108.445 200.698C108.255 200.23 107.693 198.928 107.636 198.834C106.871 197.494 104.59 195.351 102.902 195.711C102.623 195.78 102.361 195.906 102.133 196.082C101.906 196.258 101.718 196.479 101.581 196.733C101.445 196.986 101.363 197.265 101.341 197.552C101.32 197.838 101.358 198.127 101.455 198.397C101.828 199.56 103.111 200.35 104.198 200.73C105.43 201.159 108.243 200.906 108.464 200.881C108.606 202.491 108.857 204.09 109.216 205.665C109.412 206.582 109.646 207.505 109.892 208.421C109.715 208.016 109.557 207.663 109.532 207.612C108.761 206.272 106.486 204.136 104.792 204.496C104.512 204.564 104.249 204.689 104.021 204.865C103.793 205.041 103.605 205.262 103.468 205.516C103.332 205.769 103.25 206.049 103.229 206.336C103.207 206.623 103.247 206.911 103.345 207.182C103.718 208.345 105 209.129 106.094 209.514C107.187 209.9 109.601 209.729 110.233 209.679C110.335 210.026 110.423 210.38 110.524 210.728C110.998 212.415 111.478 214.096 111.896 215.752C112.047 216.34 112.167 216.921 112.294 217.503C112.142 217.149 112.009 216.871 111.984 216.801C111.213 215.461 108.938 213.325 107.244 213.686C106.965 213.754 106.703 213.88 106.475 214.056C106.248 214.232 106.059 214.453 105.923 214.707C105.787 214.96 105.705 215.239 105.683 215.526C105.661 215.812 105.7 216.101 105.797 216.372C106.17 217.534 107.453 218.324 108.546 218.704C109.639 219.083 111.82 218.937 112.572 218.874C112.686 219.475 112.799 220.075 112.875 220.663C112.926 221.061 112.995 221.446 113.021 221.851C113.046 222.255 113.084 222.647 113.115 223.045C113.153 223.804 113.191 224.588 113.204 225.327C113.204 225.845 113.204 226.338 113.204 226.831C113.065 226.25 112.768 225.112 112.73 225.017C112.174 223.576 110.246 221.118 108.521 221.225C108.234 221.25 107.956 221.335 107.705 221.474C107.453 221.613 107.234 221.804 107.06 222.033C106.887 222.262 106.764 222.526 106.698 222.806C106.633 223.086 106.627 223.376 106.682 223.658C106.878 224.866 108.021 225.839 109.045 226.382C110.164 226.976 112.875 227.16 113.21 227.179C113.21 228 113.21 228.797 113.21 229.549C113.172 231.912 113.058 233.91 112.951 235.388L114.095 235.616C114.171 234.099 114.247 232.02 114.24 229.555C114.24 228.721 114.24 227.836 114.19 226.92C115.044 226.76 115.889 226.549 116.718 226.288C117.407 227.4 119.423 228.936 119.682 229.132C119.233 229.82 118.791 230.484 118.367 231.103C117.04 233.031 115.839 234.617 114.948 235.793L116.212 236.033C117.053 234.883 118.108 233.41 119.227 231.672C119.688 230.977 120.162 230.225 120.642 229.448C120.952 229.574 123.461 230.617 124.732 230.579C125.888 230.541 127.348 230.174 128.056 229.176C128.229 228.947 128.353 228.685 128.419 228.406C128.484 228.126 128.49 227.836 128.437 227.555C128.383 227.273 128.271 227.005 128.107 226.77C127.944 226.534 127.732 226.335 127.487 226.186C125.977 225.333 123.164 226.686 122.027 227.729C121.957 227.792 121.306 228.544 120.902 228.993C121.098 228.67 121.287 228.361 121.483 228.032C121.881 227.4 122.254 226.724 122.659 226.016L123.208 224.954C123.404 224.606 123.562 224.208 123.739 223.835C124.137 222.957 124.498 222.047 124.839 221.124C125.414 221.472 127.455 222.66 128.631 222.799C129.806 222.938 131.279 222.799 132.126 221.92C132.333 221.721 132.496 221.48 132.604 221.214C132.712 220.947 132.762 220.661 132.752 220.373C132.742 220.086 132.671 219.804 132.545 219.546C132.418 219.287 132.239 219.059 132.018 218.874C130.66 217.8 127.67 218.71 126.387 219.576C126.312 219.626 125.458 220.347 124.997 220.751C125.199 220.195 125.401 219.645 125.591 219.07C126.122 217.427 126.615 215.746 127.114 214.071C127.266 213.559 127.424 213.047 127.582 212.542C127.784 212.662 130.179 214.128 131.469 214.286C132.619 214.425 134.117 214.286 134.964 213.407C135.171 213.208 135.334 212.967 135.441 212.701C135.549 212.434 135.6 212.148 135.59 211.86C135.579 211.573 135.509 211.291 135.383 211.033C135.256 210.774 135.077 210.546 134.856 210.361C133.497 209.287 130.508 210.197 129.225 211.063C129.13 211.126 127.904 212.169 127.607 212.447C127.948 211.322 128.302 210.203 128.7 209.116C129.222 207.645 129.838 206.21 130.546 204.819C130.641 204.875 133.137 206.418 134.458 206.576C135.608 206.721 137.106 206.576 137.953 205.697C138.16 205.498 138.323 205.257 138.431 204.99C138.539 204.724 138.589 204.437 138.579 204.15C138.569 203.863 138.498 203.581 138.372 203.322C138.246 203.064 138.066 202.835 137.846 202.651C136.487 201.583 133.497 202.493 132.214 203.352C132.132 203.409 131.197 204.199 130.761 204.616L130.685 204.553C131.437 203.172 132.311 201.861 133.295 200.635C133.826 199.958 134.376 199.333 134.919 198.739C135.355 199.067 137.365 200.578 138.541 200.856C139.716 201.134 141.17 201.14 142.112 200.363C142.339 200.187 142.527 199.965 142.663 199.712C142.798 199.458 142.879 199.179 142.9 198.892C142.921 198.606 142.881 198.318 142.784 198.047C142.686 197.777 142.532 197.53 142.333 197.323C141.1 196.11 138.035 196.691 136.645 197.399C136.569 197.443 135.855 197.917 135.343 198.277C135.589 198.012 135.842 197.734 136.089 197.487C137.011 196.558 137.909 195.756 138.711 195.06C139.166 194.662 139.59 194.315 139.975 193.999C140.576 194.1 142.996 194.492 144.14 194.207C145.284 193.923 146.611 193.253 147.085 192.128C147.215 191.866 147.288 191.579 147.298 191.287C147.308 190.995 147.256 190.704 147.145 190.433C147.034 190.163 146.866 189.919 146.653 189.719C146.44 189.519 146.187 189.366 145.91 189.271Z" fill="#40513B"/>
<path d="M130.274 235.129H83.2344V241.354H130.274V235.129Z" fill="#40513B"/>
<path d="M122.88 259.253H90.6225L86.5903 240.666H126.912L122.88 259.253Z" fill="#40513B"/>
<path d="M83.6326 140.936L83.1586 185.77C83.1586 185.77 81.2626 186.724 76.0043 186.724C70.7461 186.724 68.8501 185.77 68.8501 185.77L70.7461 167.644C70.7461 167.644 64.0785 166.216 64.0785 164.32C64.0785 162.424 78.861 109.968 78.861 109.968C78.861 109.968 86.4955 123.284 83.6326 140.936Z" fill="#609966" stroke="#40513B" stroke-miterlimit="10"/>
<path d="M70.7524 167.638L76.9334 139.072" stroke="#40513B" stroke-miterlimit="10"/>
<path d="M73.1414 109.93C73.1414 109.93 81.7239 121.376 82.6782 126.147C83.6326 130.919 83.6326 140.936 83.6326 140.936C86.4314 133.915 88.1983 126.526 88.8782 118.999C89.8325 107.073 80.2956 100.874 80.2956 100.874L73.1414 109.93Z" fill="#40513B" stroke="#40513B" stroke-miterlimit="10"/>
<path d="M234.421 140.936L234.895 185.77C234.895 185.77 236.791 186.724 242.05 186.724C247.308 186.724 249.204 185.77 249.204 185.77L247.308 167.644C247.308 167.644 253.976 166.216 253.976 164.32C253.976 162.424 239.187 109.968 239.187 109.968C239.187 109.968 231.558 123.284 234.421 140.936Z" fill="#609966" stroke="#40513B" stroke-miterlimit="10"/>
<path d="M247.295 167.638L241.563 134.42" stroke="#40513B" stroke-miterlimit="10"/>
<path d="M244.913 109.93C244.913 109.93 236.324 121.376 235.369 126.147C234.415 130.919 234.421 140.93 234.421 140.93C231.619 133.91 229.85 126.521 229.17 118.993C228.215 107.067 237.758 100.867 237.758 100.867L244.913 109.93Z" fill="#40513B" stroke="#609966" stroke-miterlimit="10"/>
<path d="M244.843 109.93C218.846 94.5548 189.196 86.4435 158.992 86.4435C128.788 86.4435 99.1389 94.5548 73.1414 109.93L58.0871 84.4731C57.0064 82.6656 58.0239 80.0491 60.3939 78.7472C90.5241 61.9035 124.467 53.06 158.986 53.06C193.505 53.06 227.448 61.9035 257.578 78.7472C259.942 80.0681 260.965 82.6656 259.885 84.4731L244.843 109.93Z" fill="#609966"/>
<path d="M244.843 109.93C218.846 94.5548 189.196 86.4435 158.992 86.4435C128.788 86.4435 99.1389 94.5548 73.1414 109.93L58.0871 84.4731C57.0064 82.6656 58.0239 80.0491 60.3939 78.7472C90.5241 61.9035 124.467 53.06 158.986 53.06C193.505 53.06 227.448 61.9035 257.578 78.7472C259.942 80.0681 260.965 82.6656 259.885 84.4731L244.843 109.93Z" stroke="#394934" stroke-miterlimit="10"/>
<path d="M94.6844 91.5219C94.2024 91.6692 93.7711 91.6742 93.3904 91.5368C93.0275 91.3941 92.6737 91.1022 92.3288 90.6613L81.4663 76.6839C81.0798 76.1777 80.9551 75.689 81.0922 75.2178C81.2471 74.7412 81.6549 74.402 82.3154 74.2001C82.7974 74.0528 83.2109 74.0533 83.5559 74.2015C83.8949 74.332 84.225 74.6116 84.546 75.0403L94.1242 87.742L93.0531 88.0693L93.3379 72.3826C93.3561 71.8503 93.4604 71.4282 93.651 71.1163C93.8415 70.8044 94.151 70.583 94.5794 70.452C95.0079 70.3211 95.3857 70.3325 95.7128 70.4862C96.04 70.6398 96.376 70.9371 96.7208 71.3781L106.335 84.0103L105.397 84.2967L105.54 68.6244C105.546 68.1152 105.644 67.7047 105.835 67.3928C106.025 67.0809 106.353 66.854 106.817 66.7122C107.388 66.5376 107.873 66.604 108.271 66.9115C108.67 67.219 108.866 67.6859 108.86 68.3122L108.485 85.7532C108.466 86.2855 108.353 86.7104 108.145 87.0277C107.936 87.3451 107.591 87.5774 107.109 87.7247C106.627 87.872 106.205 87.8743 105.842 87.7315C105.479 87.5888 105.125 87.2969 104.78 86.856L95.7015 75.1139L96.3173 74.9257L96.033 89.5585C96.0149 90.0909 95.9016 90.5157 95.6932 90.8331C95.5027 91.145 95.1664 91.3745 94.6844 91.5219Z" fill="#394934"/>
<path d="M119.075 84.5255C118.472 84.6489 117.971 84.5895 117.572 84.3471C117.187 84.0829 116.928 83.6502 116.793 83.0492L113.302 67.5044C113.167 66.9034 113.22 66.4162 113.461 66.0431C113.717 65.6479 114.146 65.3886 114.75 65.2653L124.543 63.2629C125 63.1694 125.374 63.2167 125.665 63.4049C125.975 63.5893 126.178 63.9001 126.276 64.3372C126.379 64.7925 126.33 65.1738 126.132 65.4812C125.947 65.7665 125.626 65.956 125.169 66.0495L116.884 67.7434L118.075 73.0433L125.756 71.4728C126.231 71.3756 126.614 71.4211 126.905 71.6092C127.196 71.7974 127.393 72.1192 127.495 72.5745C127.597 73.0298 127.556 73.4002 127.372 73.6855C127.187 73.9709 126.857 74.1622 126.382 74.2594L118.7 75.8299L119.958 81.4304L128.243 79.7365C128.7 79.6431 129.074 79.6904 129.365 79.8786C129.674 80.063 129.88 80.3828 129.982 80.8382C130.084 81.2935 130.034 81.6657 129.831 81.9548C129.647 82.2402 129.326 82.4297 128.869 82.5231L119.075 84.5255Z" fill="#394934"/>
<path d="M135.977 81.5043C135.403 81.5762 134.937 81.4747 134.578 81.1998C134.218 80.9064 133.998 80.473 133.919 79.8998L131.716 63.8946C131.635 63.3029 131.722 62.8405 131.978 62.5075C132.249 62.1537 132.672 61.9408 133.246 61.8688C133.821 61.7969 134.277 61.8996 134.617 62.1768C134.973 62.4332 135.191 62.8573 135.273 63.4491L137.311 78.2615L145.368 77.252C145.868 77.1893 146.266 77.2712 146.561 77.4976C146.874 77.7217 147.064 78.0741 147.13 78.5549C147.196 79.0357 147.109 79.4322 146.87 79.7444C146.646 80.0358 146.284 80.2128 145.784 80.2755L135.977 81.5043Z" fill="#394934"/>
<path d="M159.394 80.5513C157.341 80.6214 155.563 80.2712 154.058 79.5008C152.572 78.7111 151.408 77.5741 150.568 76.0899C149.727 74.5871 149.268 72.8004 149.19 70.7299C149.132 69.1816 149.304 67.7843 149.705 66.5379C150.106 65.2728 150.71 64.1876 151.517 63.2822C152.323 62.3581 153.323 61.6422 154.518 61.1345C155.731 60.6074 157.103 60.3178 158.633 60.2655C159.659 60.2305 160.671 60.3267 161.669 60.554C162.668 60.7814 163.55 61.1249 164.314 61.5844C164.715 61.8135 164.987 62.103 165.131 62.453C165.274 62.7843 165.315 63.1191 165.253 63.4574C165.19 63.7771 165.042 64.053 164.808 64.2851C164.592 64.5166 164.308 64.657 163.955 64.7064C163.62 64.7366 163.242 64.628 162.822 64.3809C162.229 64.0276 161.594 63.7785 160.916 63.6335C160.238 63.4886 159.554 63.4279 158.864 63.4515C157.54 63.4967 156.43 63.8054 155.537 64.3776C154.643 64.9498 153.982 65.7568 153.554 66.7987C153.126 67.8405 152.94 69.1076 152.996 70.5999C153.051 72.0735 153.332 73.3247 153.837 74.3533C154.343 75.382 155.063 76.1512 155.997 76.6609C156.932 77.1707 158.061 77.4029 159.386 77.3577C160.095 77.3335 160.791 77.2256 161.475 77.0342C162.158 76.8241 162.801 76.522 163.403 76.1279C163.804 75.8714 164.164 75.7563 164.482 75.7828C164.819 75.79 165.103 75.8924 165.334 76.0899C165.566 76.2874 165.725 76.5435 165.812 76.8581C165.897 77.154 165.891 77.4717 165.791 77.8113C165.691 78.1322 165.478 78.4197 165.151 78.6737C164.425 79.2401 163.546 79.6904 162.512 80.0245C161.496 80.3394 160.457 80.5149 159.394 80.5513Z" fill="#394934"/>
<path d="M176.87 82.0965C174.973 81.9336 173.348 81.3725 171.995 80.4133C170.66 79.4556 169.674 78.1906 169.034 76.6182C168.397 75.0272 168.175 73.2096 168.368 71.1653C168.513 69.6228 168.867 68.2575 169.429 67.0692C169.993 65.8624 170.725 64.8574 171.626 64.0543C172.547 63.2341 173.606 62.6412 174.803 62.2756C176.02 61.8931 177.345 61.7633 178.777 61.8862C180.692 62.0507 182.317 62.6118 183.652 63.5695C184.988 64.5086 185.976 65.7643 186.615 67.3367C187.254 68.9091 187.477 70.7174 187.285 72.7617C187.139 74.3042 186.784 75.6788 186.221 76.8856C185.657 78.0925 184.914 79.1059 183.993 79.9261C183.091 80.7479 182.031 81.35 180.814 81.7326C179.617 82.0982 178.302 82.2195 176.87 82.0965ZM177.16 79.0301C178.368 79.134 179.418 78.943 180.307 78.4574C181.215 77.9733 181.942 77.2208 182.489 76.1998C183.054 75.1805 183.405 73.9367 183.544 72.4686C183.754 70.2385 183.415 68.467 182.526 67.1542C181.656 65.843 180.31 65.1091 178.487 64.9526C177.297 64.8504 176.248 65.0413 175.34 65.5254C174.433 65.9909 173.698 66.7333 173.133 67.7527C172.588 68.755 172.246 69.9996 172.106 71.4863C171.897 73.6978 172.236 75.4693 173.123 76.8007C174.01 78.1321 175.356 78.8752 177.16 79.0301Z" fill="#394934"/>
<path d="M190.143 83.2224C189.633 83.105 189.279 82.8701 189.079 82.5177C188.88 82.1652 188.844 81.7357 188.973 81.229L193.102 64.9157C193.235 64.3909 193.482 64.0263 193.841 63.822C194.206 63.5995 194.643 63.547 195.152 63.6644C195.607 63.7692 195.938 63.9414 196.147 64.1811C196.379 64.4068 196.551 64.7529 196.664 65.2194L200.263 79.1774L199.39 78.9762L209.27 68.1248C209.593 67.7589 209.903 67.5239 210.199 67.4197C210.499 67.2974 210.877 67.2887 211.332 67.3935C211.841 67.5109 212.195 67.7458 212.395 68.0982C212.599 68.4326 212.635 68.8621 212.502 69.3869L208.372 85.7003C208.244 86.2069 208.006 86.5736 207.66 86.8002C207.332 87.0311 206.905 87.0857 206.377 86.9641C205.868 86.8467 205.513 86.6118 205.314 86.2594C205.114 85.907 205.079 85.4774 205.207 84.9708L208.389 72.4032L208.989 72.5416L200.627 81.617C200.367 81.8827 200.119 82.0649 199.882 82.1635C199.646 82.2622 199.354 82.2717 199.009 82.192C198.663 82.1124 198.4 81.975 198.218 81.7799C198.041 81.5668 197.907 81.2965 197.817 80.9693L194.671 69.2129L195.326 69.3638L192.138 81.9585C192.009 82.4652 191.772 82.8318 191.426 83.0585C191.098 83.2893 190.67 83.344 190.143 83.2224Z" fill="#394934"/>
<path d="M213.629 89.3529C213.051 89.1395 212.664 88.8276 212.468 88.4171C212.297 87.9958 212.327 87.4998 212.558 86.9289L218.547 72.1655C218.779 71.5947 219.103 71.2172 219.52 71.0331C219.962 70.8381 220.471 70.8474 221.049 71.0608L230.426 74.5239C230.864 74.6856 231.151 74.9209 231.287 75.2299C231.441 75.5453 231.434 75.9105 231.266 76.3257C231.09 76.7581 230.831 77.0502 230.487 77.2018C230.169 77.3426 229.79 77.3321 229.353 77.1705L221.42 74.2408L219.378 79.2744L226.733 81.9906C227.188 82.1588 227.484 82.3973 227.62 82.7063C227.757 83.0152 227.737 83.3859 227.562 83.8183C227.386 84.2508 227.139 84.5374 226.82 84.6782C226.501 84.819 226.114 84.8053 225.659 84.6372L218.305 81.921L216.147 87.24L224.079 90.1696C224.517 90.3313 224.804 90.5666 224.94 90.8755C225.094 91.1909 225.084 91.5648 224.908 91.9973C224.733 92.4297 224.477 92.7131 224.141 92.8474C223.822 92.9882 223.443 92.9778 223.006 92.8161L213.629 89.3529Z" fill="#394934"/>
<path d="M213.73 139.419C213.73 139.419 205.691 133.478 201.829 130.571C197.968 127.664 191.351 119.322 189.695 115.656C188.876 113.769 187.956 111.927 186.939 110.139C186.939 110.139 187.704 106.454 187.704 105.544C187.704 104.634 186.965 103.433 186.497 102.662C186.263 102.277 184.601 100.071 184.601 101.752C184.601 103.067 185.391 103.724 185.391 104.514C184.327 103.926 183.451 103.05 182.863 101.986C181.94 100.279 181.548 99.6158 181.017 100.014C180.076 100.722 181.283 102.542 181.283 102.542C181.283 102.542 181.017 100.014 179.703 100.431C178.944 100.659 179.968 102.801 180.493 103.724C181.017 104.647 180.227 103.092 180.36 104.647C180.455 105.803 181.776 108.647 182.996 110.044C183.438 110.556 184.468 110.398 184.576 110.575C184.967 111.207 189.183 120.977 192.077 125.85C194.972 130.723 196.691 132.17 199.061 134.54C201.431 136.91 204.591 140.993 207.353 142.965C210.115 144.937 211.568 144.153 213.148 142.832C214.728 141.511 214.962 140.759 213.73 139.419Z" fill="#FFDBDB" stroke="black" stroke-linecap="round" stroke-linejoin="round"/>
<path d="M185.347 104.508C185.347 104.508 184.158 106.751 184.715 107.668" stroke="black" stroke-linecap="round" stroke-linejoin="round"/>
<path d="M181.264 102.536L182.319 104.508" stroke="black" stroke-linecap="round" stroke-linejoin="round"/>
<path d="M182.446 108.988C181.538 107.837 180.745 106.601 180.076 105.298C179.551 103.983 179.949 101.088 180.739 101.613C181.529 102.138 181.264 105.038 181.264 105.038L182.844 106.878" fill="#FFDBDB"/>
<path d="M182.446 108.988C181.538 107.837 180.745 106.601 180.076 105.298C179.551 103.983 179.949 101.088 180.739 101.613C181.529 102.138 181.264 105.038 181.264 105.038L182.844 106.878" stroke="black" stroke-linecap="round" stroke-linejoin="round"/>
<path d="M215.43 123C215.43 123 211.391 121.527 212.124 116.383C212.858 111.238 217.269 113.811 217.269 113.811C217.269 113.811 212.845 107.927 221.864 106.644C230.882 105.361 237.493 113.444 239.699 122.444C241.904 131.443 227.931 132.366 229.953 139.173C231.976 145.979 239.882 153.709 238.593 163.069C237.303 172.429 224.442 177.605 218.558 172.624C212.674 167.644 210.285 159.947 213.616 152.944C216.947 145.941 218.76 137.688 219.677 133.984C220.593 130.28 215.43 123 215.43 123Z" fill="black" stroke="black" stroke-linecap="round" stroke-linejoin="round"/>
<path d="M229.89 129.876C224.36 127.664 221.516 118.658 221.516 113.602C221.516 108.546 228.626 111.074 228.626 111.074C228.626 111.074 221.674 112.338 225.15 119.132C228.626 125.926 234.788 127.98 237.948 125.926" stroke="#FFDBDB" stroke-width="0.75" stroke-linecap="round" stroke-linejoin="round"/>
<path d="M228.784 134.774C228.784 134.774 223.886 136.354 225.308 142.516C226.73 148.678 237.632 156.42 234.472 164.32C231.312 172.22 225.782 175.38 219.146 173.01" stroke="#FFDBDB" stroke-width="0.75" stroke-linecap="round" stroke-linejoin="round"/>
<path d="M226.414 136.038C226.414 136.038 221.042 138.25 220.41 146.15C219.778 154.05 226.256 160.844 223.254 164.794C220.252 168.744 215.354 168.27 213.774 165.9" stroke="#FFDBDB" stroke-width="0.75" stroke-linecap="round" stroke-linejoin="round"/>
<path d="M214.147 131.639C214.147 131.639 214.697 133.662 212.883 136.79C211.069 139.918 210.127 140.645 210.127 140.645L216.744 140.095L220.972 132.372C220.972 132.372 214.513 132.929 214.147 131.639Z" fill="#FFDBDB" stroke="black" stroke-linecap="round" stroke-linejoin="round"/>
<path d="M220.764 114.544C220.764 114.544 214.33 120.428 213.041 125.572C211.752 130.717 213.407 134.028 215.803 134.028C218.198 134.028 223.153 132.006 223.153 132.006C223.153 132.006 224.625 133.27 226.092 132.562C226.511 132.359 226.869 132.047 227.128 131.66C227.387 131.272 227.538 130.822 227.564 130.356C227.564 130.356 217.452 120.428 220.764 114.544Z" fill="#FFDBDB" stroke="black" stroke-linecap="round" stroke-linejoin="round"/>
<path d="M218.04 123.373C217.598 123.935 217.067 124.251 216.846 124.081C216.624 123.91 216.801 123.316 217.244 122.753C217.686 122.191 218.217 121.875 218.432 122.046C218.647 122.216 218.476 122.81 218.04 123.373Z" fill="black"/>
<path d="M221.099 126.577C220.663 127.146 220.126 127.462 219.904 127.291C219.683 127.12 219.866 126.526 220.303 125.964C220.739 125.401 221.276 125.079 221.497 125.25C221.718 125.42 221.535 126.014 221.099 126.577Z" fill="black"/>
<path d="M217.749 124.574C216.999 124.838 216.277 125.177 215.594 125.585C215.019 126.014 216.024 126.59 216.024 126.59" stroke="black" stroke-width="0.75" stroke-linecap="round" stroke-linejoin="round"/>
<path d="M214.299 128.024C214.402 128.492 214.654 128.913 215.018 129.224C215.382 129.535 215.837 129.72 216.315 129.75C217.218 129.885 218.139 129.68 218.9 129.174" stroke="black" stroke-width="0.75" stroke-linecap="round" stroke-linejoin="round"/>
<path d="M217.895 119.688C218.352 119.617 218.819 119.728 219.194 119.997C219.57 120.267 219.825 120.673 219.904 121.129" stroke="black" stroke-width="0.75" stroke-linecap="round" stroke-linejoin="round"/>
<path d="M221.2 123.284C221.2 123.284 223.64 124.144 222.925 126.014" stroke="black" stroke-width="0.75" stroke-linecap="round" stroke-linejoin="round"/>
<path d="M197.083 257.344C197.083 257.344 193.683 259.613 192.545 260.175C191.408 260.738 186.598 261.591 186.453 262.868C186.307 264.144 188.861 264.852 191.698 264.852C194.536 264.852 197.93 264.852 199.63 265.137C201.33 265.421 202.468 265.984 203.175 264.144C203.883 262.305 202.746 257.483 202.746 257.483C202.746 257.483 199.775 258.621 197.083 257.344Z" fill="#609966" stroke="black" stroke-linecap="round" stroke-linejoin="round"/>
<path d="M198.353 206.904C198.353 206.904 196.375 216.112 196.375 219.089C196.375 222.066 197.506 241.336 197.791 246.714C197.928 250.272 197.691 253.835 197.083 257.344C197.083 257.344 199.491 258.475 200.483 258.475C201.475 258.475 202.746 257.483 202.746 257.483C202.746 257.483 205.583 245.014 205.583 238.359C205.583 231.704 206.146 227.874 205.583 223.621C205.021 219.367 203.055 211.581 203.738 208.743C204.42 205.906 200.483 202.651 198.353 206.904Z" fill="black" stroke="black" stroke-linecap="round" stroke-linejoin="round"/>
<path d="M198.334 166.216C198.334 166.216 195.92 182.56 195.92 194.688C195.92 206.816 201.071 221.345 202.354 223.368C203.637 225.39 214.855 245.608 217.427 249.836C219.247 253.042 220.754 256.415 221.927 259.91C222.824 260.186 223.748 260.37 224.682 260.46C225.605 260.46 226.888 259.36 226.888 259.36C226.888 259.36 220.922 236.046 218.533 229.985C216.144 223.924 211.202 219.14 209.919 216.776C208.636 214.412 208.08 205.191 208.08 205.191C208.08 205.191 215.613 193.247 216.928 186.813C218.242 180.379 214.697 173.168 213.224 170.64C212.262 168.917 211.403 167.138 210.652 165.312C210.652 165.312 202.935 169.875 198.334 166.216Z" fill="black" stroke="black" stroke-linecap="round" stroke-linejoin="round"/>
<path d="M212.308 159.58C212.308 159.58 216.902 145.43 217.996 142.118C219.089 138.806 217.44 137.523 212.478 138.073C207.517 138.623 198.878 142.497 198.511 146.712C198.145 150.928 199.775 153.33 199.775 155.352C199.775 157.374 196.868 166.216 199.08 168.036C201.292 169.856 208.269 169.3 210.292 166.772C212.314 164.244 212.308 159.58 212.308 159.58Z" fill="#609966" stroke="black" stroke-linecap="round" stroke-linejoin="round"/>
<path d="M213.73 139.419C213.996 141.732 213.427 144.063 212.124 145.992C209.919 149.481 204.958 148.198 205.324 144.336C205.691 140.475 210.368 137.27 213.73 139.419Z" fill="#FFDBDB" stroke="black" stroke-linecap="round" stroke-linejoin="round"/>
<path d="M210.595 144.892C211.193 144.797 211.762 144.569 212.261 144.226C212.76 143.883 213.176 143.433 213.478 142.908C213.781 142.384 213.963 141.799 214.011 141.195C214.059 140.591 213.971 139.985 213.755 139.419C213.618 139.029 213.381 138.682 213.067 138.414C212.752 138.145 212.373 137.964 211.966 137.89C208.806 137.34 195.054 138.44 191.559 138.073C188.064 137.706 174.836 129.617 171.335 126.495C167.834 123.373 166.557 121.717 166.557 120.428C166.557 119.138 165.635 116.2 164.901 115.283C164.168 114.367 162.879 112.521 162.879 112.521C162.879 112.521 161.615 112.521 161.779 113.261C162.079 114.086 162.447 114.885 162.879 115.65C162.879 115.65 159.201 113.444 158.284 112.49C158.192 112.363 158.075 112.256 157.939 112.177C157.804 112.098 157.653 112.049 157.497 112.031C157.341 112.014 157.183 112.03 157.034 112.077C156.884 112.124 156.746 112.203 156.629 112.306L158.651 114.512C158.651 114.512 158.468 115.985 159.915 118.374C161.01 120.005 162.378 121.436 163.96 122.602C163.96 122.602 171.31 131.241 176.827 136.019C182.345 140.797 187.483 143.742 192.084 144.475C196.141 145.158 202.474 146.378 210.595 144.892Z" fill="#FFDBDB" stroke="black" stroke-linecap="round" stroke-linejoin="round"/>
<path d="M221.952 259.91C221.952 259.91 219.045 263.013 217.06 264.283C215.076 265.554 212.523 266.413 212.952 267.545C213.382 268.676 218.64 268.537 221.168 268.391C223.696 268.246 228.816 265.863 229.669 265.276C230.522 264.688 226.913 259.36 226.913 259.36C226.913 259.36 224.151 260.915 221.952 259.91Z" fill="#609966" stroke="black" stroke-linecap="round" stroke-linejoin="round"/>
<path d="M221.2 268.391C223.728 268.252 228.847 265.863 229.7 265.276C229.934 265.118 229.82 264.587 229.542 263.911C226.664 265.337 223.626 266.415 220.492 267.121C216.346 268.006 213.995 267.589 212.94 267.254C212.936 267.353 212.951 267.451 212.984 267.545C213.376 268.676 218.615 268.537 221.2 268.391Z" fill="black" stroke="black" stroke-linecap="round" stroke-linejoin="round"/>
<path d="M203.175 264.176C203.302 263.801 203.372 263.409 203.384 263.013C202.259 263.923 201.444 263.493 199.63 263.607C197.361 263.753 196.514 263.753 191.837 263.753C190.006 263.798 188.184 263.495 186.465 262.861C186.468 262.874 186.468 262.887 186.465 262.899C186.326 264.163 188.873 264.884 191.711 264.884C194.549 264.884 197.942 264.884 199.642 265.168C201.343 265.453 202.468 265.984 203.175 264.176Z" fill="black" stroke="black" stroke-linecap="round" stroke-linejoin="round"/>
<path d="M208.08 205.166C208.08 205.166 208.604 196.419 209.571 194.688C210.538 192.956 212.839 190.649 214.374 189.303" stroke="#FFDBDB" stroke-width="0.75" stroke-linecap="round" stroke-linejoin="round"/>
</svg>
